{
.appVersion = "1274";
DisplayStrings = (

glyphs = (
{
glyphname = numbersign;
layers = (
{
hints = (
{
horizontal = 1;
place = "{0, 21}";
target = up;
type = BottomGhost;
},
{
horizontal = 1;
place = "{212, 60}";
type = Stem;
},
{
horizontal = 1;
place = "{468, 60}";
type = Stem;
},
{
horizontal = 1;
place = "{740, -20}";
target = down;
type = TopGhost;
},
{
place = "{69, 545}";
type = Stem;
}
);
layerId = "46919C11-A143-4288-9F65-95BCCFE886E8";
paths = (
{
closed = 1;
nodes = (
"69 528 LINE",
"69 468 LINE",
"197 468 LINE",
"170 272 LINE",
"69 272 LINE",
"69 212 LINE",
"162 212 LINE",
"134 0 LINE",
"194 0 LINE",
"222 212 LINE",
"418 212 LINE",
"390 0 LINE",
"450 0 LINE",
"478 212 LINE",
"614 212 LINE",
"614 272 LINE",
"485 272 LINE",
"512 468 LINE",
"614 468 LINE",
"614 528 LINE",
"519 528 LINE",
"548 740 LINE",
"488 740 LINE",
"460 528 LINE",
"263 528 LINE",
"292 740 LINE",
"232 740 LINE",
"204 528 LINE"
);
},
{
closed = 1;
nodes = (
"256 468 LINE",
"452 468 LINE",
"426 272 LINE",
"229 272 LINE"
);
}
);
width = 696;
}
);
note = numbersign;
rightKerningGroup = space;
unicode = 0023;
},
{
glyphname = dollar;
layers = (
{
hints = (
{
horizontal = 1;
place = "{-138, 21}";
target = up;
type = BottomGhost;
},
{
horizontal = 1;
place = "{-16, 85}";
type = Stem;
},
{
horizontal = 1;
place = "{756, -20}";
target = down;
type = TopGhost;
},
{
horizontal = 1;
place = "{963, -20}";
target = down;
type = TopGhost;
},
{
place = "{108, 83}";
type = Stem;
},
{
place = "{318, 57}";
type = Stem;
},
{
place = "{514, 88}";
type = Stem;
}
);
layerId = "46919C11-A143-4288-9F65-95BCCFE886E8";
paths = (
{
closed = 1;
nodes = (
"108 520 OFFCURVE",
"167 450 OFFCURVE",
"290 405 CURVE SMOOTH",
"425 356 OFFCURVE",
"514 307 OFFCURVE",
"514 219 CURVE SMOOTH",
"514 112 OFFCURVE",
"419 69 OFFCURVE",
"329 69 CURVE SMOOTH",
"210 69 OFFCURVE",
"168 138 OFFCURVE",
"143 186 CURVE",
"61 135 LINE",
"107 56 OFFCURVE",
"148 -12 OFFCURVE",
"318 -16 CURVE",
"318 -138 LINE",
"375 -138 LINE",
"375 -14 LINE",
"506 -1 OFFCURVE",
"602 78 OFFCURVE",
"602 223 CURVE SMOOTH",
"602 359 OFFCURVE",
"485 424 OFFCURVE",
"343 475 CURVE SMOOTH",
"259 505 OFFCURVE",
"191 543 OFFCURVE",
"191 615 CURVE SMOOTH",
"191 686 OFFCURVE",
"248 756 OFFCURVE",
"348 756 CURVE SMOOTH",
"426 756 OFFCURVE",
"462 723 OFFCURVE",
"485 682 CURVE",
"555 726 LINE",
"527 770 OFFCURVE",
"476 827 OFFCURVE",
"375 838 CURVE",
"375 963 LINE",
"318 963 LINE",
"318 839 LINE",
"204 828 OFFCURVE",
"108 739 OFFCURVE",
"108 612 CURVE SMOOTH"
);
}
);
width = 652;
}
);
leftKerningGroup = dollar;
note = dollar;
rightKerningGroup = space;
unicode = 0024;
},
{
glyphname = percent;
layers = (
{
hints = (
{
horizontal = 1;
place = "{-16, 52}";
type = Stem;
},
{
horizontal = 1;
place = "{-16, 21}";
target = up;
type = BottomGhost;
},
{
horizontal = 1;
place = "{326, 52}";
type = Stem;
},
{
horizontal = 1;
place = "{445, 52}";
type = Stem;
},
{
horizontal = 1;
place = "{787, 52}";
type = Stem;
},
{
place = "{44, 63}";
type = Stem;
},
{
place = "{397, 63}";
type = Stem;
},
{
place = "{539, 63}";
type = Stem;
},
{
place = "{892, 63}";
type = Stem;
}
);
layerId = "46919C11-A143-4288-9F65-95BCCFE886E8";
paths = (
{
closed = 1;
nodes = (
"230 0 LINE",
"291 0 LINE",
"771 825 LINE",
"710 825 LINE"
);
},
{
closed = 1;
nodes = (
"44 526 OFFCURVE",
"135 445 OFFCURVE",
"252 445 CURVE SMOOTH",
"369 445 OFFCURVE",
"460 526 OFFCURVE",
"460 642 CURVE SMOOTH",
"460 758 OFFCURVE",
"372 839 OFFCURVE",
"252 839 CURVE SMOOTH",
"132 839 OFFCURVE",
"44 758 OFFCURVE",
"44 642 CURVE SMOOTH"
);
},
{
closed = 1;
nodes = (
"107 728 OFFCURVE",
"169 787 OFFCURVE",
"252 787 CURVE SMOOTH",
"335 787 OFFCURVE",
"397 728 OFFCURVE",
"397 642 CURVE SMOOTH",
"397 557 OFFCURVE",
"334 497 OFFCURVE",
"252 497 CURVE SMOOTH",
"170 497 OFFCURVE",
"107 557 OFFCURVE",
"107 642 CURVE SMOOTH"
);
},
{
closed = 1;
nodes = (
"539 65 OFFCURVE",
"630 -16 OFFCURVE",
"747 -16 CURVE SMOOTH",
"864 -16 OFFCURVE",
"955 65 OFFCURVE",
"955 181 CURVE SMOOTH",
"955 297 OFFCURVE",
"867 378 OFFCURVE",
"747 378 CURVE SMOOTH",
"627 378 OFFCURVE",
"539 297 OFFCURVE",
"539 181 CURVE SMOOTH"
);
},
{
closed = 1;
nodes = (
"602 267 OFFCURVE",
"664 326 OFFCURVE",
"747 326 CURVE SMOOTH",
"830 326 OFFCURVE",
"892 267 OFFCURVE",
"892 181 CURVE SMOOTH",
"892 96 OFFCURVE",
"829 36 OFFCURVE",
"747 36 CURVE SMOOTH",
"665 36 OFFCURVE",
"602 96 OFFCURVE",
"602 181 CURVE SMOOTH"
);
}
);
width = 1000;
}
);
note = percent;
rightKerningGroup = space;
unicode = 0025;
},
{
glyphname = ampersand;
layers = (
{
hints = (
{
horizontal = 1;
place = "{-16, 86}";
type = Stem;
},
{
horizontal = 1;
place = "{772, 68}";
type = Stem;
},
{
place = "{56, 100}";
type = Stem;
},
{
place = "{476, 80}";
type = Stem;
},
{
place = "{146, 91}";
type = Stem;
}
);
layerId = "46919C11-A143-4288-9F65-95BCCFE886E8";
paths = (
{
closed = 1;
nodes = (
"56 58 OFFCURVE",
"179 -16 OFFCURVE",
"309 -16 CURVE SMOOTH",
"431 -16 OFFCURVE",
"514 48 OFFCURVE",
"582 114 CURVE",
"686 0 LINE",
"800 0 LINE",
"648 165 LINE",
"692 210 OFFCURVE",
"736 270 OFFCURVE",
"750 299 CURVE",
"691 350 LINE",
"670 312 OFFCURVE",
"630 262 OFFCURVE",
"589 226 CURVE",
"384 448 LINE",
"442 476 OFFCURVE",
"556 539 OFFCURVE",
"556 654 CURVE SMOOTH",
"556 744 OFFCURVE",
"488 840 OFFCURVE",
"355 840 CURVE SMOOTH",
"219 840 OFFCURVE",
"146 754 OFFCURVE",
"146 654 CURVE SMOOTH",
"146 576 OFFCURVE",
"198 518 OFFCURVE",
"254 460 CURVE",
"136 400 OFFCURVE",
"56 319 OFFCURVE",
"56 209 CURVE SMOOTH"
);
},
{
closed = 1;
nodes = (
"237 713 OFFCURVE",
"277 772 OFFCURVE",
"355 772 CURVE SMOOTH",
"437 772 OFFCURVE",
"476 713 OFFCURVE",
"476 654 CURVE SMOOTH",
"476 579 OFFCURVE",
"422 542 OFFCURVE",
"335 499 CURVE",
"304 529 OFFCURVE",
"237 583 OFFCURVE",
"237 654 CURVE SMOOTH"
);
},
{
closed = 1;
nodes = (
"156 286 OFFCURVE",
"202 359 OFFCURVE",
"304 408 CURVE",
"523 175 LINE",
"485 131 OFFCURVE",
"410 70 OFFCURVE",
"317 70 CURVE SMOOTH",
"226 70 OFFCURVE",
"156 126 OFFCURVE",
"156 215 CURVE SMOOTH"
);
}
);
width = 774;
}
);
note = ampersand;
rightKerningGroup = space;
unicode = 0026;
},
{
glyphname = quotesingle;
layers = (
{
hints = (
{
horizontal = 1;
place = "{831, -20}";
target = down;
type = TopGhost;
},
{
place = "{49, 90}";
type = Stem;
}
);
layerId = "46919C11-A143-4288-9F65-95BCCFE886E8";
paths = (
{
closed = 1;
nodes = (
"49 831 LINE",
"66 600 LINE",
"123 600 LINE",
"139 831 LINE"
);
}
);
width = 188;
}
);
leftKerningGroup = quotesingle;
note = quotesingle;
rightKerningGroup = quotesingle;
unicode = 0027;
},
{
glyphname = quotedbl;
layers = (
{
hints = (
{
horizontal = 1;
place = "{600, 21}";
target = up;
type = BottomGhost;
},
{
horizontal = 1;
place = "{831, -20}";
target = down;
type = TopGhost;
},
{
place = "{49, 90}";
type = Stem;
},
{
place = "{180, 90}";
type = Stem;
}
);
layerId = "46919C11-A143-4288-9F65-95BCCFE886E8";
paths = (
{
closed = 1;
nodes = (
"49 831 LINE",
"66 600 LINE",
"123 600 LINE",
"139 831 LINE"
);
},
{
closed = 1;
nodes = (
"180 831 LINE",
"196 600 LINE",
"254 600 LINE",
"270 831 LINE"
);
}
);
width = 319;
}
);
note = quotedbl;
rightKerningGroup = space;
unicode = 0022;
},
{
glyphname = parenleft;
layers = (
{
hints = (
{
horizontal = 1;
place = "{-260, 21}";
target = up;
type = BottomGhost;
},
{
horizontal = 1;
place = "{875, -20}";
target = down;
type = TopGhost;
},
{
place = "{77, 84}";
type = Stem;
}
);
layerId = "46919C11-A143-4288-9F65-95BCCFE886E8";
paths = (
{
closed = 1;
nodes = (
"161 638 OFFCURVE",
"317 851 OFFCURVE",
"317 851 CURVE",
"260 875 LINE",
"260 875 OFFCURVE",
"77 657 OFFCURVE",
"77 307 CURVE SMOOTH",
"77 -43 OFFCURVE",
"260 -260 OFFCURVE",
"260 -260 CURVE",
"317 -236 LINE",
"317 -236 OFFCURVE",
"161 -24 OFFCURVE",
"161 307 CURVE SMOOTH"
);
}
);
width = 344;
}
);
note = parenleft;
rightKerningGroup = space;
unicode = 0028;
},
{
glyphname = parenright;
layers = (
{
hints = (
{
horizontal = 1;
place = "{-260, 21}";
target = up;
type = BottomGhost;
},
{
horizontal = 1;
place = "{875, -20}";
target = down;
type = TopGhost;
},
{
place = "{183, 84}";
type = Stem;
}
);
layerId = "46919C11-A143-4288-9F65-95BCCFE886E8";
paths = (
{
closed = 1;
nodes = (
"183 -24 OFFCURVE",
"27 -236 OFFCURVE",
"27 -236 CURVE",
"84 -260 LINE",
"84 -260 OFFCURVE",
"267 -43 OFFCURVE",
"267 307 CURVE SMOOTH",
"267 657 OFFCURVE",
"84 875 OFFCURVE",
"84 875 CURVE",
"27 851 LINE",
"27 851 OFFCURVE",
"183 638 OFFCURVE",
"183 307 CURVE SMOOTH"
);
}
);
width = 344;
}
);
note = parenright;
rightKerningGroup = space;
unicode = 0029;
},
{
glyphname = asterisk;
layers = (
{
hints = (
{
horizontal = 1;
place = "{623, 21}";
target = up;
type = BottomGhost;
},
{
horizontal = 1;
place = "{860, -20}";
target = down;
type = TopGhost;
},
{
place = "{135, 43}";
type = Stem;
}
);
layerId = "46919C11-A143-4288-9F65-95BCCFE886E8";
paths = (
{
closed = 1;
nodes = (
"135 860 LINE",
"135 766 LINE",
"44 794 LINE",
"31 755 LINE",
"122 724 LINE",
"68 646 LINE",
"100 623 LINE",
"156 698 LINE",
"212 623 LINE",
"244 646 LINE",
"190 724 LINE",
"281 755 LINE",
"268 794 LINE",
"178 766 LINE",
"178 860 LINE"
);
}
);
width = 312;
}
);
note = asterisk;
rightKerningGroup = space;
unicode = 002A;
},
{
glyphname = plus;
layers = (
{
hints = (
{
horizontal = 1;
place = "{158, 21}";
target = up;
type = BottomGhost;
},
{
horizontal = 1;
place = "{376, 76}";
type = Stem;
},
{
horizontal = 1;
place = "{670, -20}";
target = down;
type = TopGhost;
},
{
place = "{276, 76}";
type = Stem;
}
);
layerId = "46919C11-A143-4288-9F65-95BCCFE886E8";
paths = (
{
closed = 1;
nodes = (
"276 670 LINE",
"276 452 LINE",
"58 452 LINE",
"58 376 LINE",
"276 376 LINE",
"276 158 LINE",
"352 158 LINE",
"352 376 LINE",
"570 376 LINE",
"570 452 LINE",
"352 452 LINE",
"352 670 LINE"
);
}
);
width = 628;
}
);
note = plus;
rightKerningGroup = space;
unicode = 002B;
},
{
glyphname = minus;
layers = (
{
hints = (
{
horizontal = 1;
place = "{376, 76}";
type = Stem;
},
{
place = "{53, 512}";
type = Stem;
}
);
layerId = "46919C11-A143-4288-9F65-95BCCFE886E8";
paths = (
{
closed = 1;
nodes = (
"53 452 LINE",
"53 376 LINE",
"565 376 LINE",
"565 452 LINE"
);
}
);
width = 618;
}
);
note = minus;
rightKerningGroup = space;
unicode = 2212;
},
{
glyphname = multiply;
layers = (
{
hints = (
{
horizontal = 1;
place = "{181, 21}";
target = up;
type = BottomGhost;
},
{
horizontal = 1;
place = "{647, -20}";
target = down;
type = TopGhost;
},
{
place = "{56, 466}";
type = Stem;
}
);
layerId = "46919C11-A143-4288-9F65-95BCCFE886E8";
paths = (
{
closed = 1;
nodes = (
"56 595 LINE",
"236 414 LINE",
"56 233 LINE",
"109 181 LINE",
"289 361 LINE",
"469 181 LINE",
"522 233 LINE",
"342 414 LINE",
"522 595 LINE",
"469 647 LINE",
"289 467 LINE",
"109 647 LINE"
);
}
);
width = 578;
}
);
note = multiply;
rightKerningGroup = space;
unicode = 00D7;
},
{
glyphname = divide;
layers = (
{
hints = (
{
place = "{279, 96}";
type = Stem;
}
);
layerId = "46919C11-A143-4288-9F65-95BCCFE886E8";
paths = (
{
closed = 1;
nodes = (
"300 704 OFFCURVE",
"279 683 OFFCURVE",
"279 656 CURVE SMOOTH",
"279 629 OFFCURVE",
"300 608 OFFCURVE",
"327 608 CURVE SMOOTH",
"354 608 OFFCURVE",
"375 629 OFFCURVE",
"375 656 CURVE SMOOTH",
"375 683 OFFCURVE",
"354 704 OFFCURVE",
"327 704 CURVE SMOOTH"
);
},
{
closed = 1;
nodes = (
"71 453 LINE",
"71 377 LINE",
"583 377 LINE",
"583 453 LINE"
);
},
{
closed = 1;
nodes = (
"300 222 OFFCURVE",
"279 201 OFFCURVE",
"279 174 CURVE SMOOTH",
"279 147 OFFCURVE",
"300 126 OFFCURVE",
"327 126 CURVE SMOOTH",
"354 126 OFFCURVE",
"375 147 OFFCURVE",
"375 174 CURVE SMOOTH",
"375 201 OFFCURVE",
"354 222 OFFCURVE",
"327 222 CURVE SMOOTH"
);
}
);
width = 654;
}
);
note = divide;
rightKerningGroup = space;
unicode = 00F7;
},
{
glyphname = less;
layers = (
{
hints = (
{
horizontal = 1;
place = "{135, 21}";
target = up;
type = BottomGhost;
},
{
horizontal = 1;
place = "{697, -20}";
target = down;
type = TopGhost;
},
{
place = "{27, 547}";
type = Stem;
}
);
layerId = "46919C11-A143-4288-9F65-95BCCFE886E8";
paths = (
{
closed = 1;
nodes = (
"27 445 LINE",
"27 387 LINE",
"574 135 LINE",
"574 208 LINE",
"121 416 LINE",
"574 624 LINE",
"574 697 LINE"
);
}
);
width = 625;
}
);
note = less;
rightKerningGroup = space;
unicode = 003C;
},
{
glyphname = equal;
layers = (
{
hints = (
{
horizontal = 1;
place = "{274, 76}";
type = Stem;
},
{
horizontal = 1;
place = "{479, 76}";
type = Stem;
},
{
place = "{53, 512}";
type = Stem;
}
);
layerId = "46919C11-A143-4288-9F65-95BCCFE886E8";
paths = (
{
closed = 1;
nodes = (
"53 555 LINE",
"53 479 LINE",
"565 479 LINE",
"565 555 LINE"
);
},
{
closed = 1;
nodes = (
"53 350 LINE",
"53 274 LINE",
"565 274 LINE",
"565 350 LINE"
);
}
);
width = 618;
}
);
note = equal;
rightKerningGroup = space;
unicode = 003D;
},
{
glyphname = greater;
layers = (
{
hints = (
{
horizontal = 1;
place = "{135, 21}";
target = up;
type = BottomGhost;
},
{
horizontal = 1;
place = "{697, -20}";
target = down;
type = TopGhost;
},
{
place = "{51, 547}";
type = Stem;
}
);
layerId = "46919C11-A143-4288-9F65-95BCCFE886E8";
paths = (
{
closed = 1;
nodes = (
"598 445 LINE",
"51 697 LINE",
"51 624 LINE",
"504 416 LINE",
"51 208 LINE",
"51 135 LINE",
"598 387 LINE"
);
}
);
width = 625;
}
);
note = greater;
rightKerningGroup = space;
unicode = 003E;
},
{
glyphname = plusminus;
layers = (
{
hints = (
{
horizontal = 1;
place = "{0, 76}";
type = Stem;
},
{
horizontal = 1;
place = "{386, 76}";
type = Stem;
},
{
place = "{289, 76}";
type = Stem;
},
{
place = "{71, 512}";
type = Stem;
}
);
layerId = "46919C11-A143-4288-9F65-95BCCFE886E8";
paths = (
{
closed = 1;
nodes = (
"289 670 LINE",
"289 462 LINE",
"71 462 LINE",
"71 386 LINE",
"289 386 LINE",
"289 178 LINE",
"365 178 LINE",
"365 386 LINE",
"583 386 LINE",
"583 462 LINE",
"365 462 LINE",
"365 670 LINE"
);
},
{
closed = 1;
nodes = (
"71 76 LINE",
"71 0 LINE",
"583 0 LINE",
"583 76 LINE"
);
}
);
width = 654;
}
);
note = plusminus;
rightKerningGroup = space;
unicode = 00B1;
},
{
glyphname = notequal;
layers = (
{
hints = (
{
horizontal = 1;
place = "{274, 76}";
type = Stem;
},
{
horizontal = 1;
place = "{479, 76}";
type = Stem;
},
{
horizontal = 1;
place = "{705, -20}";
target = down;
type = TopGhost;
},
{
place = "{53, 512}";
type = Stem;
}
);
layerId = "46919C11-A143-4288-9F65-95BCCFE886E8";
paths = (
{
closed = 1;
nodes = (
"53 555 LINE",
"53 479 LINE",
"288 479 LINE",
"213 350 LINE",
"53 350 LINE",
"53 274 LINE",
"170 274 LINE",
"81 120 LINE",
"142 120 LINE",
"231 274 LINE",
"565 274 LINE",
"565 350 LINE",
"275 350 LINE",
"350 479 LINE",
"565 479 LINE",
"565 555 LINE",
"395 555 LINE",
"482 705 LINE",
"420 705 LINE",
"333 555 LINE"
);
}
);
width = 618;
}
);
note = notequal;
rightKerningGroup = space;
unicode = 2260;
},
{
glyphname = lessequal;
layers = (
{
hints = (
{
horizontal = 1;
place = "{57, 76}";
type = Stem;
},
{
place = "{27, 547}";
type = Stem;
}
);
layerId = "46919C11-A143-4288-9F65-95BCCFE886E8";
paths = (
{
closed = 1;
nodes = (
"27 133 LINE",
"27 57 LINE",
"574 57 LINE",
"574 133 LINE"
);
},
{
closed = 1;
nodes = (
"27 538 LINE",
"27 480 LINE",
"574 228 LINE",
"574 299 LINE",
"118 509 LINE",
"574 720 LINE",
"574 790 LINE"
);
}
);
width = 627;
}
);
note = lessequal;
rightKerningGroup = space;
unicode = 2264;
},
{
glyphname = greaterequal;
layers = (
{
hints = (
{
horizontal = 1;
place = "{57, 76}";
type = Stem;
},
{
place = "{53, 547}";
type = Stem;
}
);
layerId = "46919C11-A143-4288-9F65-95BCCFE886E8";
paths = (
{
closed = 1;
nodes = (
"53 133 LINE",
"53 57 LINE",
"600 57 LINE",
"600 133 LINE"
);
},
{
closed = 1;
nodes = (
"600 538 LINE",
"53 790 LINE",
"53 720 LINE",
"509 509 LINE",
"53 299 LINE",
"53 228 LINE",
"600 480 LINE"
);
}
);
width = 627;
}
);
note = greaterequal;
rightKerningGroup = space;
unicode = 2265;
},
{
glyphname = fraction;
layers = (
{
hints = (
{
horizontal = 1;
place = "{0, 21}";
target = up;
type = BottomGhost;
},
{
horizontal = 1;
place = "{825, -20}";
target = down;
type = TopGhost;
},
{
place = "{-139, 542}";
type = Stem;
}
);
layerId = "46919C11-A143-4288-9F65-95BCCFE886E8";
paths = (
{
closed = 1;
nodes = (
"-139 0 LINE",
"-77 0 LINE",
"403 825 LINE",
"341 825 LINE"
);
}
);
width = 264;
}
);
note = fraction;
rightKerningGroup = space;
unicode = 2044;
},
{
glyphname = comma;
layers = (
{
hints = (
{
horizontal = 1;
place = "{-131, 21}";
target = up;
type = BottomGhost;
},
{
horizontal = 1;
place = "{106, -20}";
target = down;
type = TopGhost;
},
{
place = "{57, 122}";
type = Stem;
}
);
layerId = "46919C11-A143-4288-9F65-95BCCFE886E8";
paths = (
{
closed = 1;
nodes = (
"84 106 OFFCURVE",
"57 79 OFFCURVE",
"57 44 CURVE SMOOTH",
"57 15 OFFCURVE",
"79 -8 OFFCURVE",
"106 -13 CURVE",
"100 -65 OFFCURVE",
"72 -100 OFFCURVE",
"65 -111 CURVE",
"89 -131 LINE",
"134 -92 OFFCURVE",
"179 -33 OFFCURVE",
"179 44 CURVE SMOOTH",
"179 79 OFFCURVE",
"152 106 OFFCURVE",
"118 106 CURVE SMOOTH"
);
}
);
width = 236;
}
);
leftKerningGroup = comma;
note = comma;
rightKerningGroup = space;
unicode = 002C;
},
{
glyphname = hyphen;
layers = (
{
hints = (
{
horizontal = 1;
place = "{252, 75}";
type = Stem;
},
{
place = "{67, 322}";
type = Stem;
}
);
layerId = "46919C11-A143-4288-9F65-95BCCFE886E8";
paths = (
{
closed = 1;
nodes = (
"67 327 LINE",
"67 252 LINE",
"389 252 LINE",
"389 327 LINE"
);
}
);
width = 456;
}
);
note = hyphen;
rightKerningGroup = space;
unicode = 002D;
},
{
glyphname = period;
layers = (
{
hints = (
{
horizontal = 1;
place = "{-16, 122}";
type = Stem;
},
{
place = "{57, 122}";
type = Stem;
}
);
layerId = "46919C11-A143-4288-9F65-95BCCFE886E8";
paths = (
{
closed = 1;
nodes = (
"84 106 OFFCURVE",
"57 79 OFFCURVE",
"57 45 CURVE SMOOTH",
"57 11 OFFCURVE",
"84 -16 OFFCURVE",
"118 -16 CURVE SMOOTH",
"152 -16 OFFCURVE",
"179 11 OFFCURVE",
"179 45 CURVE SMOOTH",
"179 79 OFFCURVE",
"152 106 OFFCURVE",
"118 106 CURVE SMOOTH"
);
}
);
width = 236;
}
);
leftKerningGroup = comma;
note = period;
rightKerningGroup = space;
unicode = 002E;
},
{
glyphname = slash;
layers = (
{
hints = (
{
horizontal = 1;
place = "{-120, 21}";
target = up;
type = BottomGhost;
},
{
horizontal = 1;
place = "{860, -20}";
target = down;
type = TopGhost;
},
{
place = "{10, 485}";
type = Stem;
}
);
layerId = "46919C11-A143-4288-9F65-95BCCFE886E8";
paths = (
{
closed = 1;
nodes = (
"10 -120 LINE",
"83 -120 LINE",
"495 860 LINE",
"422 860 LINE"
);
}
);
width = 505;
}
);
note = slash;
rightKerningGroup = space;
unicode = 002F;
},
{
glyphname = zero;
layers = (
{
hints = (
{
horizontal = 1;
place = "{-16, 82}";
type = Stem;
},
{
horizontal = 1;
place = "{758, 82}";
type = Stem;
},
{
place = "{65, 92}";
type = Stem;
},
{
place = "{645, 92}";
type = Stem;
}
);
layerId = "46919C11-A143-4288-9F65-95BCCFE886E8";
paths = (
{
closed = 1;
nodes = (
"157 640 OFFCURVE",
"265 758 OFFCURVE",
"401 758 CURVE SMOOTH",
"537 758 OFFCURVE",
"645 640 OFFCURVE",
"645 412 CURVE SMOOTH",
"645 184 OFFCURVE",
"537 66 OFFCURVE",
"401 66 CURVE SMOOTH",
"265 66 OFFCURVE",
"157 184 OFFCURVE",
"157 412 CURVE SMOOTH"
);
},
{
closed = 1;
nodes = (
"65 125 OFFCURVE",
"224 -16 OFFCURVE",
"401 -16 CURVE SMOOTH",
"578 -16 OFFCURVE",
"737 125 OFFCURVE",
"737 412 CURVE SMOOTH",
"737 699 OFFCURVE",
"578 840 OFFCURVE",
"401 840 CURVE SMOOTH",
"224 840 OFFCURVE",
"65 699 OFFCURVE",
"65 412 CURVE SMOOTH"
);
}
);
width = 802;
}
);
note = zero;
rightKerningGroup = space;
unicode = 0030;
},
{
glyphname = one;
layers = (
{
hints = (
{
horizontal = 1;
place = "{0, 21}";
target = up;
type = BottomGhost;
},
{
horizontal = 1;
place = "{734, 91}";
type = Stem;
},
{
place = "{93, 92}";
type = Stem;
}
);
layerId = "46919C11-A143-4288-9F65-95BCCFE886E8";
paths = (
{
closed = 1;
nodes = (
"6 825 LINE",
"6 734 LINE",
"93 734 LINE",
"93 0 LINE",
"185 0 LINE",
"185 825 LINE"
);
}
);
width = 278;
}
);
note = one;
rightKerningGroup = space;
unicode = 0031;
},
{
glyphname = two;
layers = (
{
hints = (
{
horizontal = 1;
place = "{0, 82}";
type = Stem;
},
{
horizontal = 1;
place = "{758, 82}";
type = Stem;
},
{
place = "{554, 100}";
type = Stem;
}
);
layerId = "46919C11-A143-4288-9F65-95BCCFE886E8";
paths = (
{
closed = 1;
nodes = (
"168 555 LINE",
"168 632 OFFCURVE",
"254 758 OFFCURVE",
"367 758 CURVE SMOOTH",
"489 758 OFFCURVE",
"554 654 OFFCURVE",
"554 565 CURVE SMOOTH",
"554 393 OFFCURVE",
"220 158 OFFCURVE",
"76 44 CURVE",
"76 0 LINE",
"669 0 LINE",
"669 82 LINE",
"253 82 LINE",
"431 224 OFFCURVE",
"654 386 OFFCURVE",
"654 565 CURVE SMOOTH",
"654 694 OFFCURVE",
"568 840 OFFCURVE",
"367 840 CURVE SMOOTH",
"190 840 OFFCURVE",
"87 673 OFFCURVE",
"87 585 CURVE"
);
}
);
width = 745;
}
);
note = two;
rightKerningGroup = space;
unicode = 0032;
},
{
glyphname = three;
layers = (
{
hints = (
{
horizontal = 1;
place = "{-16, 84}";
type = Stem;
},
{
horizontal = 1;
place = "{394, 63}";
type = Stem;
},
{
horizontal = 1;
place = "{763, 21}";
target = up;
type = BottomGhost;
},
{
place = "{473, 86}";
type = Stem;
},
{
place = "{481, 94}";
type = Stem;
}
);
layerId = "46919C11-A143-4288-9F65-95BCCFE886E8";
paths = (
{
closed = 1;
nodes = (
"162 612 LINE",
"171 693 OFFCURVE",
"224 763 OFFCURVE",
"321 763 CURVE SMOOTH",
"404 763 OFFCURVE",
"473 698 OFFCURVE",
"473 616 CURVE SMOOTH",
"473 525 OFFCURVE",
"399 457 OFFCURVE",
"312 457 CURVE SMOOTH",
"283 457 LINE",
"283 390 LINE",
"283 390 OFFCURVE",
"296 394 OFFCURVE",
"313 394 CURVE SMOOTH",
"403 394 OFFCURVE",
"481 321 OFFCURVE",
"481 224 CURVE SMOOTH",
"481 134 OFFCURVE",
"420 68 OFFCURVE",
"312 68 CURVE SMOOTH",
"189 68 OFFCURVE",
"141 143 OFFCURVE",
"129 230 CURVE",
"42 196 LINE",
"56 101 OFFCURVE",
"122 -16 OFFCURVE",
"313 -16 CURVE SMOOTH",
"477 -16 OFFCURVE",
"575 88 OFFCURVE",
"575 224 CURVE SMOOTH",
"575 319 OFFCURVE",
"522 400 OFFCURVE",
"439 429 CURVE",
"509 459 OFFCURVE",
"559 531 OFFCURVE",
"559 616 CURVE SMOOTH",
"559 742 OFFCURVE",
"456 840 OFFCURVE",
"323 840 CURVE SMOOTH",
"160 840 OFFCURVE",
"92 721 OFFCURVE",
"86 640 CURVE"
);
}
);
width = 642;
}
);
note = three;
rightKerningGroup = space;
unicode = 0033;
},
{
glyphname = four;
layers = (
{
hints = (
{
horizontal = 1;
place = "{0, 21}";
target = up;
type = BottomGhost;
},
{
horizontal = 1;
place = "{257, 81}";
type = Stem;
},
{
horizontal = 1;
place = "{825, -20}";
target = down;
type = TopGhost;
},
{
place = "{386, 88}";
type = Stem;
}
);
layerId = "46919C11-A143-4288-9F65-95BCCFE886E8";
paths = (
{
closed = 1;
nodes = (
"-7 257 LINE",
"386 257 LINE",
"386 0 LINE",
"474 0 LINE",
"474 257 LINE",
"570 257 LINE",
"570 338 LINE",
"474 338 LINE",
"474 825 LINE",
"382 825 LINE",
"-7 295 LINE"
);
},
{
closed = 1;
nodes = (
"115 338 LINE",
"386 700 LINE",
"386 338 LINE"
);
}
);
width = 590;
}
);
note = four;
rightKerningGroup = space;
unicode = 0034;
},
{
glyphname = five;
layers = (
{
hints = (
{
horizontal = 1;
place = "{-16, 78}";
type = Stem;
},
{
horizontal = 1;
place = "{476, 70}";
type = Stem;
},
{
horizontal = 1;
place = "{744, 81}";
type = Stem;
},
{
place = "{537, 91}";
type = Stem;
}
);
layerId = "46919C11-A143-4288-9F65-95BCCFE886E8";
paths = (
{
closed = 1;
nodes = (
"154 825 LINE",
"86 392 LINE",
"128 432 OFFCURVE",
"194 476 OFFCURVE",
"290 476 CURVE SMOOTH",
"422 476 OFFCURVE",
"537 402 OFFCURVE",
"537 258 CURVE SMOOTH",
"537 143 OFFCURVE",
"462 62 OFFCURVE",
"329 62 CURVE SMOOTH",
"210 62 OFFCURVE",
"139 133 OFFCURVE",
"116 199 CURVE",
"42 163 LINE",
"73 79 OFFCURVE",
"165 -16 OFFCURVE",
"329 -16 CURVE SMOOTH",
"515 -16 OFFCURVE",
"628 97 OFFCURVE",
"628 255 CURVE SMOOTH",
"628 457 OFFCURVE",
"488 546 OFFCURVE",
"327 546 CURVE SMOOTH",
"263 546 OFFCURVE",
"222 535 OFFCURVE",
"195 517 CURVE",
"230 744 LINE",
"575 744 LINE",
"575 825 LINE"
);
}
);
width = 680;
}
);
note = five;
rightKerningGroup = space;
unicode = 0035;
},
{
glyphname = six;
layers = (
{
hints = (
{
horizontal = 1;
place = "{-16, 78}";
type = Stem;
},
{
horizontal = 1;
place = "{469, 80}";
type = Stem;
},
{
horizontal = 1;
place = "{825, 21}";
target = up;
type = BottomGhost;
},
{
place = "{52, 94}";
type = Stem;
},
{
place = "{552, 91}";
type = Stem;
}
);
layerId = "46919C11-A143-4288-9F65-95BCCFE886E8";
paths = (
{
closed = 1;
nodes = (
"52 104 OFFCURVE",
"179 -16 OFFCURVE",
"350 -16 CURVE SMOOTH",
"508 -16 OFFCURVE",
"643 89 OFFCURVE",
"643 263 CURVE SMOOTH",
"643 439 OFFCURVE",
"508 549 OFFCURVE",
"368 549 CURVE SMOOTH",
"325 549 OFFCURVE",
"291 536 OFFCURVE",
"270 524 CURVE",
"524 825 LINE",
"410 825 LINE",
"410 825 OFFCURVE",
"175 544 OFFCURVE",
"147 510 CURVE SMOOTH",
"92 440 OFFCURVE",
"52 367 OFFCURVE",
"52 263 CURVE SMOOTH"
);
},
{
closed = 1;
nodes = (
"146 377 OFFCURVE",
"236 469 OFFCURVE",
"347 469 CURVE SMOOTH",
"462 469 OFFCURVE",
"552 382 OFFCURVE",
"552 263 CURVE SMOOTH",
"552 147 OFFCURVE",
"465 62 OFFCURVE",
"347 62 CURVE SMOOTH",
"229 62 OFFCURVE",
"146 147 OFFCURVE",
"146 263 CURVE SMOOTH"
);
}
);
width = 695;
}
);
note = six;
rightKerningGroup = space;
unicode = 0036;
},
{
glyphname = seven;
layers = (
{
hints = (
{
horizontal = 1;
place = "{0, 21}";
target = up;
type = BottomGhost;
},
{
horizontal = 1;
place = "{744, 81}";
type = Stem;
}
);
layerId = "46919C11-A143-4288-9F65-95BCCFE886E8";
paths = (
{
closed = 1;
nodes = (
"66 825 LINE",
"66 744 LINE",
"465 744 LINE",
"56 0 LINE",
"164 0 LINE",
"600 795 LINE",
"600 825 LINE"
);
}
);
width = 590;
}
);
note = seven;
rightKerningGroup = space;
unicode = 0037;
},
{
glyphname = eight;
layers = (
{
hints = (
{
horizontal = 1;
place = "{-16, 80}";
type = Stem;
},
{
horizontal = 1;
place = "{397, 76}";
type = Stem;
},
{
horizontal = 1;
place = "{771, 69}";
type = Stem;
},
{
place = "{97, 79}";
type = Stem;
},
{
place = "{472, 79}";
type = Stem;
},
{
place = "{65, 88}";
type = Stem;
},
{
place = "{495, 88}";
type = Stem;
}
);
layerId = "46919C11-A143-4288-9F65-95BCCFE886E8";
paths = (
{
closed = 1;
nodes = (
"176 708 OFFCURVE",
"241 771 OFFCURVE",
"324 771 CURVE SMOOTH",
"407 771 OFFCURVE",
"472 708 OFFCURVE",
"472 621 CURVE SMOOTH",
"472 534 OFFCURVE",
"408 473 OFFCURVE",
"324 473 CURVE SMOOTH",
"240 473 OFFCURVE",
"176 534 OFFCURVE",
"176 621 CURVE SMOOTH"
);
},
{
closed = 1;
nodes = (
"153 328 OFFCURVE",
"229 397 OFFCURVE",
"324 397 CURVE SMOOTH",
"419 397 OFFCURVE",
"495 328 OFFCURVE",
"495 230 CURVE SMOOTH",
"495 133 OFFCURVE",
"423 64 OFFCURVE",
"324 64 CURVE SMOOTH",
"225 64 OFFCURVE",
"153 133 OFFCURVE",
"153 230 CURVE SMOOTH"
);
},
{
closed = 1;
nodes = (
"97 540 OFFCURVE",
"139 473 OFFCURVE",
"209 440 CURVE",
"121 405 OFFCURVE",
"65 328 OFFCURVE",
"65 219 CURVE SMOOTH",
"65 82 OFFCURVE",
"177 -16 OFFCURVE",
"324 -16 CURVE SMOOTH",
"471 -16 OFFCURVE",
"583 82 OFFCURVE",
"583 219 CURVE SMOOTH",
"583 328 OFFCURVE",
"527 405 OFFCURVE",
"439 440 CURVE",
"509 473 OFFCURVE",
"551 540 OFFCURVE",
"551 631 CURVE SMOOTH",
"551 749 OFFCURVE",
"449 840 OFFCURVE",
"324 840 CURVE SMOOTH",
"199 840 OFFCURVE",
"97 749 OFFCURVE",
"97 631 CURVE SMOOTH"
);
}
);
width = 648;
}
);
note = eight;
rightKerningGroup = space;
unicode = 0038;
},
{
glyphname = nine;
layers = (
{
hints = (
{
horizontal = 1;
place = "{0, 21}";
target = up;
type = BottomGhost;
},
{
horizontal = 1;
place = "{275, 80}";
type = Stem;
},
{
horizontal = 1;
place = "{762, 78}";
type = Stem;
},
{
place = "{52, 91}";
type = Stem;
},
{
place = "{549, 94}";
type = Stem;
}
);
layerId = "46919C11-A143-4288-9F65-95BCCFE886E8";
paths = (
{
closed = 1;
nodes = (
"52 385 OFFCURVE",
"187 275 OFFCURVE",
"327 275 CURVE SMOOTH",
"370 275 OFFCURVE",
"404 288 OFFCURVE",
"425 300 CURVE",
"171 0 LINE",
"285 0 LINE",
"285 0 OFFCURVE",
"520 280 OFFCURVE",
"548 314 CURVE SMOOTH",
"603 384 OFFCURVE",
"643 457 OFFCURVE",
"643 561 CURVE SMOOTH",
"643 720 OFFCURVE",
"516 840 OFFCURVE",
"345 840 CURVE SMOOTH",
"187 840 OFFCURVE",
"52 735 OFFCURVE",
"52 561 CURVE SMOOTH"
);
},
{
closed = 1;
nodes = (
"143 677 OFFCURVE",
"230 762 OFFCURVE",
"348 762 CURVE SMOOTH",
"466 762 OFFCURVE",
"549 677 OFFCURVE",
"549 561 CURVE SMOOTH",
"549 447 OFFCURVE",
"459 355 OFFCURVE",
"348 355 CURVE SMOOTH",
"233 355 OFFCURVE",
"143 442 OFFCURVE",
"143 561 CURVE SMOOTH"
);
}
);
width = 695;
}
);
note = nine;
rightKerningGroup = space;
unicode = 0039;
},
{
glyphname = colon;
layers = (
{
hints = (
{
horizontal = 1;
place = "{-16, 122}";
type = Stem;
},
{
horizontal = 1;
place = "{433, 122}";
type = Stem;
},
{
place = "{57, 122}";
type = Stem;
}
);
layerId = "46919C11-A143-4288-9F65-95BCCFE886E8";
paths = (
{
closed = 1;
nodes = (
"84 106 OFFCURVE",
"57 79 OFFCURVE",
"57 45 CURVE SMOOTH",
"57 11 OFFCURVE",
"84 -16 OFFCURVE",
"118 -16 CURVE SMOOTH",
"152 -16 OFFCURVE",
"179 11 OFFCURVE",
"179 45 CURVE SMOOTH",
"179 79 OFFCURVE",
"152 106 OFFCURVE",
"118 106 CURVE SMOOTH"
);
},
{
closed = 1;
nodes = (
"84 555 OFFCURVE",
"57 528 OFFCURVE",
"57 494 CURVE SMOOTH",
"57 460 OFFCURVE",
"84 433 OFFCURVE",
"118 433 CURVE SMOOTH",
"152 433 OFFCURVE",
"179 460 OFFCURVE",
"179 494 CURVE SMOOTH",
"179 528 OFFCURVE",
"152 555 OFFCURVE",
"118 555 CURVE SMOOTH"
);
}
);
width = 236;
}
);
note = colon;
rightKerningGroup = space;
unicode = 003A;
},
{
glyphname = semicolon;
layers = (
{
hints = (
{
horizontal = 1;
place = "{-131, 21}";
target = up;
type = BottomGhost;
},
{
horizontal = 1;
place = "{106, -20}";
target = down;
type = TopGhost;
},
{
horizontal = 1;
place = "{433, 122}";
type = Stem;
},
{
place = "{57, 122}";
type = Stem;
}
);
layerId = "46919C11-A143-4288-9F65-95BCCFE886E8";
paths = (
{
closed = 1;
nodes = (
"84 106 OFFCURVE",
"57 79 OFFCURVE",
"57 44 CURVE SMOOTH",
"57 15 OFFCURVE",
"79 -8 OFFCURVE",
"106 -13 CURVE",
"100 -65 OFFCURVE",
"72 -100 OFFCURVE",
"65 -111 CURVE",
"89 -131 LINE",
"134 -92 OFFCURVE",
"179 -33 OFFCURVE",
"179 44 CURVE SMOOTH",
"179 79 OFFCURVE",
"152 106 OFFCURVE",
"118 106 CURVE SMOOTH"
);
},
{
closed = 1;
nodes = (
"84 555 OFFCURVE",
"57 528 OFFCURVE",
"57 494 CURVE SMOOTH",
"57 460 OFFCURVE",
"84 433 OFFCURVE",
"118 433 CURVE SMOOTH",
"152 433 OFFCURVE",
"179 460 OFFCURVE",
"179 494 CURVE SMOOTH",
"179 528 OFFCURVE",
"152 555 OFFCURVE",
"118 555 CURVE SMOOTH"
);
}
);
width = 236;
}
);
note = semicolon;
rightKerningGroup = space;
unicode = 003B;
},
{
glyphname = exclam;
layers = (
{
hints = (
{
horizontal = 1;
place = "{-16, 122}";
type = Stem;
},
{
horizontal = 1;
place = "{860, -20}";
target = down;
type = TopGhost;
},
{
place = "{111, 86}";
type = Stem;
},
{
place = "{93, 122}";
type = Stem;
}
);
layerId = "46919C11-A143-4288-9F65-95BCCFE886E8";
paths = (
{
closed = 1;
nodes = (
"111 860 LINE",
"121 209 LINE",
"187 209 LINE",
"197 860 LINE"
);
},
{
closed = 1;
nodes = (
"120 106 OFFCURVE",
"93 79 OFFCURVE",
"93 45 CURVE SMOOTH",
"93 11 OFFCURVE",
"120 -16 OFFCURVE",
"154 -16 CURVE SMOOTH",
"188 -16 OFFCURVE",
"215 11 OFFCURVE",
"215 45 CURVE SMOOTH",
"215 79 OFFCURVE",
"188 106 OFFCURVE",
"154 106 CURVE SMOOTH"
);
}
);
width = 308;
}
);
note = exclam;
rightKerningGroup = space;
unicode = 0021;
},
{
glyphname = question;
layers = (
{
hints = (
{
horizontal = 1;
place = "{-16, 122}";
type = Stem;
},
{
horizontal = 1;
place = "{347, 74}";
type = Stem;
},
{
horizontal = 1;
place = "{760, 80}";
type = Stem;
},
{
place = "{227, 82}";
type = Stem;
},
{
place = "{458, 84}";
type = Stem;
},
{
place = "{207, 122}";
type = Stem;
}
);
layerId = "46919C11-A143-4288-9F65-95BCCFE886E8";
paths = (
{
closed = 1;
nodes = (
"106 595 LINE",
"111 691 OFFCURVE",
"172 760 OFFCURVE",
"285 760 CURVE SMOOTH",
"396 760 OFFCURVE",
"458 686 OFFCURVE",
"458 594 CURVE SMOOTH",
"458 503 OFFCURVE",
"399 421 OFFCURVE",
"277 421 CURVE SMOOTH",
"255 421 OFFCURVE",
"241 422 OFFCURVE",
"227 426 CURVE",
"227 219 LINE",
"309 219 LINE",
"309 347 LINE",
"466 361 OFFCURVE",
"542 481 OFFCURVE",
"542 594 CURVE SMOOTH",
"542 713 OFFCURVE",
"452 840 OFFCURVE",
"285 840 CURVE SMOOTH",
"127 840 OFFCURVE",
"38 736 OFFCURVE",
"31 608 CURVE"
);
},
{
closed = 1;
nodes = (
"234 106 OFFCURVE",
"207 79 OFFCURVE",
"207 45 CURVE SMOOTH",
"207 11 OFFCURVE",
"234 -16 OFFCURVE",
"268 -16 CURVE SMOOTH",
"302 -16 OFFCURVE",
"329 11 OFFCURVE",
"329 45 CURVE SMOOTH",
"329 79 OFFCURVE",
"302 106 OFFCURVE",
"268 106 CURVE SMOOTH"
);
}
);
width = 583;
}
);
note = question;
rightKerningGroup = space;
unicode = 003F;
},
{
glyphname = at;
lastChange = "2019-11-26 17:57:52 +0000";
layers = (
{
hints = (
{
horizontal = 1;
place = "{-16, 73}";
type = Stem;
},
{
horizontal = 1;
place = "{213, 63}";
type = Stem;
},
{
horizontal = 1;
place = "{585, 63}";
type = Stem;
},
{
horizontal = 1;
place = "{771, 69}";
type = Stem;
},
{
place = "{54, 76}";
type = Stem;
},
{
place = "{222, 78}";
type = Stem;
},
{
place = "{639, 65}";
type = Stem;
},
{
place = "{838, 65}";
type = Stem;
},
{
horizontal = 1;
place = "{159, 65}";
type = Stem;
}
);
layerId = "46919C11-A143-4288-9F65-95BCCFE886E8";
paths = (
{
closed = 1;
nodes = (
"614 -190 OFFCURVE",
"743 -126 OFFCURVE",
"808 -30 CURVE",
"746 8 LINE",
"694 -69 OFFCURVE",
"592 -117 OFFCURVE",
"483 -117 CURVE SMOOTH",
"283 -117 OFFCURVE",
"130 36 OFFCURVE",
"130 238 CURVE SMOOTH",
"130 437 OFFCURVE",
"287 597 OFFCURVE",
"483 597 CURVE SMOOTH",
"683 597 OFFCURVE",
"838 446 OFFCURVE",
"838 250 CURVE SMOOTH",
"838 145 OFFCURVE",
"818 102 OFFCURVE",
"769 102 CURVE SMOOTH",
"729 102 OFFCURVE",
"704 130 OFFCURVE",
"704 177 CURVE SMOOTH",
"704 460 LINE",
"639 460 LINE",
"639 367 LINE",
"601 435 OFFCURVE",
"532 474 OFFCURVE",
"451 474 CURVE SMOOTH",
"320 474 OFFCURVE",
"222 370 OFFCURVE",
"222 229 CURVE SMOOTH",
"222 89 OFFCURVE",
"319 -15 OFFCURVE",
"451 -15 CURVE SMOOTH",
"534 -15 OFFCURVE",
"604 27 OFFCURVE",
"643 100 CURVE",
"668 62 OFFCURVE",
"712 39 OFFCURVE",
"760 39 CURVE SMOOTH",
"848 39 OFFCURVE",
"903 120 OFFCURVE",
"903 250 CURVE SMOOTH",
"903 485 OFFCURVE",
"720 666 OFFCURVE",
"484 666 CURVE SMOOTH",
"242 666 OFFCURVE",
"54 478 OFFCURVE",
"54 238 CURVE SMOOTH",
"54 -7 OFFCURVE",
"238 -190 OFFCURVE",
"484 -190 CURVE SMOOTH"
);
},
{
closed = 1;
nodes = (
"372 50 OFFCURVE",
"300 125 OFFCURVE",
"300 230 CURVE SMOOTH",
"300 335 OFFCURVE",
"372 411 OFFCURVE",
"471 411 CURVE SMOOTH",
"569 411 OFFCURVE",
"641 335 OFFCURVE",
"641 230 CURVE SMOOTH",
"641 126 OFFCURVE",
"570 50 OFFCURVE",
"471 50 CURVE SMOOTH"
);
}
);
width = 956;
}
);
note = at;
rightKerningGroup = space;
unicode = 0040;
},
{
glyphname = A;
layers = (
{
hints = (
{
horizontal = 1;
place = "{0, 21}";
target = up;
type = BottomGhost;
},
{
horizontal = 1;
place = "{249, 81}";
type = Stem;
},
{
horizontal = 1;
place = "{825, -20}";
target = down;
type = TopGhost;
},
{
place = "{-10, 736}";
type = Stem;
}
);
layerId = "46919C11-A143-4288-9F65-95BCCFE886E8";
paths = (
{
closed = 1;
nodes = (
"316 825 LINE",
"-10 0 LINE",
"89 0 LINE",
"183 249 LINE",
"533 249 LINE",
"627 0 LINE",
"726 0 LINE",
"400 825 LINE"
);
},
{
closed = 1;
nodes = (
"215 330 LINE",
"358 703 LINE",
"501 330 LINE"
);
}
);
width = 716;
}
);
leftKerningGroup = A;
note = A;
rightKerningGroup = space;
unicode = 0041;
},
{
glyphname = B;
layers = (
{
hints = (
{
horizontal = 1;
place = "{0, 74}";
type = Stem;
},
{
horizontal = 1;
place = "{380, 21}";
target = up;
type = BottomGhost;
},
{
horizontal = 1;
place = "{753, 72}";
type = Stem;
},
{
place = "{94, 92}";
type = Stem;
},
{
place = "{512, 95}";
type = Stem;
},
{
horizontal = 1;
place = "{380, 81}";
type = Stem;
},
{
place = "{446, 88}";
type = Stem;
}
);
layerId = "46919C11-A143-4288-9F65-95BCCFE886E8";
paths = (
{
closed = 1;
nodes = (
"94 825 LINE",
"94 0 LINE",
"347 0 LINE SMOOTH",
"512 0 OFFCURVE",
"607 86 OFFCURVE",
"607 221 CURVE SMOOTH",
"607 346 OFFCURVE",
"535 415 OFFCURVE",
"417 431 CURVE",
"494 464 OFFCURVE",
"534 529 OFFCURVE",
"534 616 CURVE SMOOTH",
"534 759 OFFCURVE",
"433 825 OFFCURVE",
"280 825 CURVE SMOOTH"
);
},
{
closed = 1;
nodes = (
"186 753 LINE",
"259 753 LINE SMOOTH",
"378 752 OFFCURVE",
"446 703 OFFCURVE",
"446 608 CURVE SMOOTH",
"446 509 OFFCURVE",
"378 461 OFFCURVE",
"259 461 CURVE SMOOTH",
"186 461 LINE"
);
},
{
closed = 1;
nodes = (
"186 380 LINE",
"320 380 LINE SMOOTH",
"442 380 OFFCURVE",
"512 326 OFFCURVE",
"512 224 CURVE SMOOTH",
"512 126 OFFCURVE",
"442 74 OFFCURVE",
"320 74 CURVE SMOOTH",
"186 74 LINE"
);
}
);
width = 651;
}
);
note = B;
rightKerningGroup = space;
unicode = 0042;
},
{
glyphname = C;
layers = (
{
hints = (
{
horizontal = 1;
place = "{-16, 91}";
type = Stem;
},
{
horizontal = 1;
place = "{749, 91}";
type = Stem;
},
{
place = "{54, 100}";
type = Stem;
}
);
layerId = "46919C11-A143-4288-9F65-95BCCFE886E8";
paths = (
{
closed = 1;
nodes = (
"54 173 OFFCURVE",
"245 -16 OFFCURVE",
"489 -16 CURVE SMOOTH",
"623 -16 OFFCURVE",
"714 34 OFFCURVE",
"757 68 CURVE",
"715 145 LINE",
"675 113 OFFCURVE",
"597 75 OFFCURVE",
"501 75 CURVE SMOOTH",
"285 75 OFFCURVE",
"154 233 OFFCURVE",
"154 412 CURVE SMOOTH",
"154 591 OFFCURVE",
"285 749 OFFCURVE",
"501 749 CURVE SMOOTH",
"597 749 OFFCURVE",
"675 711 OFFCURVE",
"715 679 CURVE",
"757 756 LINE",
"714 790 OFFCURVE",
"623 840 OFFCURVE",
"489 840 CURVE SMOOTH",
"245 840 OFFCURVE",
"54 651 OFFCURVE",
"54 412 CURVE SMOOTH"
);
}
);
width = 797;
}
);
leftKerningGroup = C;
note = C;
rightKerningGroup = C;
unicode = 0043;
},
{
glyphname = D;
layers = (
{
hints = (
{
horizontal = 1;
place = "{0, 82}";
type = Stem;
},
{
horizontal = 1;
place = "{743, 82}";
type = Stem;
},
{
place = "{94, 92}";
type = Stem;
},
{
place = "{606, 97}";
type = Stem;
}
);
layerId = "46919C11-A143-4288-9F65-95BCCFE886E8";
paths = (
{
closed = 1;
nodes = (
"94 825 LINE",
"94 0 LINE",
"287 0 LINE SMOOTH",
"514 0 OFFCURVE",
"703 172 OFFCURVE",
"703 413 CURVE SMOOTH",
"703 653 OFFCURVE",
"513 825 OFFCURVE",
"287 825 CURVE SMOOTH"
);
},
{
closed = 1;
nodes = (
"186 743 LINE",
"278 743 LINE SMOOTH",
"460 743 OFFCURVE",
"606 603 OFFCURVE",
"606 413 CURVE SMOOTH",
"605 222 OFFCURVE",
"460 82 OFFCURVE",
"278 82 CURVE SMOOTH",
"186 82 LINE"
);
}
);
width = 757;
}
);
note = D;
rightKerningGroup = space;
unicode = 0044;
},
{
glyphname = E;
layers = (
{
hints = (
{
horizontal = 1;
place = "{0, 81}";
type = Stem;
},
{
horizontal = 1;
place = "{373, 81}";
type = Stem;
},
{
horizontal = 1;
place = "{744, 81}";
type = Stem;
},
{
place = "{94, 92}";
type = Stem;
}
);
layerId = "46919C11-A143-4288-9F65-95BCCFE886E8";
paths = (
{
closed = 1;
nodes = (
"94 825 LINE",
"94 0 LINE",
"518 0 LINE",
"518 81 LINE",
"186 81 LINE",
"186 373 LINE",
"506 373 LINE",
"506 454 LINE",
"186 454 LINE",
"186 744 LINE",
"518 744 LINE",
"518 825 LINE"
);
}
);
width = 578;
}
);
note = E;
rightKerningGroup = E;
unicode = 0045;
},
{
glyphname = F;
layers = (
{
hints = (
{
horizontal = 1;
place = "{0, 21}";
target = up;
type = BottomGhost;
},
{
horizontal = 1;
place = "{373, 81}";
type = Stem;
},
{
horizontal = 1;
place = "{744, 81}";
type = Stem;
},
{
place = "{94, 92}";
type = Stem;
}
);
layerId = "46919C11-A143-4288-9F65-95BCCFE886E8";
paths = (
{
closed = 1;
nodes = (
"94 825 LINE",
"94 0 LINE",
"186 0 LINE",
"186 373 LINE",
"497 373 LINE",
"497 454 LINE",
"186 454 LINE",
"186 744 LINE",
"520 744 LINE",
"520 825 LINE"
);
}
);
width = 578;
}
);
note = F;
rightKerningGroup = space;
unicode = 0046;
},
{
glyphname = G;
layers = (
{
hints = (
{
horizontal = 1;
place = "{-16, 84}";
type = Stem;
},
{
horizontal = 1;
place = "{343, 74}";
type = Stem;
},
{
horizontal = 1;
place = "{757, 83}";
type = Stem;
},
{
place = "{54, 98}";
type = Stem;
},
{
place = "{743, 94}";
type = Stem;
}
);
layerId = "46919C11-A143-4288-9F65-95BCCFE886E8";
paths = (
{
closed = 1;
nodes = (
"54 175 OFFCURVE",
"234 -16 OFFCURVE",
"456 -16 CURVE SMOOTH",
"671 -16 OFFCURVE",
"837 128 OFFCURVE",
"837 337 CURVE SMOOTH",
"837 417 LINE",
"456 417 LINE",
"456 343 LINE",
"743 343 LINE",
"743 319 LINE SMOOTH",
"743 165 OFFCURVE",
"604 68 OFFCURVE",
"460 68 CURVE SMOOTH",
"290 68 OFFCURVE",
"152 222 OFFCURVE",
"152 411 CURVE SMOOTH",
"152 603 OFFCURVE",
"285 757 OFFCURVE",
"460 757 CURVE SMOOTH",
"570 757 OFFCURVE",
"655 712 OFFCURVE",
"714 633 CURVE",
"774 699 LINE",
"702 786 OFFCURVE",
"601 840 OFFCURVE",
"456 840 CURVE SMOOTH",
"224 840 OFFCURVE",
"54 649 OFFCURVE",
"54 411 CURVE SMOOTH"
);
}
);
width = 887;
}
);
note = G;
rightKerningGroup = space;
unicode = 0047;
},
{
glyphname = H;
layers = (
{
hints = (
{
horizontal = 1;
place = "{0, 21}";
target = up;
type = BottomGhost;
},
{
horizontal = 1;
place = "{373, 81}";
type = Stem;
},
{
horizontal = 1;
place = "{825, -20}";
target = down;
type = TopGhost;
},
{
place = "{94, 92}";
type = Stem;
},
{
place = "{610, 92}";
type = Stem;
}
);
layerId = "46919C11-A143-4288-9F65-95BCCFE886E8";
paths = (
{
closed = 1;
nodes = (
"94 825 LINE",
"94 0 LINE",
"186 0 LINE",
"186 373 LINE",
"610 373 LINE",
"610 0 LINE",
"702 0 LINE",
"702 825 LINE",
"610 825 LINE",
"610 454 LINE",
"186 454 LINE",
"186 825 LINE"
);
}
);
width = 796;
}
);
note = H;
rightKerningGroup = space;
unicode = 0048;
},
{
glyphname = I;
layers = (
{
hints = (
{
horizontal = 1;
place = "{0, 21}";
target = up;
type = BottomGhost;
},
{
horizontal = 1;
place = "{825, -20}";
target = down;
type = TopGhost;
},
{
place = "{94, 92}";
type = Stem;
}
);
layerId = "46919C11-A143-4288-9F65-95BCCFE886E8";
paths = (
{
closed = 1;
nodes = (
"94 825 LINE",
"94 0 LINE",
"186 0 LINE",
"186 825 LINE"
);
}
);
width = 280;
}
);
leftKerningGroup = I;
note = I;
rightKerningGroup = space;
unicode = 0049;
},
{
glyphname = J;
layers = (
{
hints = (
{
horizontal = 1;
place = "{-16, 88}";
type = Stem;
},
{
horizontal = 1;
place = "{825, -20}";
target = down;
type = TopGhost;
},
{
place = "{335, 92}";
type = Stem;
}
);
layerId = "46919C11-A143-4288-9F65-95BCCFE886E8";
paths = (
{
closed = 1;
nodes = (
"335 825 LINE",
"335 259 LINE SMOOTH",
"335 131 OFFCURVE",
"271 72 OFFCURVE",
"159 72 CURVE SMOOTH",
"78 72 OFFCURVE",
"8 145 OFFCURVE",
"8 145 CURVE",
"-23 63 LINE",
"-23 63 OFFCURVE",
"52 -16 OFFCURVE",
"170 -16 CURVE SMOOTH",
"335 -16 OFFCURVE",
"427 70 OFFCURVE",
"427 232 CURVE SMOOTH",
"427 825 LINE"
);
}
);
width = 511;
}
);
note = J;
rightKerningGroup = space;
unicode = 004A;
},
{
glyphname = K;
layers = (
{
hints = (
{
horizontal = 1;
place = "{0, 21}";
target = up;
type = BottomGhost;
},
{
horizontal = 1;
place = "{825, -20}";
target = down;
type = TopGhost;
},
{
place = "{94, 92}";
type = Stem;
}
);
layerId = "46919C11-A143-4288-9F65-95BCCFE886E8";
paths = (
{
closed = 1;
nodes = (
"94 825 LINE",
"94 0 LINE",
"186 0 LINE",
"186 320 LINE",
"225 362 LINE",
"573 0 LINE",
"700 0 LINE",
"288 429 LINE",
"658 825 LINE",
"547 825 LINE",
"186 440 LINE",
"186 825 LINE"
);
}
);
width = 690;
}
);
note = K;
rightKerningGroup = space;
unicode = 004B;
},
{
glyphname = L;
layers = (
{
hints = (
{
horizontal = 1;
place = "{0, 81}";
type = Stem;
},
{
horizontal = 1;
place = "{825, -20}";
target = down;
type = TopGhost;
},
{
place = "{94, 92}";
type = Stem;
}
);
layerId = "46919C11-A143-4288-9F65-95BCCFE886E8";
paths = (
{
closed = 1;
nodes = (
"94 825 LINE",
"94 0 LINE",
"522 0 LINE",
"522 81 LINE",
"186 81 LINE",
"186 825 LINE"
);
}
);
width = 555;
}
);
note = L;
rightKerningGroup = L;
unicode = 004C;
},
{
glyphname = M;
layers = (
{
hints = (
{
horizontal = 1;
place = "{0, 21}";
target = up;
type = BottomGhost;
},
{
horizontal = 1;
place = "{825, -20}";
target = down;
type = TopGhost;
},
{
place = "{40, 868}";
type = Stem;
}
);
layerId = "46919C11-A143-4288-9F65-95BCCFE886E8";
paths = (
{
closed = 1;
nodes = (
"142 825 LINE",
"40 0 LINE",
"132 0 LINE",
"216 656 LINE",
"442 42 LINE",
"506 42 LINE",
"732 656 LINE",
"816 0 LINE",
"908 0 LINE",
"806 825 LINE",
"708 825 LINE",
"474 204 LINE",
"240 825 LINE"
);
}
);
width = 948;
}
);
note = M;
rightKerningGroup = space;
unicode = 004D;
},
{
glyphname = M.1;
layers = (
{
hints = (
{
horizontal = 1;
place = "{0, 21}";
target = up;
type = BottomGhost;
},
{
horizontal = 1;
place = "{825, -20}";
target = down;
type = TopGhost;
},
{
place = "{94, 92}";
type = Stem;
},
{
place = "{730, 92}";
type = Stem;
}
);
layerId = "46919C11-A143-4288-9F65-95BCCFE886E8";
paths = (
{
closed = 1;
nodes = (
"94 825 LINE",
"94 0 LINE",
"186 0 LINE",
"186 622 LINE",
"427 42 LINE",
"489 42 LINE",
"730 622 LINE",
"730 0 LINE",
"822 0 LINE",
"822 825 LINE",
"718 825 LINE",
"458 204 LINE",
"198 825 LINE"
);
}
);
width = 916;
}
);
note = M.1;
},
{
glyphname = N;
layers = (
{
hints = (
{
horizontal = 1;
place = "{0, 21}";
target = up;
type = BottomGhost;
},
{
horizontal = 1;
place = "{825, -20}";
target = down;
type = TopGhost;
},
{
place = "{94, 92}";
type = Stem;
},
{
place = "{614, 92}";
type = Stem;
}
);
layerId = "46919C11-A143-4288-9F65-95BCCFE886E8";
paths = (
{
closed = 1;
nodes = (
"94 825 LINE",
"94 0 LINE",
"186 0 LINE",
"186 669 LINE",
"614 0 LINE",
"706 0 LINE",
"706 825 LINE",
"614 825 LINE",
"614 156 LINE",
"186 825 LINE"
);
}
);
width = 800;
}
);
note = N;
rightKerningGroup = space;
unicode = 004E;
},
{
glyphname = O;
layers = (
{
hints = (
{
horizontal = 1;
place = "{-16, 89}";
type = Stem;
},
{
horizontal = 1;
place = "{751, 89}";
type = Stem;
},
{
place = "{54, 99}";
type = Stem;
},
{
place = "{787, 99}";
type = Stem;
}
);
layerId = "46919C11-A143-4288-9F65-95BCCFE886E8";
paths = (
{
closed = 1;
nodes = (
"153 597 OFFCURVE",
"285 751 OFFCURVE",
"470 751 CURVE SMOOTH",
"655 751 OFFCURVE",
"787 597 OFFCURVE",
"787 412 CURVE SMOOTH",
"787 227 OFFCURVE",
"655 73 OFFCURVE",
"470 73 CURVE SMOOTH",
"285 73 OFFCURVE",
"153 227 OFFCURVE",
"153 412 CURVE SMOOTH"
);
},
{
closed = 1;
nodes = (
"54 175 OFFCURVE",
"233 -16 OFFCURVE",
"470 -16 CURVE SMOOTH",
"707 -16 OFFCURVE",
"886 175 OFFCURVE",
"886 412 CURVE SMOOTH",
"886 649 OFFCURVE",
"707 840 OFFCURVE",
"470 840 CURVE SMOOTH",
"233 840 OFFCURVE",
"54 649 OFFCURVE",
"54 412 CURVE SMOOTH"
);
}
);
width = 940;
}
);
leftKerningGroup = O;
note = O;
rightKerningGroup = O;
unicode = 004F;
},
{
glyphname = P;
layers = (
{
hints = (
{
horizontal = 1;
place = "{0, 21}";
target = up;
type = BottomGhost;
},
{
horizontal = 1;
place = "{343, 76}";
type = Stem;
},
{
horizontal = 1;
place = "{751, 74}";
type = Stem;
},
{
place = "{94, 92}";
type = Stem;
},
{
place = "{491, 95}";
type = Stem;
}
);
layerId = "46919C11-A143-4288-9F65-95BCCFE886E8";
paths = (
{
closed = 1;
nodes = (
"94 825 LINE",
"94 0 LINE",
"186 0 LINE",
"186 343 LINE",
"320 343 LINE SMOOTH",
"482 343 OFFCURVE",
"586 441 OFFCURVE",
"586 589 CURVE SMOOTH",
"586 738 OFFCURVE",
"482 825 OFFCURVE",
"320 825 CURVE SMOOTH"
);
},
{
closed = 1;
nodes = (
"186 751 LINE",
"296 751 LINE SMOOTH",
"413 751 OFFCURVE",
"491 693 OFFCURVE",
"491 587 CURVE SMOOTH",
"491 482 OFFCURVE",
"413 419 OFFCURVE",
"296 419 CURVE SMOOTH",
"186 419 LINE"
);
}
);
width = 640;
}
);
note = P;
rightKerningGroup = space;
unicode = 0050;
},
{
glyphname = Q;
layers = (
{
hints = (
{
horizontal = 1;
place = "{-16, 89}";
type = Stem;
},
{
horizontal = 1;
place = "{751, 89}";
type = Stem;
},
{
place = "{55, 99}";
type = Stem;
},
{
place = "{788, 99}";
type = Stem;
},
{
horizontal = 1;
place = "{-26, 21}";
target = up;
type = BottomGhost;
}
);
layerId = "46919C11-A143-4288-9F65-95BCCFE886E8";
paths = (
{
closed = 1;
nodes = (
"55 171 OFFCURVE",
"227 -15 OFFCURVE",
"471 -16 CURVE SMOOTH",
"563 -15 OFFCURVE",
"646 12 OFFCURVE",
"712 58 CURVE",
"764 23 OFFCURVE",
"819 -8 OFFCURVE",
"875 -26 CURVE",
"915 56 LINE",
"875 67 OFFCURVE",
"827 89 OFFCURVE",
"778 116 CURVE",
"847 192 OFFCURVE",
"887 295 OFFCURVE",
"887 412 CURVE SMOOTH",
"887 654 OFFCURVE",
"698 840 OFFCURVE",
"471 840 CURVE SMOOTH",
"244 840 OFFCURVE",
"55 654 OFFCURVE",
"55 412 CURVE SMOOTH"
);
},
{
closed = 1;
nodes = (
"154 597 OFFCURVE",
"287 751 OFFCURVE",
"471 751 CURVE SMOOTH",
"655 751 OFFCURVE",
"788 597 OFFCURVE",
"788 412 CURVE SMOOTH",
"788 315 OFFCURVE",
"755 226 OFFCURVE",
"696 164 CURVE",
"627 209 OFFCURVE",
"564 259 OFFCURVE",
"528 301 CURVE",
"488 252 LINE",
"521 218 OFFCURVE",
"573 166 OFFCURVE",
"635 116 CURVE",
"589 88 OFFCURVE",
"534 73 OFFCURVE",
"471 73 CURVE SMOOTH",
"273 73 OFFCURVE",
"154 227 OFFCURVE",
"154 412 CURVE SMOOTH"
);
}
);
width = 942;
}
);
note = Q;
rightKerningGroup = space;
unicode = 0051;
},
{
glyphname = Q.1;
layers = (
{
hints = (
{
horizontal = 1;
place = "{-139, 21}";
target = up;
type = BottomGhost;
},
{
horizontal = 1;
place = "{-60, 39}";
type = Stem;
},
{
horizontal = 1;
place = "{751, 89}";
type = Stem;
},
{
place = "{55, 99}";
type = Stem;
},
{
place = "{788, 99}";
type = Stem;
},
{
horizontal = 1;
place = "{-111, 90}";
type = Stem;
}
);
layerId = "46919C11-A143-4288-9F65-95BCCFE886E8";
paths = (
{
closed = 1;
nodes = (
"574 -60 OFFCURVE",
"603 -111 OFFCURVE",
"717 -111 CURVE SMOOTH",
"829 -111 OFFCURVE",
"871 -29 OFFCURVE",
"871 -29 CURVE",
"842 33 LINE",
"842 33 OFFCURVE",
"803 -21 OFFCURVE",
"718 -21 CURVE SMOOTH",
"671 -21 OFFCURVE",
"588 -1 OFFCURVE",
"590 0 CURVE",
"769 50 OFFCURVE",
"887 212 OFFCURVE",
"887 412 CURVE SMOOTH",
"887 654 OFFCURVE",
"698 840 OFFCURVE",
"471 840 CURVE SMOOTH",
"244 840 OFFCURVE",
"55 654 OFFCURVE",
"55 412 CURVE SMOOTH",
"55 200 OFFCURVE",
"188 30 OFFCURVE",
"386 -8 CURVE",
"309 -19 OFFCURVE",
"248 -106 OFFCURVE",
"248 -106 CURVE",
"270 -139 LINE",
"270 -139 OFFCURVE",
"329 -60 OFFCURVE",
"435 -60 CURVE SMOOTH"
);
},
{
closed = 1;
nodes = (
"154 597 OFFCURVE",
"287 751 OFFCURVE",
"471 751 CURVE SMOOTH",
"655 751 OFFCURVE",
"788 597 OFFCURVE",
"788 412 CURVE SMOOTH",
"788 227 OFFCURVE",
"669 72 OFFCURVE",
"471 72 CURVE SMOOTH",
"273 72 OFFCURVE",
"154 227 OFFCURVE",
"154 412 CURVE SMOOTH"
);
}
);
width = 942;
}
);
note = Q.1;
rightKerningGroup = space;
},
{
glyphname = R;
layers = (
{
hints = (
{
horizontal = 1;
place = "{0, 21}";
target = up;
type = BottomGhost;
},
{
horizontal = 1;
place = "{343, 76}";
type = Stem;
},
{
horizontal = 1;
place = "{751, 74}";
type = Stem;
},
{
place = "{94, 92}";
type = Stem;
},
{
place = "{491, 95}";
type = Stem;
}
);
layerId = "46919C11-A143-4288-9F65-95BCCFE886E8";
paths = (
{
closed = 1;
nodes = (
"94 825 LINE",
"94 0 LINE",
"186 0 LINE",
"186 343 LINE",
"267 343 LINE",
"528 0 LINE",
"645 0 LINE",
"371 350 LINE",
"505 366 OFFCURVE",
"586 459 OFFCURVE",
"586 589 CURVE SMOOTH",
"586 738 OFFCURVE",
"482 825 OFFCURVE",
"320 825 CURVE SMOOTH"
);
},
{
closed = 1;
nodes = (
"186 751 LINE",
"296 751 LINE SMOOTH",
"413 751 OFFCURVE",
"491 693 OFFCURVE",
"491 587 CURVE SMOOTH",
"491 482 OFFCURVE",
"413 419 OFFCURVE",
"296 419 CURVE SMOOTH",
"186 419 LINE"
);
}
);
width = 645;
}
);
note = R;
rightKerningGroup = R;
unicode = 0052;
},
{
glyphname = R.1;
layers = (
{
hints = (
{
horizontal = 1;
place = "{-15, 84}";
type = Stem;
},
{
horizontal = 1;
place = "{343, 76}";
type = Stem;
},
{
horizontal = 1;
place = "{751, 74}";
type = Stem;
},
{
place = "{94, 92}";
type = Stem;
},
{
place = "{491, 95}";
type = Stem;
}
);
layerId = "46919C11-A143-4288-9F65-95BCCFE886E8";
paths = (
{
closed = 1;
nodes = (
"94 825 LINE",
"94 0 LINE",
"186 0 LINE",
"186 343 LINE",
"267 343 LINE",
"497 40 LINE",
"497 40 OFFCURVE",
"533 -15 OFFCURVE",
"599 -15 CURVE SMOOTH",
"656 -15 OFFCURVE",
"684 15 OFFCURVE",
"684 15 CURVE",
"657 84 LINE",
"652 80 OFFCURVE",
"635 69 OFFCURVE",
"614 69 CURVE SMOOTH",
"592 69 OFFCURVE",
"573 89 OFFCURVE",
"562 102 CURVE SMOOTH",
"371 350 LINE",
"505 366 OFFCURVE",
"586 459 OFFCURVE",
"586 589 CURVE SMOOTH",
"586 738 OFFCURVE",
"482 825 OFFCURVE",
"320 825 CURVE SMOOTH"
);
},
{
closed = 1;
nodes = (
"186 751 LINE",
"296 751 LINE SMOOTH",
"413 751 OFFCURVE",
"491 693 OFFCURVE",
"491 587 CURVE SMOOTH",
"491 482 OFFCURVE",
"413 419 OFFCURVE",
"296 419 CURVE SMOOTH",
"186 419 LINE"
);
}
);
width = 684;
}
);
note = R.1;
rightKerningGroup = R;
},
{
glyphname = S;
layers = (
{
hints = (
{
horizontal = 1;
place = "{-16, 85}";
type = Stem;
},
{
horizontal = 1;
place = "{756, 84}";
type = Stem;
},
{
place = "{108, 83}";
type = Stem;
},
{
place = "{514, 88}";
type = Stem;
}
);
layerId = "46919C11-A143-4288-9F65-95BCCFE886E8";
paths = (
{
closed = 1;
nodes = (
"108 520 OFFCURVE",
"167 450 OFFCURVE",
"290 405 CURVE SMOOTH",
"425 356 OFFCURVE",
"514 307 OFFCURVE",
"514 219 CURVE SMOOTH",
"514 112 OFFCURVE",
"419 69 OFFCURVE",
"329 69 CURVE SMOOTH",
"250 69 OFFCURVE",
"172 114 OFFCURVE",
"137 182 CURVE",
"61 135 LINE",
"109 44 OFFCURVE",
"201 -16 OFFCURVE",
"335 -16 CURVE SMOOTH",
"486 -16 OFFCURVE",
"602 64 OFFCURVE",
"602 223 CURVE SMOOTH",
"602 359 OFFCURVE",
"485 424 OFFCURVE",
"343 475 CURVE SMOOTH",
"259 505 OFFCURVE",
"191 543 OFFCURVE",
"191 615 CURVE SMOOTH",
"191 686 OFFCURVE",
"248 756 OFFCURVE",
"348 756 CURVE SMOOTH",
"426 756 OFFCURVE",
"462 723 OFFCURVE",
"485 682 CURVE",
"555 726 LINE",
"524 775 OFFCURVE",
"465 840 OFFCURVE",
"342 840 CURVE SMOOTH",
"218 840 OFFCURVE",
"108 748 OFFCURVE",
"108 612 CURVE SMOOTH"
);
}
);
width = 653;
}
);
leftKerningGroup = dollar;
note = S;
rightKerningGroup = space;
unicode = 0053;
},
{
glyphname = T;
layers = (
{
hints = (
{
horizontal = 1;
place = "{0, 21}";
target = up;
type = BottomGhost;
},
{
horizontal = 1;
place = "{744, 81}";
type = Stem;
},
{
place = "{248, 92}";
type = Stem;
}
);
layerId = "46919C11-A143-4288-9F65-95BCCFE886E8";
paths = (
{
closed = 1;
nodes = (
"3 825 LINE",
"3 744 LINE",
"248 744 LINE",
"248 0 LINE",
"340 0 LINE",
"340 744 LINE",
"583 744 LINE",
"583 825 LINE"
);
}
);
width = 586;
}
);
leftKerningGroup = T;
note = T;
rightKerningGroup = T;
unicode = 0054;
},
{
glyphname = U;
layers = (
{
hints = (
{
horizontal = 1;
place = "{-16, 91}";
type = Stem;
},
{
horizontal = 1;
place = "{825, -20}";
target = down;
type = TopGhost;
},
{
place = "{84, 92}";
type = Stem;
},
{
place = "{574, 92}";
type = Stem;
}
);
layerId = "46919C11-A143-4288-9F65-95BCCFE886E8";
paths = (
{
closed = 1;
nodes = (
"574 825 LINE",
"574 317 LINE SMOOTH",
"574 150 OFFCURVE",
"508 75 OFFCURVE",
"375 75 CURVE SMOOTH",
"242 75 OFFCURVE",
"176 150 OFFCURVE",
"176 317 CURVE SMOOTH",
"176 825 LINE",
"84 825 LINE",
"84 295 LINE SMOOTH",
"84 90 OFFCURVE",
"186 -16 OFFCURVE",
"375 -16 CURVE SMOOTH",
"564 -16 OFFCURVE",
"666 90 OFFCURVE",
"666 295 CURVE SMOOTH",
"666 825 LINE"
);
}
);
width = 750;
}
);
note = U;
rightKerningGroup = space;
unicode = 0055;
},
{
glyphname = V;
layers = (
{
hints = (
{
horizontal = 1;
place = "{0, 21}";
target = up;
type = BottomGhost;
},
{
horizontal = 1;
place = "{825, -20}";
target = down;
type = TopGhost;
},
{
place = "{-10, 764}";
type = Stem;
}
);
layerId = "46919C11-A143-4288-9F65-95BCCFE886E8";
paths = (
{
closed = 1;
nodes = (
"-10 825 LINE",
"336 0 LINE",
"408 0 LINE",
"754 825 LINE",
"650 825 LINE",
"372 138 LINE",
"94 825 LINE"
);
}
);
width = 744;
}
);
leftKerningGroup = V;
note = V;
rightKerningGroup = V;
unicode = 0056;
},
{
glyphname = W;
layers = (
{
hints = (
{
horizontal = 1;
place = "{0, 21}";
target = up;
type = BottomGhost;
},
{
horizontal = 1;
place = "{825, -20}";
target = down;
type = TopGhost;
},
{
place = "{-10, 1126}";
type = Stem;
}
);
layerId = "46919C11-A143-4288-9F65-95BCCFE886E8";
paths = (
{
closed = 1;
nodes = (
"-10 825 LINE",
"233 0 LINE",
"336 0 LINE",
"553 645 LINE",
"770 0 LINE",
"873 0 LINE",
"1116 825 LINE",
"1015 825 LINE",
"818 122 LINE",
"588 825 LINE",
"518 825 LINE",
"288 122 LINE",
"91 825 LINE"
);
}
);
width = 1106;
}
);
leftKerningGroup = V;
note = W;
rightKerningGroup = V;
unicode = 0057;
},
{
glyphname = X;
layers = (
{
hints = (
{
horizontal = 1;
place = "{0, 21}";
target = up;
type = BottomGhost;
},
{
horizontal = 1;
place = "{825, -20}";
target = down;
type = TopGhost;
},
{
place = "{-10, 744}";
type = Stem;
}
);
layerId = "46919C11-A143-4288-9F65-95BCCFE886E8";
paths = (
{
closed = 1;
nodes = (
"40 825 LINE",
"305 445 LINE",
"-10 0 LINE",
"105 0 LINE",
"362 365 LINE",
"619 0 LINE",
"734 0 LINE",
"419 445 LINE",
"684 825 LINE",
"574 825 LINE",
"362 523 LINE",
"150 825 LINE"
);
}
);
width = 724;
}
);
note = X;
rightKerningGroup = space;
unicode = 0058;
},
{
glyphname = Y;
layers = (
{
hints = (
{
horizontal = 1;
place = "{0, 21}";
target = up;
type = BottomGhost;
},
{
horizontal = 1;
place = "{825, -20}";
target = down;
type = TopGhost;
},
{
place = "{-10, 664}";
type = Stem;
},
{
place = "{276, 92}";
type = Stem;
}
);
layerId = "46919C11-A143-4288-9F65-95BCCFE886E8";
paths = (
{
closed = 1;
nodes = (
"-10 825 LINE",
"276 359 LINE",
"276 0 LINE",
"368 0 LINE",
"368 359 LINE",
"654 825 LINE",
"543 825 LINE",
"322 456 LINE",
"101 825 LINE"
);
}
);
width = 644;
}
);
leftKerningGroup = Y;
note = Y;
rightKerningGroup = Y;
unicode = 0059;
},
{
glyphname = Z;
layers = (
{
hints = (
{
horizontal = 1;
place = "{0, 83}";
type = Stem;
},
{
horizontal = 1;
place = "{742, 83}";
type = Stem;
},
{
place = "{36, 686}";
type = Stem;
}
);
layerId = "46919C11-A143-4288-9F65-95BCCFE886E8";
paths = (
{
closed = 1;
nodes = (
"93 825 LINE",
"93 742 LINE",
"557 742 LINE",
"36 0 LINE",
"694 0 LINE",
"694 83 LINE",
"201 83 LINE",
"722 825 LINE"
);
}
);
width = 758;
}
);
note = Z;
rightKerningGroup = space;
unicode = 005A;
},
{
glyphname = bracketleft;
layers = (
{
hints = (
{
horizontal = 1;
place = "{-260, 64}";
type = Stem;
},
{
horizontal = 1;
place = "{796, 64}";
type = Stem;
},
{
place = "{94, 78}";
type = Stem;
}
);
layerId = "46919C11-A143-4288-9F65-95BCCFE886E8";
paths = (
{
closed = 1;
nodes = (
"94 860 LINE",
"94 -260 LINE",
"320 -260 LINE",
"320 -196 LINE",
"172 -196 LINE",
"172 796 LINE",
"320 796 LINE",
"320 860 LINE"
);
}
);
width = 333;
}
);
note = bracketleft;
rightKerningGroup = space;
unicode = 005B;
},
{
glyphname = backslash;
layers = (
{
hints = (
{
horizontal = 1;
place = "{0, 21}";
target = up;
type = BottomGhost;
},
{
horizontal = 1;
place = "{860, -20}";
target = down;
type = TopGhost;
},
{
place = "{9, 485}";
type = Stem;
}
);
layerId = "46919C11-A143-4288-9F65-95BCCFE886E8";
paths = (
{
closed = 1;
nodes = (
"9 860 LINE",
"421 0 LINE",
"494 0 LINE",
"82 860 LINE"
);
}
);
width = 504;
}
);
note = backslash;
rightKerningGroup = space;
unicode = 005C;
},
{
glyphname = bracketright;
layers = (
{
hints = (
{
horizontal = 1;
place = "{-260, 64}";
type = Stem;
},
{
horizontal = 1;
place = "{796, 64}";
type = Stem;
},
{
place = "{161, 78}";
type = Stem;
}
);
layerId = "46919C11-A143-4288-9F65-95BCCFE886E8";
paths = (
{
closed = 1;
nodes = (
"13 860 LINE",
"13 796 LINE",
"161 796 LINE",
"161 -196 LINE",
"13 -196 LINE",
"13 -260 LINE",
"239 -260 LINE",
"239 860 LINE"
);
}
);
width = 333;
}
);
note = bracketright;
rightKerningGroup = space;
unicode = 005D;
},
{
glyphname = asciicircum;
layers = (
{
hints = (
{
horizontal = 1;
place = "{605, 21}";
target = up;
type = BottomGhost;
},
{
horizontal = 1;
place = "{840, -20}";
target = down;
type = TopGhost;
},
{
place = "{-2, 460}";
type = Stem;
}
);
layerId = "46919C11-A143-4288-9F65-95BCCFE886E8";
paths = (
{
closed = 1;
nodes = (
"251 840 LINE",
"205 840 LINE",
"-2 605 LINE",
"77 605 LINE",
"228 779 LINE",
"379 605 LINE",
"458 605 LINE"
);
}
);
width = 455;
}
);
note = asciicircum;
rightKerningGroup = space;
unicode = 005E;
},
{
glyphname = underscore;
layers = (
{
hints = (
{
horizontal = 1;
place = "{-100, 46}";
type = Stem;
},
{
place = "{0, 513}";
type = Stem;
}
);
layerId = "46919C11-A143-4288-9F65-95BCCFE886E8";
paths = (
{
closed = 1;
nodes = (
"0 -54 LINE",
"0 -100 LINE",
"513 -100 LINE",
"513 -54 LINE"
);
}
);
width = 513;
}
);
note = underscore;
rightKerningGroup = space;
unicode = 005F;
},
{
glyphname = grave;
layers = (
{
hints = (
{
horizontal = 1;
place = "{675, 21}";
target = up;
type = BottomGhost;
},
{
horizontal = 1;
place = "{840, -20}";
target = down;
type = TopGhost;
},
{
place = "{54, 198}";
type = Stem;
}
);
layerId = "46919C11-A143-4288-9F65-95BCCFE886E8";
paths = (
{
closed = 1;
nodes = (
"54 775 LINE",
"221 675 LINE",
"252 719 LINE",
"103 840 LINE"
);
}
);
width = 305;
}
);
note = grave;
rightKerningGroup = space;
unicode = 0060;
},
{
glyphname = a;
layers = (
{
hints = (
{
horizontal = 1;
place = "{-16, 76}";
type = Stem;
},
{
horizontal = 1;
place = "{512, -20}";
target = down;
type = TopGhost;
},
{
place = "{54, 92}";
type = Stem;
},
{
place = "{515, 88}";
type = Stem;
},
{
horizontal = 1;
place = "{0, 21}";
target = up;
type = BottomGhost;
},
{
horizontal = 1;
place = "{452, 76}";
type = Stem;
}
);
layerId = "46919C11-A143-4288-9F65-95BCCFE886E8";
paths = (
{
closed = 1;
nodes = (
"54 100 OFFCURVE",
"163 -16 OFFCURVE",
"310 -16 CURVE SMOOTH",
"400 -16 OFFCURVE",
"474 30 OFFCURVE",
"515 101 CURVE",
"515 0 LINE",
"603 0 LINE",
"603 512 LINE",
"515 512 LINE",
"515 414 LINE",
"474 484 OFFCURVE",
"400 528 OFFCURVE",
"310 528 CURVE SMOOTH",
"163 528 OFFCURVE",
"54 412 OFFCURVE",
"54 256 CURVE SMOOTH"
);
},
{
closed = 1;
nodes = (
"146 371 OFFCURVE",
"226 452 OFFCURVE",
"332 452 CURVE SMOOTH",
"439 452 OFFCURVE",
"518 371 OFFCURVE",
"518 256 CURVE SMOOTH",
"518 142 OFFCURVE",
"440 60 OFFCURVE",
"332 60 CURVE SMOOTH",
"224 60 OFFCURVE",
"146 142 OFFCURVE",
"146 256 CURVE SMOOTH"
);
}
);
width = 693;
}
);
leftKerningGroup = a;
note = a;
rightKerningGroup = a;
unicode = 0061;
},
{
glyphname = a.1;
layers = (
{
hints = (
{
horizontal = 1;
place = "{-16, 58}";
type = Stem;
},
{
horizontal = 1;
place = "{257, 54}";
type = Stem;
},
{
horizontal = 1;
place = "{457, 71}";
type = Stem;
},
{
place = "{82, 86}";
type = Stem;
},
{
place = "{446, 88}";
type = Stem;
}
);
layerId = "46919C11-A143-4288-9F65-95BCCFE886E8";
paths = (
{
closed = 1;
nodes = (
"82 48 OFFCURVE",
"169 -16 OFFCURVE",
"281 -16 CURVE SMOOTH",
"353 -16 OFFCURVE",
"411 9 OFFCURVE",
"446 46 CURVE",
"446 0 LINE",
"534 0 LINE",
"534 310 LINE SMOOTH",
"534 452 OFFCURVE",
"432 528 OFFCURVE",
"294 528 CURVE SMOOTH",
"206 528 OFFCURVE",
"140 492 OFFCURVE",
"114 459 CURVE",
"149 401 LINE",
"169 424 OFFCURVE",
"218 457 OFFCURVE",
"294 457 CURVE SMOOTH",
"384 457 OFFCURVE",
"446 402 OFFCURVE",
"446 306 CURVE SMOOTH",
"446 248 LINE",
"416 283 OFFCURVE",
"358 311 OFFCURVE",
"278 311 CURVE SMOOTH",
"163 311 OFFCURVE",
"82 241 OFFCURVE",
"82 144 CURVE SMOOTH"
);
},
{
closed = 1;
nodes = (
"168 216 OFFCURVE",
"232 257 OFFCURVE",
"309 257 CURVE SMOOTH",
"387 257 OFFCURVE",
"450 214 OFFCURVE",
"450 151 CURVE SMOOTH",
"450 88 OFFCURVE",
"387 42 OFFCURVE",
"309 42 CURVE SMOOTH",
"232 42 OFFCURVE",
"168 86 OFFCURVE",
"168 151 CURVE SMOOTH"
);
}
);
width = 624;
}
);
note = a.1;
},
{
glyphname = b;
layers = (
{
hints = (
{
horizontal = 1;
place = "{0, 21}";
target = up;
type = BottomGhost;
},
{
horizontal = 1;
place = "{452, 76}";
type = Stem;
},
{
horizontal = 1;
place = "{860, -20}";
target = down;
type = TopGhost;
},
{
place = "{90, 88}";
type = Stem;
},
{
place = "{547, 92}";
type = Stem;
},
{
horizontal = 1;
place = "{-16, 76}";
type = Stem;
}
);
layerId = "46919C11-A143-4288-9F65-95BCCFE886E8";
paths = (
{
closed = 1;
nodes = (
"90 0 LINE",
"178 0 LINE",
"178 101 LINE",
"219 30 OFFCURVE",
"293 -16 OFFCURVE",
"383 -16 CURVE SMOOTH",
"530 -16 OFFCURVE",
"639 100 OFFCURVE",
"639 256 CURVE SMOOTH",
"639 412 OFFCURVE",
"530 528 OFFCURVE",
"383 528 CURVE SMOOTH",
"293 528 OFFCURVE",
"219 484 OFFCURVE",
"178 414 CURVE",
"178 860 LINE",
"90 860 LINE"
);
},
{
closed = 1;
nodes = (
"547 142 OFFCURVE",
"469 60 OFFCURVE",
"361 60 CURVE SMOOTH",
"253 60 OFFCURVE",
"175 142 OFFCURVE",
"175 256 CURVE SMOOTH",
"175 371 OFFCURVE",
"254 452 OFFCURVE",
"361 452 CURVE SMOOTH",
"467 452 OFFCURVE",
"547 371 OFFCURVE",
"547 256 CURVE SMOOTH"
);
}
);
width = 693;
}
);
note = b;
rightKerningGroup = b;
unicode = 0062;
},
{
glyphname = c;
layers = (
{
hints = (
{
horizontal = 1;
place = "{-16, 84}";
type = Stem;
},
{
horizontal = 1;
place = "{444, 84}";
type = Stem;
},
{
place = "{51, 90}";
type = Stem;
}
);
layerId = "46919C11-A143-4288-9F65-95BCCFE886E8";
paths = (
{
closed = 1;
nodes = (
"51 101 OFFCURVE",
"176 -16 OFFCURVE",
"328 -16 CURVE SMOOTH",
"420 -16 OFFCURVE",
"469 6 OFFCURVE",
"503 38 CURVE",
"461 104 LINE",
"443 83 OFFCURVE",
"396 68 OFFCURVE",
"338 68 CURVE SMOOTH",
"226 68 OFFCURVE",
"141 142 OFFCURVE",
"141 256 CURVE SMOOTH",
"141 370 OFFCURVE",
"226 444 OFFCURVE",
"338 444 CURVE SMOOTH",
"396 444 OFFCURVE",
"443 429 OFFCURVE",
"462 408 CURVE",
"503 473 LINE",
"470 506 OFFCURVE",
"420 528 OFFCURVE",
"328 528 CURVE SMOOTH",
"176 528 OFFCURVE",
"51 412 OFFCURVE",
"51 256 CURVE SMOOTH"
);
}
);
width = 553;
}
);
leftKerningGroup = c;
note = c;
rightKerningGroup = c;
unicode = 0063;
},
{
glyphname = d;
layers = (
{
hints = (
{
horizontal = 1;
place = "{-16, 76}";
type = Stem;
},
{
horizontal = 1;
place = "{452, 76}";
type = Stem;
},
{
horizontal = 1;
place = "{860, -20}";
target = down;
type = TopGhost;
},
{
place = "{54, 92}";
type = Stem;
},
{
place = "{515, 88}";
type = Stem;
},
{
horizontal = 1;
place = "{0, 21}";
target = up;
type = BottomGhost;
}
);
layerId = "46919C11-A143-4288-9F65-95BCCFE886E8";
paths = (
{
closed = 1;
nodes = (
"54 100 OFFCURVE",
"163 -16 OFFCURVE",
"310 -16 CURVE SMOOTH",
"400 -16 OFFCURVE",
"474 30 OFFCURVE",
"515 101 CURVE",
"515 0 LINE",
"603 0 LINE",
"603 860 LINE",
"515 860 LINE",
"515 414 LINE",
"474 484 OFFCURVE",
"400 528 OFFCURVE",
"310 528 CURVE SMOOTH",
"163 528 OFFCURVE",
"54 412 OFFCURVE",
"54 256 CURVE SMOOTH"
);
},
{
closed = 1;
nodes = (
"146 371 OFFCURVE",
"226 452 OFFCURVE",
"332 452 CURVE SMOOTH",
"439 452 OFFCURVE",
"518 371 OFFCURVE",
"518 256 CURVE SMOOTH",
"518 142 OFFCURVE",
"440 60 OFFCURVE",
"332 60 CURVE SMOOTH",
"224 60 OFFCURVE",
"146 142 OFFCURVE",
"146 256 CURVE SMOOTH"
);
}
);
width = 693;
}
);
leftKerningGroup = d;
note = d;
rightKerningGroup = space;
unicode = 0064;
},
{
glyphname = e;
layers = (
{
hints = (
{
horizontal = 1;
place = "{-16, 72}";
type = Stem;
},
{
horizontal = 1;
place = "{246, 55}";
type = Stem;
},
{
horizontal = 1;
place = "{456, 72}";
type = Stem;
},
{
place = "{51, 89}";
type = Stem;
},
{
place = "{503, 86}";
type = Stem;
}
);
layerId = "46919C11-A143-4288-9F65-95BCCFE886E8";
paths = (
{
closed = 1;
nodes = (
"51 101 OFFCURVE",
"173 -16 OFFCURVE",
"327 -16 CURVE SMOOTH",
"433 -16 OFFCURVE",
"521 26 OFFCURVE",
"573 111 CURVE",
"508 145 LINE",
"466 86 OFFCURVE",
"410 56 OFFCURVE",
"332 56 CURVE SMOOTH",
"229 56 OFFCURVE",
"140 129 OFFCURVE",
"140 246 CURVE",
"589 246 LINE",
"589 256 LINE SMOOTH",
"589 418 OFFCURVE",
"471 528 OFFCURVE",
"321 528 CURVE SMOOTH",
"172 528 OFFCURVE",
"51 407 OFFCURVE",
"51 256 CURVE SMOOTH"
);
},
{
closed = 1;
nodes = (
"142 301 LINE",
"151 394 OFFCURVE",
"225 456 OFFCURVE",
"323 456 CURVE SMOOTH",
"417 456 OFFCURVE",
"493 397 OFFCURVE",
"503 301 CURVE"
);
}
);
width = 640;
}
);
leftKerningGroup = c;
note = e;
rightKerningGroup = c;
unicode = 0065;
},
{
glyphname = f;
layers = (
{
hints = (
{
horizontal = 1;
place = "{0, 21}";
target = up;
type = BottomGhost;
},
{
horizontal = 1;
place = "{445, 67}";
type = Stem;
},
{
horizontal = 1;
place = "{798, 77}";
type = Stem;
},
{
place = "{102, 88}";
type = Stem;
}
);
layerId = "46919C11-A143-4288-9F65-95BCCFE886E8";
paths = (
{
closed = 1;
nodes = (
"48 512 LINE",
"48 445 LINE",
"102 445 LINE",
"102 0 LINE",
"190 0 LINE",
"190 445 LINE",
"319 445 LINE",
"319 512 LINE",
"190 512 LINE",
"190 686 LINE SMOOTH",
"190 766 OFFCURVE",
"214 798 OFFCURVE",
"266 798 CURVE SMOOTH",
"295 798 OFFCURVE",
"317 787 OFFCURVE",
"325 780 CURVE",
"356 843 LINE",
"348 849 OFFCURVE",
"312 875 OFFCURVE",
"253 875 CURVE SMOOTH",
"161 875 OFFCURVE",
"102 811 OFFCURVE",
"102 685 CURVE SMOOTH",
"102 512 LINE"
);
}
);
width = 316;
}
);
note = f;
rightKerningGroup = space;
unicode = 0066;
},
{
glyphname = g;
layers = (
{
hints = (
{
horizontal = 1;
place = "{-275, 75}";
type = Stem;
},
{
horizontal = 1;
place = "{-16, 76}";
type = Stem;
},
{
horizontal = 1;
place = "{512, -20}";
target = down;
type = TopGhost;
},
{
place = "{54, 92}";
type = Stem;
},
{
place = "{515, 88}";
type = Stem;
},
{
horizontal = 1;
place = "{452, 76}";
type = Stem;
}
);
layerId = "46919C11-A143-4288-9F65-95BCCFE886E8";
paths = (
{
closed = 1;
nodes = (
"54 100 OFFCURVE",
"163 -16 OFFCURVE",
"310 -16 CURVE SMOOTH",
"400 -16 OFFCURVE",
"474 30 OFFCURVE",
"515 101 CURVE",
"515 -14 LINE SMOOTH",
"515 -128 OFFCURVE",
"435 -200 OFFCURVE",
"323 -200 CURVE SMOOTH",
"225 -200 OFFCURVE",
"157 -151 OFFCURVE",
"130 -92 CURVE",
"57 -126 LINE",
"101 -226 OFFCURVE",
"197 -275 OFFCURVE",
"323 -275 CURVE SMOOTH",
"498 -275 OFFCURVE",
"603 -181 OFFCURVE",
"603 -14 CURVE SMOOTH",
"603 512 LINE",
"515 512 LINE",
"515 414 LINE",
"474 484 OFFCURVE",
"400 528 OFFCURVE",
"310 528 CURVE SMOOTH",
"163 528 OFFCURVE",
"54 412 OFFCURVE",
"54 256 CURVE SMOOTH"
);
},
{
closed = 1;
nodes = (
"146 371 OFFCURVE",
"226 452 OFFCURVE",
"332 452 CURVE SMOOTH",
"439 452 OFFCURVE",
"518 371 OFFCURVE",
"518 256 CURVE SMOOTH",
"518 142 OFFCURVE",
"440 60 OFFCURVE",
"332 60 CURVE SMOOTH",
"224 60 OFFCURVE",
"146 142 OFFCURVE",
"146 256 CURVE SMOOTH"
);
}
);
width = 693;
}
);
leftKerningGroup = g;
note = g;
rightKerningGroup = g;
unicode = 0067;
},
{
glyphname = h;
layers = (
{
hints = (
{
horizontal = 1;
place = "{0, 21}";
target = up;
type = BottomGhost;
},
{
horizontal = 1;
place = "{458, 70}";
type = Stem;
},
{
horizontal = 1;
place = "{860, -20}";
target = down;
type = TopGhost;
},
{
place = "{90, 88}";
type = Stem;
},
{
place = "{456, 88}";
type = Stem;
}
);
layerId = "46919C11-A143-4288-9F65-95BCCFE886E8";
paths = (
{
closed = 1;
nodes = (
"90 860 LINE",
"90 0 LINE",
"178 0 LINE",
"178 327 LINE SMOOTH",
"178 391 OFFCURVE",
"235 458 OFFCURVE",
"319 458 CURVE SMOOTH",
"411 458 OFFCURVE",
"456 396 OFFCURVE",
"456 303 CURVE SMOOTH",
"456 0 LINE",
"544 0 LINE",
"544 327 LINE SMOOTH",
"544 456 OFFCURVE",
"461 528 OFFCURVE",
"336 528 CURVE SMOOTH",
"280 528 OFFCURVE",
"211 500 OFFCURVE",
"178 445 CURVE",
"178 860 LINE"
);
}
);
width = 626;
}
);
note = h;
rightKerningGroup = b;
unicode = 0068;
},
{
glyphname = i;
layers = (
{
hints = (
{
horizontal = 1;
place = "{0, 21}";
target = up;
type = BottomGhost;
},
{
horizontal = 1;
place = "{512, 0}";
type = Stem;
},
{
horizontal = 1;
place = "{611, 122}";
type = Stem;
},
{
place = "{90, 88}";
type = Stem;
},
{
place = "{73, 122}";
type = Stem;
}
);
layerId = "46919C11-A143-4288-9F65-95BCCFE886E8";
paths = (
{
closed = 1;
nodes = (
"90 512 LINE",
"90 0 LINE",
"178 0 LINE",
"178 512 LINE"
);
},
{
closed = 1;
nodes = (
"100 733 OFFCURVE",
"73 706 OFFCURVE",
"73 672 CURVE SMOOTH",
"73 638 OFFCURVE",
"100 611 OFFCURVE",
"134 611 CURVE SMOOTH",
"168 611 OFFCURVE",
"195 638 OFFCURVE",
"195 672 CURVE SMOOTH",
"195 706 OFFCURVE",
"168 733 OFFCURVE",
"134 733 CURVE SMOOTH"
);
}
);
width = 268;
}
);
leftKerningGroup = I;
note = i;
rightKerningGroup = space;
unicode = 0069;
},
{
glyphname = j;
layers = (
{
hints = (
{
horizontal = 1;
place = "{-275, 78}";
type = Stem;
},
{
horizontal = 1;
place = "{512, -20}";
target = down;
type = TopGhost;
},
{
horizontal = 1;
place = "{611, 122}";
type = Stem;
},
{
place = "{90, 88}";
type = Stem;
},
{
place = "{73, 122}";
type = Stem;
}
);
layerId = "46919C11-A143-4288-9F65-95BCCFE886E8";
paths = (
{
closed = 1;
nodes = (
"90 512 LINE",
"90 -97 LINE SMOOTH",
"90 -166 OFFCURVE",
"62 -197 OFFCURVE",
"16 -197 CURVE SMOOTH",
"-11 -197 OFFCURVE",
"-33 -186 OFFCURVE",
"-41 -178 CURVE",
"-68 -248 LINE",
"-49 -260 OFFCURVE",
"-23 -275 OFFCURVE",
"34 -275 CURVE SMOOTH",
"131 -275 OFFCURVE",
"178 -210 OFFCURVE",
"178 -108 CURVE SMOOTH",
"178 512 LINE"
);
},
{
closed = 1;
nodes = (
"100 733 OFFCURVE",
"73 706 OFFCURVE",
"73 672 CURVE SMOOTH",
"73 638 OFFCURVE",
"100 611 OFFCURVE",
"134 611 CURVE SMOOTH",
"168 611 OFFCURVE",
"195 638 OFFCURVE",
"195 672 CURVE SMOOTH",
"195 706 OFFCURVE",
"168 733 OFFCURVE",
"134 733 CURVE SMOOTH"
);
}
);
width = 268;
}
);
note = j;
rightKerningGroup = space;
unicode = 006A;
},
{
glyphname = j.1;
layers = (
{
hints = (
{
horizontal = 1;
place = "{-260, 21}";
target = up;
type = BottomGhost;
},
{
horizontal = 1;
place = "{512, 0}";
type = Stem;
},
{
horizontal = 1;
place = "{611, 122}";
type = Stem;
},
{
place = "{90, 88}";
type = Stem;
},
{
place = "{73, 122}";
type = Stem;
}
);
layerId = "46919C11-A143-4288-9F65-95BCCFE886E8";
paths = (
{
closed = 1;
nodes = (
"90 512 LINE",
"90 -260 LINE",
"178 -260 LINE",
"178 512 LINE"
);
},
{
closed = 1;
nodes = (
"100 733 OFFCURVE",
"73 706 OFFCURVE",
"73 672 CURVE SMOOTH",
"73 638 OFFCURVE",
"100 611 OFFCURVE",
"134 611 CURVE SMOOTH",
"168 611 OFFCURVE",
"195 638 OFFCURVE",
"195 672 CURVE SMOOTH",
"195 706 OFFCURVE",
"168 733 OFFCURVE",
"134 733 CURVE SMOOTH"
);
}
);
width = 268;
}
);
note = j.1;
},
{
glyphname = k;
layers = (
{
hints = (
{
horizontal = 1;
place = "{0, 21}";
target = up;
type = BottomGhost;
},
{
horizontal = 1;
place = "{860, -20}";
target = down;
type = TopGhost;
},
{
place = "{90, 88}";
type = Stem;
}
);
layerId = "46919C11-A143-4288-9F65-95BCCFE886E8";
paths = (
{
closed = 1;
nodes = (
"90 860 LINE",
"90 0 LINE",
"178 0 LINE",
"178 193 LINE",
"224 243 LINE",
"422 0 LINE",
"533 0 LINE",
"280 305 LINE",
"468 512 LINE",
"355 512 LINE",
"178 313 LINE",
"178 860 LINE"
);
}
);
width = 512;
}
);
note = k;
rightKerningGroup = space;
unicode = 006B;
},
{
glyphname = l;
layers = (
{
hints = (
{
horizontal = 1;
place = "{0, 21}";
target = up;
type = BottomGhost;
},
{
horizontal = 1;
place = "{860, -20}";
target = down;
type = TopGhost;
},
{
place = "{90, 88}";
type = Stem;
}
);
layerId = "46919C11-A143-4288-9F65-95BCCFE886E8";
paths = (
{
closed = 1;
nodes = (
"90 860 LINE",
"90 0 LINE",
"178 0 LINE",
"178 860 LINE"
);
}
);
width = 268;
}
);
leftKerningGroup = I;
note = l;
rightKerningGroup = space;
unicode = 006C;
},
{
glyphname = m;
layers = (
{
hints = (
{
horizontal = 1;
place = "{0, 21}";
target = up;
type = BottomGhost;
},
{
horizontal = 1;
place = "{512, -20}";
target = down;
type = TopGhost;
},
{
horizontal = 1;
place = "{456, 72}";
type = Stem;
}
);
layerId = "46919C11-A143-4288-9F65-95BCCFE886E8";
paths = (
{
closed = 1;
nodes = (
"90 512 LINE",
"90 0 LINE",
"178 0 LINE",
"178 340 LINE SMOOTH",
"178 385 OFFCURVE",
"229 456 OFFCURVE",
"310 456 CURVE SMOOTH",
"403 456 OFFCURVE",
"447 394 OFFCURVE",
"447 303 CURVE SMOOTH",
"447 0 LINE",
"534 0 LINE",
"534 343 LINE SMOOTH",
"534 386 OFFCURVE",
"587 456 OFFCURVE",
"666 456 CURVE SMOOTH",
"759 456 OFFCURVE",
"803 394 OFFCURVE",
"803 303 CURVE SMOOTH",
"803 0 LINE",
"891 0 LINE",
"891 327 LINE SMOOTH",
"891 456 OFFCURVE",
"818 528 OFFCURVE",
"693 528 CURVE SMOOTH",
"621 528 OFFCURVE",
"557 484 OFFCURVE",
"518 422 CURVE",
"489 491 OFFCURVE",
"426 528 OFFCURVE",
"337 528 CURVE SMOOTH",
"280 528 OFFCURVE",
"215 498 OFFCURVE",
"178 445 CURVE",
"178 512 LINE"
);
}
);
width = 973;
}
);
leftKerningGroup = m;
note = m;
rightKerningGroup = b;
unicode = 006D;
},
{
glyphname = n;
layers = (
{
hints = (
{
horizontal = 1;
place = "{0, 21}";
target = up;
type = BottomGhost;
},
{
horizontal = 1;
place = "{512, -20}";
target = down;
type = TopGhost;
},
{
place = "{90, 88}";
type = Stem;
},
{
place = "{456, 88}";
type = Stem;
},
{
horizontal = 1;
place = "{458, 70}";
type = Stem;
}
);
layerId = "46919C11-A143-4288-9F65-95BCCFE886E8";
paths = (
{
closed = 1;
nodes = (
"90 512 LINE",
"90 0 LINE",
"178 0 LINE",
"178 327 LINE SMOOTH",
"178 391 OFFCURVE",
"235 458 OFFCURVE",
"319 458 CURVE SMOOTH",
"411 458 OFFCURVE",
"456 396 OFFCURVE",
"456 303 CURVE SMOOTH",
"456 0 LINE",
"544 0 LINE",
"544 327 LINE SMOOTH",
"544 456 OFFCURVE",
"461 528 OFFCURVE",
"336 528 CURVE SMOOTH",
"280 528 OFFCURVE",
"211 500 OFFCURVE",
"178 445 CURVE",
"178 512 LINE"
);
}
);
width = 626;
}
);
leftKerningGroup = m;
note = n;
rightKerningGroup = b;
unicode = 006E;
},
{
glyphname = o;
layers = (
{
hints = (
{
horizontal = 1;
place = "{-16, 76}";
type = Stem;
},
{
horizontal = 1;
place = "{452, 76}";
type = Stem;
},
{
place = "{51, 90}";
type = Stem;
},
{
place = "{533, 90}";
type = Stem;
}
);
layerId = "46919C11-A143-4288-9F65-95BCCFE886E8";
paths = (
{
closed = 1;
nodes = (
"141 370 OFFCURVE",
"223 452 OFFCURVE",
"337 452 CURVE SMOOTH",
"451 452 OFFCURVE",
"533 370 OFFCURVE",
"533 256 CURVE SMOOTH",
"533 142 OFFCURVE",
"451 60 OFFCURVE",
"337 60 CURVE SMOOTH",
"223 60 OFFCURVE",
"141 142 OFFCURVE",
"141 256 CURVE SMOOTH"
);
},
{
closed = 1;
nodes = (
"51 94 OFFCURVE",
"175 -16 OFFCURVE",
"337 -16 CURVE SMOOTH",
"499 -16 OFFCURVE",
"623 94 OFFCURVE",
"623 256 CURVE SMOOTH",
"623 418 OFFCURVE",
"499 528 OFFCURVE",
"337 528 CURVE SMOOTH",
"175 528 OFFCURVE",
"51 418 OFFCURVE",
"51 256 CURVE SMOOTH"
);
}
);
width = 675;
}
);
leftKerningGroup = c;
note = o;
rightKerningGroup = c;
unicode = 006F;
},
{
glyphname = p;
layers = (
{
hints = (
{
horizontal = 1;
place = "{-260, 21}";
target = up;
type = BottomGhost;
},
{
horizontal = 1;
place = "{-16, 76}";
type = Stem;
},
{
horizontal = 1;
place = "{512, -20}";
target = down;
type = TopGhost;
},
{
place = "{90, 88}";
type = Stem;
},
{
place = "{547, 92}";
type = Stem;
},
{
horizontal = 1;
place = "{452, 76}";
type = Stem;
}
);
layerId = "46919C11-A143-4288-9F65-95BCCFE886E8";
paths = (
{
closed = 1;
nodes = (
"90 512 LINE",
"90 -260 LINE",
"178 -260 LINE",
"178 101 LINE",
"219 30 OFFCURVE",
"293 -16 OFFCURVE",
"383 -16 CURVE SMOOTH",
"530 -16 OFFCURVE",
"639 100 OFFCURVE",
"639 256 CURVE SMOOTH",
"639 412 OFFCURVE",
"530 528 OFFCURVE",
"383 528 CURVE SMOOTH",
"293 528 OFFCURVE",
"219 484 OFFCURVE",
"178 414 CURVE",
"178 512 LINE"
);
},
{
closed = 1;
nodes = (
"175 371 OFFCURVE",
"254 452 OFFCURVE",
"361 452 CURVE SMOOTH",
"467 452 OFFCURVE",
"547 371 OFFCURVE",
"547 256 CURVE SMOOTH",
"547 142 OFFCURVE",
"469 60 OFFCURVE",
"361 60 CURVE SMOOTH",
"253 60 OFFCURVE",
"175 142 OFFCURVE",
"175 256 CURVE SMOOTH"
);
}
);
width = 693;
}
);
leftKerningGroup = m;
note = p;
rightKerningGroup = b;
unicode = 0070;
},
{
glyphname = q;
layers = (
{
hints = (
{
horizontal = 1;
place = "{-260, 21}";
target = up;
type = BottomGhost;
},
{
horizontal = 1;
place = "{-16, 76}";
type = Stem;
},
{
horizontal = 1;
place = "{512, -20}";
target = down;
type = TopGhost;
},
{
place = "{54, 92}";
type = Stem;
},
{
place = "{515, 88}";
type = Stem;
},
{
horizontal = 1;
place = "{452, 76}";
type = Stem;
}
);
layerId = "46919C11-A143-4288-9F65-95BCCFE886E8";
paths = (
{
closed = 1;
nodes = (
"54 100 OFFCURVE",
"163 -16 OFFCURVE",
"310 -16 CURVE SMOOTH",
"400 -16 OFFCURVE",
"474 30 OFFCURVE",
"515 101 CURVE",
"515 -260 LINE",
"603 -260 LINE",
"603 512 LINE",
"515 512 LINE",
"515 414 LINE",
"474 484 OFFCURVE",
"400 528 OFFCURVE",
"310 528 CURVE SMOOTH",
"163 528 OFFCURVE",
"54 412 OFFCURVE",
"54 256 CURVE SMOOTH"
);
},
{
closed = 1;
nodes = (
"146 371 OFFCURVE",
"226 452 OFFCURVE",
"332 452 CURVE SMOOTH",
"439 452 OFFCURVE",
"518 371 OFFCURVE",
"518 256 CURVE SMOOTH",
"518 142 OFFCURVE",
"440 60 OFFCURVE",
"332 60 CURVE SMOOTH",
"224 60 OFFCURVE",
"146 142 OFFCURVE",
"146 256 CURVE SMOOTH"
);
}
);
width = 693;
}
);
leftKerningGroup = d;
note = q;
rightKerningGroup = space;
unicode = 0071;
},
{
glyphname = r;
layers = (
{
hints = (
{
horizontal = 1;
place = "{0, 21}";
target = up;
type = BottomGhost;
},
{
horizontal = 1;
place = "{512, -20}";
target = down;
type = TopGhost;
},
{
place = "{90, 88}";
type = Stem;
},
{
horizontal = 1;
place = "{451, 77}";
type = Stem;
}
);
layerId = "46919C11-A143-4288-9F65-95BCCFE886E8";
paths = (
{
closed = 1;
nodes = (
"90 512 LINE",
"90 0 LINE",
"178 0 LINE",
"178 328 LINE SMOOTH",
"178 362 OFFCURVE",
"213 451 OFFCURVE",
"307 451 CURVE SMOOTH",
"347 451 OFFCURVE",
"374 438 OFFCURVE",
"385 434 CURVE",
"422 508 LINE",
"408 513 OFFCURVE",
"374 528 OFFCURVE",
"329 528 CURVE SMOOTH",
"254 528 OFFCURVE",
"198 478 OFFCURVE",
"178 437 CURVE",
"178 512 LINE"
);
}
);
width = 418;
}
);
leftKerningGroup = m;
note = r;
rightKerningGroup = r;
unicode = 0072;
},
{
glyphname = s;
layers = (
{
hints = (
{
horizontal = 1;
place = "{-16, 67}";
type = Stem;
},
{
horizontal = 1;
place = "{463, 65}";
type = Stem;
},
{
place = "{76, 73}";
type = Stem;
},
{
place = "{351, 80}";
type = Stem;
}
);
layerId = "46919C11-A143-4288-9F65-95BCCFE886E8";
paths = (
{
closed = 1;
nodes = (
"142 528 OFFCURVE",
"76 469 OFFCURVE",
"76 388 CURVE SMOOTH",
"76 308 OFFCURVE",
"144 269 OFFCURVE",
"201 252 CURVE SMOOTH",
"280 228 OFFCURVE",
"351 196 OFFCURVE",
"351 140 CURVE SMOOTH",
"351 71 OFFCURVE",
"286 51 OFFCURVE",
"233 51 CURVE SMOOTH",
"177 51 OFFCURVE",
"126 83 OFFCURVE",
"106 133 CURVE",
"46 95 LINE",
"75 24 OFFCURVE",
"132 -16 OFFCURVE",
"233 -16 CURVE SMOOTH",
"325 -16 OFFCURVE",
"431 17 OFFCURVE",
"431 142 CURVE SMOOTH",
"431 244 OFFCURVE",
"333 286 OFFCURVE",
"264 307 CURVE SMOOTH",
"194 328 OFFCURVE",
"149 351 OFFCURVE",
"149 392 CURVE SMOOTH",
"149 433 OFFCURVE",
"188 463 OFFCURVE",
"253 463 CURVE SMOOTH",
"301 463 OFFCURVE",
"333 438 OFFCURVE",
"346 412 CURVE",
"401 447 LINE",
"384 486 OFFCURVE",
"338 528 OFFCURVE",
"253 528 CURVE SMOOTH"
);
}
);
width = 479;
}
);
leftKerningGroup = s;
note = s;
rightKerningGroup = s;
unicode = 0073;
},
{
glyphname = t;
layers = (
{
hints = (
{
horizontal = 1;
place = "{-16, 78}";
type = Stem;
},
{
horizontal = 1;
place = "{445, 67}";
type = Stem;
},
{
horizontal = 1;
place = "{703, -20}";
target = down;
type = TopGhost;
},
{
place = "{103, 88}";
type = Stem;
}
);
layerId = "46919C11-A143-4288-9F65-95BCCFE886E8";
paths = (
{
closed = 1;
nodes = (
"48 512 LINE",
"48 445 LINE",
"103 445 LINE",
"103 139 LINE SMOOTH",
"103 64 OFFCURVE",
"124 -16 OFFCURVE",
"231 -16 CURVE SMOOTH",
"288 -16 OFFCURVE",
"324 8 OFFCURVE",
"324 8 CURVE",
"302 79 LINE",
"302 79 OFFCURVE",
"281 62 OFFCURVE",
"251 62 CURVE SMOOTH",
"207 62 OFFCURVE",
"191 93 OFFCURVE",
"191 152 CURVE SMOOTH",
"191 445 LINE",
"316 445 LINE",
"316 512 LINE",
"191 512 LINE",
"191 703 LINE",
"103 703 LINE",
"103 512 LINE"
);
}
);
width = 335;
}
);
leftKerningGroup = t;
note = t;
rightKerningGroup = t;
unicode = 0074;
},
{
glyphname = t.1;
layers = (
{
hints = (
{
horizontal = 1;
place = "{445, 67}";
type = Stem;
},
{
place = "{91, 88}";
type = Stem;
}
);
layerId = "46919C11-A143-4288-9F65-95BCCFE886E8";
paths = (
{
closed = 1;
nodes = (
"91 703 LINE",
"91 512 LINE",
"24 512 LINE",
"24 445 LINE",
"91 445 LINE",
"91 0 LINE",
"179 0 LINE",
"179 445 LINE",
"292 445 LINE",
"292 512 LINE",
"179 512 LINE",
"179 703 LINE"
);
}
);
width = 296;
}
);
note = t.1;
},
{
glyphname = u;
layers = (
{
hints = (
{
horizontal = 1;
place = "{-16, 73}";
type = Stem;
},
{
horizontal = 1;
place = "{512, -20}";
target = down;
type = TopGhost;
},
{
place = "{82, 88}";
type = Stem;
},
{
place = "{444, 88}";
type = Stem;
}
);
layerId = "46919C11-A143-4288-9F65-95BCCFE886E8";
paths = (
{
closed = 1;
nodes = (
"82 512 LINE",
"82 214 LINE SMOOTH",
"82 45 OFFCURVE",
"156 -16 OFFCURVE",
"307 -16 CURVE SMOOTH",
"458 -16 OFFCURVE",
"532 45 OFFCURVE",
"532 214 CURVE SMOOTH",
"532 512 LINE",
"444 512 LINE",
"444 231 LINE SMOOTH",
"444 92 OFFCURVE",
"395 57 OFFCURVE",
"307 57 CURVE SMOOTH",
"219 57 OFFCURVE",
"170 92 OFFCURVE",
"170 231 CURVE SMOOTH",
"170 512 LINE"
);
}
);
width = 614;
}
);
leftKerningGroup = u;
note = u;
rightKerningGroup = u;
unicode = 0075;
},
{
glyphname = u.1;
layers = (
{
hints = (
{
horizontal = 1;
place = "{-16, 70}";
type = Stem;
},
{
horizontal = 1;
place = "{512, 21}";
target = up;
type = BottomGhost;
},
{
place = "{82, 87}";
type = Stem;
},
{
place = "{447, 88}";
type = Stem;
},
{
horizontal = 1;
place = "{0, -20}";
target = down;
type = TopGhost;
}
);
layerId = "46919C11-A143-4288-9F65-95BCCFE886E8";
paths = (
{
closed = 1;
nodes = (
"82 512 LINE",
"82 185 LINE SMOOTH",
"82 56 OFFCURVE",
"165 -16 OFFCURVE",
"289 -16 CURVE SMOOTH",
"346 -16 OFFCURVE",
"414 12 OFFCURVE",
"447 67 CURVE",
"447 0 LINE",
"535 0 LINE",
"535 512 LINE",
"447 512 LINE",
"447 185 LINE SMOOTH",
"447 121 OFFCURVE",
"391 54 OFFCURVE",
"307 54 CURVE SMOOTH",
"215 54 OFFCURVE",
"169 116 OFFCURVE",
"169 209 CURVE SMOOTH",
"169 512 LINE"
);
}
);
width = 626;
}
);
note = u.1;
},
{
glyphname = v;
layers = (
{
hints = (
{
horizontal = 1;
place = "{0, 21}";
target = up;
type = BottomGhost;
},
{
horizontal = 1;
place = "{512, -20}";
target = down;
type = TopGhost;
},
{
place = "{-5, 564}";
type = Stem;
}
);
layerId = "46919C11-A143-4288-9F65-95BCCFE886E8";
paths = (
{
closed = 1;
nodes = (
"-5 512 LINE",
"247 0 LINE",
"307 0 LINE",
"559 512 LINE",
"456 512 LINE",
"277 123 LINE",
"98 512 LINE"
);
}
);
width = 553;
}
);
leftKerningGroup = v;
note = v;
rightKerningGroup = v;
unicode = 0076;
},
{
glyphname = w;
layers = (
{
hints = (
{
horizontal = 1;
place = "{0, 21}";
target = up;
type = BottomGhost;
},
{
horizontal = 1;
place = "{512, -20}";
target = down;
type = TopGhost;
},
{
place = "{-5, 930}";
type = Stem;
}
);
layerId = "46919C11-A143-4288-9F65-95BCCFE886E8";
paths = (
{
closed = 1;
nodes = (
"-5 512 LINE",
"247 0 LINE",
"306 0 LINE",
"460 379 LINE",
"614 0 LINE",
"673 0 LINE",
"925 512 LINE",
"825 512 LINE",
"646 123 LINE",
"490 512 LINE",
"430 512 LINE",
"274 123 LINE",
"95 512 LINE"
);
}
);
width = 920;
}
);
leftKerningGroup = v;
note = w;
rightKerningGroup = v;
unicode = 0077;
},
{
glyphname = x;
layers = (
{
hints = (
{
horizontal = 1;
place = "{0, 21}";
target = up;
type = BottomGhost;
},
{
horizontal = 1;
place = "{512, -20}";
target = down;
type = TopGhost;
},
{
place = "{5, 544}";
type = Stem;
}
);
layerId = "46919C11-A143-4288-9F65-95BCCFE886E8";
paths = (
{
closed = 1;
nodes = (
"34 512 LINE",
"222 265 LINE",
"5 0 LINE",
"110 0 LINE",
"277 207 LINE",
"444 0 LINE",
"549 0 LINE",
"332 265 LINE",
"520 512 LINE",
"418 512 LINE",
"277 326 LINE",
"136 512 LINE"
);
}
);
width = 554;
}
);
note = x;
rightKerningGroup = space;
unicode = 0078;
},
{
glyphname = y;
layers = (
{
hints = (
{
horizontal = 1;
place = "{-260, 21}";
target = up;
type = BottomGhost;
},
{
horizontal = 1;
place = "{512, -20}";
target = down;
type = TopGhost;
},
{
place = "{-5, 570}";
type = Stem;
}
);
layerId = "46919C11-A143-4288-9F65-95BCCFE886E8";
paths = (
{
closed = 1;
nodes = (
"-5 512 LINE",
"239 22 LINE",
"106 -260 LINE",
"205 -260 LINE",
"565 512 LINE",
"464 512 LINE",
"290 111 LINE",
"96 512 LINE"
);
}
);
width = 560;
}
);
leftKerningGroup = v;
note = y;
rightKerningGroup = v;
unicode = 0079;
},
{
glyphname = z;
layers = (
{
hints = (
{
horizontal = 1;
place = "{0, 71}";
type = Stem;
},
{
horizontal = 1;
place = "{441, 71}";
type = Stem;
},
{
place = "{23, 517}";
type = Stem;
}
);
layerId = "46919C11-A143-4288-9F65-95BCCFE886E8";
paths = (
{
closed = 1;
nodes = (
"62 512 LINE",
"62 441 LINE",
"384 441 LINE",
"23 0 LINE",
"528 0 LINE",
"528 71 LINE",
"179 71 LINE",
"540 512 LINE"
);
}
);
width = 563;
}
);
note = z;
rightKerningGroup = space;
unicode = 007A;
},
{
glyphname = braceleft;
layers = (
{
hints = (
{
place = "{122, 78}";
type = Stem;
}
);
layerId = "46919C11-A143-4288-9F65-95BCCFE886E8";
paths = (
{
closed = 1;
nodes = (
"74 274 LINE",
"105 274 OFFCURVE",
"122 259 OFFCURVE",
"122 222 CURVE SMOOTH",
"122 -79 LINE SMOOTH",
"122 -162 OFFCURVE",
"153 -260 OFFCURVE",
"281 -260 CURVE SMOOTH",
"328 -260 LINE",
"328 -192 LINE",
"303 -192 LINE SMOOTH",
"235 -192 OFFCURVE",
"200 -148 OFFCURVE",
"200 -73 CURVE SMOOTH",
"200 234 LINE SMOOTH",
"200 269 OFFCURVE",
"186 289 OFFCURVE",
"167 300 CURVE",
"186 311 OFFCURVE",
"200 331 OFFCURVE",
"200 366 CURVE SMOOTH",
"200 673 LINE SMOOTH",
"200 748 OFFCURVE",
"235 792 OFFCURVE",
"303 792 CURVE SMOOTH",
"328 792 LINE",
"328 860 LINE",
"281 860 LINE SMOOTH",
"153 860 OFFCURVE",
"122 762 OFFCURVE",
"122 679 CURVE SMOOTH",
"122 378 LINE SMOOTH",
"122 341 OFFCURVE",
"105 326 OFFCURVE",
"74 326 CURVE"
);
}
);
width = 334;
}
);
note = braceleft;
rightKerningGroup = space;
unicode = 007B;
},
{
glyphname = bar;
layers = (
{
hints = (
{
horizontal = 1;
place = "{0, 21}";
target = up;
type = BottomGhost;
},
{
horizontal = 1;
place = "{860, -20}";
target = down;
type = TopGhost;
},
{
place = "{94, 78}";
type = Stem;
}
);
layerId = "46919C11-A143-4288-9F65-95BCCFE886E8";
paths = (
{
closed = 1;
nodes = (
"94 860 LINE",
"94 0 LINE",
"172 0 LINE",
"172 860 LINE"
);
}
);
width = 265;
}
);
leftKerningGroup = I;
note = bar;
rightKerningGroup = space;
unicode = 007C;
},
{
glyphname = braceright;
layers = (
{
hints = (
{
place = "{135, 78}";
type = Stem;
}
);
layerId = "46919C11-A143-4288-9F65-95BCCFE886E8";
paths = (
{
closed = 1;
nodes = (
"6 860 LINE",
"6 792 LINE",
"31 792 LINE SMOOTH",
"100 792 OFFCURVE",
"135 748 OFFCURVE",
"135 673 CURVE SMOOTH",
"135 366 LINE SMOOTH",
"135 331 OFFCURVE",
"148 311 OFFCURVE",
"168 300 CURVE",
"148 289 OFFCURVE",
"135 269 OFFCURVE",
"135 234 CURVE SMOOTH",
"135 -73 LINE SMOOTH",
"135 -148 OFFCURVE",
"100 -192 OFFCURVE",
"31 -192 CURVE SMOOTH",
"6 -192 LINE",
"6 -260 LINE",
"54 -260 LINE SMOOTH",
"182 -260 OFFCURVE",
"213 -162 OFFCURVE",
"213 -79 CURVE SMOOTH",
"213 222 LINE SMOOTH",
"213 259 OFFCURVE",
"230 274 OFFCURVE",
"261 274 CURVE",
"261 326 LINE",
"230 326 OFFCURVE",
"213 341 OFFCURVE",
"213 378 CURVE SMOOTH",
"213 679 LINE SMOOTH",
"213 762 OFFCURVE",
"182 860 OFFCURVE",
"54 860 CURVE SMOOTH"
);
}
);
width = 334;
}
);
note = braceright;
rightKerningGroup = space;
unicode = 007D;
},
{
glyphname = asciitilde;
layers = (
{
hints = (
{
horizontal = 1;
place = "{341, 72}";
type = Stem;
},
{
horizontal = 1;
place = "{424, 72}";
type = Stem;
},
{
place = "{69, 518}";
type = Stem;
}
);
layerId = "46919C11-A143-4288-9F65-95BCCFE886E8";
paths = (
{
closed = 1;
nodes = (
"118 346 LINE",
"132 371 OFFCURVE",
"167 424 OFFCURVE",
"223 424 CURVE SMOOTH",
"245 424 OFFCURVE",
"275 415 OFFCURVE",
"308 389 CURVE SMOOTH",
"353 355 OFFCURVE",
"393 341 OFFCURVE",
"433 341 CURVE SMOOTH",
"516 341 OFFCURVE",
"570 420 OFFCURVE",
"587 448 CURVE",
"538 491 LINE",
"524 466 OFFCURVE",
"489 413 OFFCURVE",
"433 413 CURVE SMOOTH",
"411 413 OFFCURVE",
"381 422 OFFCURVE",
"348 448 CURVE SMOOTH",
"303 482 OFFCURVE",
"263 496 OFFCURVE",
"223 496 CURVE SMOOTH",
"140 496 OFFCURVE",
"86 417 OFFCURVE",
"69 389 CURVE"
);
}
);
width = 656;
}
);
note = asciitilde;
rightKerningGroup = space;
unicode = 007E;
},
{
glyphname = exclamdown;
layers = (
{
hints = (
{
horizontal = 1;
place = "{-260, 21}";
target = up;
type = BottomGhost;
},
{
horizontal = 1;
place = "{494, 122}";
type = Stem;
},
{
place = "{111, 86}";
type = Stem;
},
{
place = "{93, 122}";
type = Stem;
}
);
layerId = "46919C11-A143-4288-9F65-95BCCFE886E8";
paths = (
{
closed = 1;
nodes = (
"197 -260 LINE",
"187 391 LINE",
"121 391 LINE",
"111 -260 LINE"
);
},
{
closed = 1;
nodes = (
"188 494 OFFCURVE",
"215 521 OFFCURVE",
"215 555 CURVE SMOOTH",
"215 589 OFFCURVE",
"188 616 OFFCURVE",
"154 616 CURVE SMOOTH",
"120 616 OFFCURVE",
"93 589 OFFCURVE",
"93 555 CURVE SMOOTH",
"93 521 OFFCURVE",
"120 494 OFFCURVE",
"154 494 CURVE SMOOTH"
);
}
);
width = 308;
}
);
note = exclamdown;
rightKerningGroup = space;
unicode = 00A1;
},
{
glyphname = cent;
layers = (
{
hints = (
{
horizontal = 1;
place = "{-129, 21}";
target = up;
type = BottomGhost;
},
{
horizontal = 1;
place = "{-15, 83}";
type = Stem;
},
{
horizontal = 1;
place = "{444, 84}";
type = Stem;
},
{
horizontal = 1;
place = "{636, -20}";
target = down;
type = TopGhost;
},
{
place = "{51, 90}";
type = Stem;
},
{
place = "{297, 57}";
type = Stem;
},
{
place = "{271, 57}";
type = Stem;
}
);
layerId = "46919C11-A143-4288-9F65-95BCCFE886E8";
paths = (
{
closed = 1;
nodes = (
"51 112 OFFCURVE",
"159 1 OFFCURVE",
"297 -14 CURVE",
"297 -129 LINE",
"354 -129 LINE",
"354 -15 LINE",
"430 -11 OFFCURVE",
"477 9 OFFCURVE",
"503 38 CURVE",
"461 104 LINE",
"443 83 OFFCURVE",
"396 68 OFFCURVE",
"338 68 CURVE SMOOTH",
"226 68 OFFCURVE",
"141 142 OFFCURVE",
"141 256 CURVE SMOOTH",
"141 370 OFFCURVE",
"226 444 OFFCURVE",
"338 444 CURVE SMOOTH",
"396 444 OFFCURVE",
"443 429 OFFCURVE",
"462 408 CURVE",
"503 473 LINE",
"475 506 OFFCURVE",
"420 528 OFFCURVE",
"328 528 CURVE",
"328 636 LINE",
"271 636 LINE",
"271 522 LINE",
"146 497 OFFCURVE",
"51 392 OFFCURVE",
"51 256 CURVE SMOOTH"
);
}
);
width = 553;
}
);
leftKerningGroup = c;
note = cent;
rightKerningGroup = c;
unicode = 00A2;
},
{
glyphname = sterling;
layers = (
{
hints = (
{
horizontal = 1;
place = "{-15, 73}";
type = Stem;
},
{
horizontal = 1;
place = "{65, 67}";
type = Stem;
},
{
horizontal = 1;
place = "{309, 53}";
type = Stem;
},
{
horizontal = 1;
place = "{766, 74}";
type = Stem;
},
{
place = "{87, 57}";
type = Stem;
},
{
place = "{128, 90}";
type = Stem;
}
);
layerId = "46919C11-A143-4288-9F65-95BCCFE886E8";
paths = (
{
closed = 1;
nodes = (
"66 362 LINE",
"66 309 LINE",
"228 309 LINE",
"240 285 OFFCURVE",
"250 260 OFFCURVE",
"250 229 CURVE SMOOTH",
"250 191 OFFCURVE",
"242 159 OFFCURVE",
"229 132 CURVE",
"148 128 OFFCURVE",
"94 50 OFFCURVE",
"87 0 CURVE",
"144 0 LINE",
"153 25 OFFCURVE",
"183 65 OFFCURVE",
"246 65 CURVE SMOOTH",
"342 65 OFFCURVE",
"411 -15 OFFCURVE",
"539 -15 CURVE SMOOTH",
"655 -15 OFFCURVE",
"709 89 OFFCURVE",
"715 137 CURVE",
"645 172 LINE",
"641 134 OFFCURVE",
"606 58 OFFCURVE",
"530 58 CURVE SMOOTH",
"432 58 OFFCURVE",
"367 126 OFFCURVE",
"301 126 CURVE",
"309 146 OFFCURVE",
"326 185 OFFCURVE",
"326 232 CURVE SMOOTH",
"326 262 OFFCURVE",
"319 286 OFFCURVE",
"310 309 CURVE",
"523 309 LINE",
"523 362 LINE",
"288 362 LINE",
"258 416 OFFCURVE",
"218 465 OFFCURVE",
"218 570 CURVE SMOOTH",
"218 680 OFFCURVE",
"289 766 OFFCURVE",
"397 766 CURVE SMOOTH",
"533 766 OFFCURVE",
"582 657 OFFCURVE",
"594 602 CURVE",
"672 636 LINE",
"659 697 OFFCURVE",
"593 840 OFFCURVE",
"397 840 CURVE SMOOTH",
"234 840 OFFCURVE",
"128 721 OFFCURVE",
"128 570 CURVE SMOOTH",
"128 473 OFFCURVE",
"161 418 OFFCURVE",
"200 362 CURVE"
);
}
);
width = 756;
}
);
note = sterling;
rightKerningGroup = space;
unicode = 00A3;
},
{
glyphname = yen;
layers = (
{
hints = (
{
horizontal = 1;
place = "{330, -20}";
target = down;
type = TopGhost;
},
{
horizontal = 1;
place = "{397, 21}";
target = up;
type = BottomGhost;
},
{
place = "{-2, 665}";
type = Stem;
},
{
place = "{84, 491}";
type = Stem;
}
);
layerId = "46919C11-A143-4288-9F65-95BCCFE886E8";
paths = (
{
closed = 1;
nodes = (
"-2 825 LINE",
"260 397 LINE",
"84 397 LINE",
"84 330 LINE",
"284 330 LINE",
"284 218 LINE",
"84 218 LINE",
"84 151 LINE",
"284 151 LINE",
"284 0 LINE",
"376 0 LINE",
"376 151 LINE",
"575 151 LINE",
"575 218 LINE",
"376 218 LINE",
"376 330 LINE",
"575 330 LINE",
"575 397 LINE",
"399 397 LINE",
"662 825 LINE",
"551 825 LINE",
"330 456 LINE",
"109 825 LINE"
);
}
);
width = 663;
}
);
note = yen;
rightKerningGroup = space;
unicode = 00A5;
},
{
glyphname = brokenbar;
layers = (
{
hints = (
{
horizontal = 1;
place = "{0, 332}";
type = Stem;
},
{
horizontal = 1;
place = "{528, 332}";
type = Stem;
},
{
place = "{94, 78}";
type = Stem;
}
);
layerId = "46919C11-A143-4288-9F65-95BCCFE886E8";
paths = (
{
closed = 1;
nodes = (
"94 860 LINE",
"94 528 LINE",
"172 528 LINE",
"172 860 LINE"
);
},
{
closed = 1;
nodes = (
"94 332 LINE",
"94 0 LINE",
"172 0 LINE",
"172 332 LINE"
);
}
);
width = 265;
}
);
note = brokenbar;
rightKerningGroup = space;
unicode = 00A6;
},
{
glyphname = section;
layers = (
{
hints = (
{
horizontal = 1;
place = "{-275, 75}";
type = Stem;
},
{
horizontal = 1;
place = "{765, 75}";
type = Stem;
},
{
place = "{97, 88}";
type = Stem;
},
{
place = "{486, 85}";
type = Stem;
}
);
layerId = "46919C11-A143-4288-9F65-95BCCFE886E8";
paths = (
{
closed = 1;
nodes = (
"81 224 OFFCURVE",
"145 162 OFFCURVE",
"276 115 CURVE SMOOTH",
"407 69 OFFCURVE",
"486 20 OFFCURVE",
"486 -61 CURVE SMOOTH",
"486 -149 OFFCURVE",
"409 -200 OFFCURVE",
"311 -200 CURVE SMOOTH",
"183 -200 OFFCURVE",
"133 -90 OFFCURVE",
"127 -71 CURVE",
"49 -91 LINE",
"54 -109 OFFCURVE",
"112 -275 OFFCURVE",
"311 -275 CURVE SMOOTH",
"486 -275 OFFCURVE",
"571 -174 OFFCURVE",
"571 -59 CURVE SMOOTH",
"571 19 OFFCURVE",
"540 72 OFFCURVE",
"479 116 CURVE",
"536 141 OFFCURVE",
"585 200 OFFCURVE",
"586 265 CURVE SMOOTH",
"586 365 OFFCURVE",
"511 427 OFFCURVE",
"363 480 CURVE SMOOTH",
"264 515 OFFCURVE",
"185 556 OFFCURVE",
"185 632 CURVE SMOOTH",
"185 698 OFFCURVE",
"237 765 OFFCURVE",
"327 765 CURVE SMOOTH",
"412 765 OFFCURVE",
"451 706 OFFCURVE",
"463 676 CURVE",
"541 696 LINE",
"527 729 OFFCURVE",
"475 840 OFFCURVE",
"327 840 CURVE SMOOTH",
"184 840 OFFCURVE",
"97 747 OFFCURVE",
"97 630 CURVE SMOOTH",
"97 558 OFFCURVE",
"125 507 OFFCURVE",
"186 466 CURVE",
"129 442 OFFCURVE",
"82 386 OFFCURVE",
"81 315 CURVE SMOOTH"
);
},
{
closed = 1;
nodes = (
"161 381 OFFCURVE",
"203 421 OFFCURVE",
"244 433 CURVE",
"265 422 OFFCURVE",
"289 412 OFFCURVE",
"315 404 CURVE SMOOTH",
"435 363 OFFCURVE",
"506 321 OFFCURVE",
"507 253 CURVE SMOOTH",
"506 203 OFFCURVE",
"463 163 OFFCURVE",
"420 150 CURVE",
"389 168 OFFCURVE",
"351 184 OFFCURVE",
"308 199 CURVE SMOOTH",
"226 228 OFFCURVE",
"160 263 OFFCURVE",
"159 327 CURVE SMOOTH"
);
}
);
width = 640;
}
);
note = section;
rightKerningGroup = space;
unicode = 00A7;
},
{
glyphname = dieresis;
layers = (
{
hints = (
{
horizontal = 1;
place = "{648, 102}";
type = Stem;
},
{
place = "{72, 102}";
type = Stem;
},
{
place = "{306, 102}";
type = Stem;
}
);
layerId = "46919C11-A143-4288-9F65-95BCCFE886E8";
paths = (
{
closed = 1;
nodes = (
"95 750 OFFCURVE",
"72 727 OFFCURVE",
"72 699 CURVE SMOOTH",
"72 671 OFFCURVE",
"95 648 OFFCURVE",
"123 648 CURVE SMOOTH",
"151 648 OFFCURVE",
"174 671 OFFCURVE",
"174 699 CURVE SMOOTH",
"174 727 OFFCURVE",
"151 750 OFFCURVE",
"123 750 CURVE SMOOTH"
);
},
{
closed = 1;
nodes = (
"329 750 OFFCURVE",
"306 727 OFFCURVE",
"306 699 CURVE SMOOTH",
"306 671 OFFCURVE",
"329 648 OFFCURVE",
"357 648 CURVE SMOOTH",
"385 648 OFFCURVE",
"408 671 OFFCURVE",
"408 699 CURVE SMOOTH",
"408 727 OFFCURVE",
"385 750 OFFCURVE",
"357 750 CURVE SMOOTH"
);
}
);
width = 480;
}
);
note = dieresis;
rightKerningGroup = space;
unicode = 00A8;
},
{
glyphname = copyright;
layers = (
{
hints = (
{
horizontal = 1;
place = "{-16, 62}";
type = Stem;
},
{
horizontal = 1;
place = "{165, 77}";
type = Stem;
},
{
horizontal = 1;
place = "{583, 76}";
type = Stem;
},
{
horizontal = 1;
place = "{778, 62}";
type = Stem;
},
{
place = "{54, 63}";
type = Stem;
},
{
place = "{229, 82}";
type = Stem;
},
{
place = "{831, 64}";
type = Stem;
}
);
layerId = "46919C11-A143-4288-9F65-95BCCFE886E8";
paths = (
{
closed = 1;
nodes = (
"54 173 OFFCURVE",
"234 -16 OFFCURVE",
"474 -16 CURVE SMOOTH",
"711 -16 OFFCURVE",
"895 173 OFFCURVE",
"895 412 CURVE SMOOTH",
"895 652 OFFCURVE",
"706 840 OFFCURVE",
"474 840 CURVE SMOOTH",
"244 840 OFFCURVE",
"54 652 OFFCURVE",
"54 412 CURVE SMOOTH"
);
},
{
closed = 1;
nodes = (
"117 617 OFFCURVE",
"279 778 OFFCURVE",
"474 778 CURVE SMOOTH",
"671 778 OFFCURVE",
"831 617 OFFCURVE",
"831 412 CURVE SMOOTH",
"831 208 OFFCURVE",
"675 46 OFFCURVE",
"474 46 CURVE SMOOTH",
"270 46 OFFCURVE",
"117 208 OFFCURVE",
"117 412 CURVE SMOOTH"
);
},
{
closed = 1;
nodes = (
"229 272 OFFCURVE",
"343 165 OFFCURVE",
"481 165 CURVE SMOOTH",
"565 165 OFFCURVE",
"614 185 OFFCURVE",
"640 215 CURVE",
"602 274 LINE",
"586 255 OFFCURVE",
"543 242 OFFCURVE",
"490 242 CURVE SMOOTH",
"388 242 OFFCURVE",
"311 309 OFFCURVE",
"311 412 CURVE SMOOTH",
"311 516 OFFCURVE",
"388 583 OFFCURVE",
"490 583 CURVE SMOOTH",
"543 583 OFFCURVE",
"586 570 OFFCURVE",
"603 550 CURVE",
"640 610 LINE",
"615 639 OFFCURVE",
"565 659 OFFCURVE",
"481 659 CURVE SMOOTH",
"343 659 OFFCURVE",
"229 554 OFFCURVE",
"229 412 CURVE SMOOTH"
);
}
);
width = 948;
}
);
note = copyright;
rightKerningGroup = space;
unicode = 00A9;
},
{
glyphname = ordfeminine;
layers = (
{
hints = (
{
horizontal = 1;
place = "{504, 47}";
type = Stem;
},
{
horizontal = 1;
place = "{830, -20}";
target = down;
type = TopGhost;
},
{
place = "{61, 57}";
type = Stem;
},
{
place = "{346, 54}";
type = Stem;
},
{
horizontal = 1;
place = "{514, 21}";
target = up;
type = BottomGhost;
},
{
horizontal = 1;
place = "{793, 47}";
type = Stem;
}
);
layerId = "46919C11-A143-4288-9F65-95BCCFE886E8";
paths = (
{
closed = 1;
nodes = (
"61 576 OFFCURVE",
"129 504 OFFCURVE",
"219 504 CURVE SMOOTH",
"275 504 OFFCURVE",
"321 533 OFFCURVE",
"346 576 CURVE",
"346 514 LINE",
"400 514 LINE",
"400 830 LINE",
"346 830 LINE",
"346 770 LINE",
"321 813 OFFCURVE",
"275 840 OFFCURVE",
"219 840 CURVE SMOOTH",
"129 840 OFFCURVE",
"61 768 OFFCURVE",
"61 672 CURVE SMOOTH"
);
},
{
closed = 1;
nodes = (
"118 743 OFFCURVE",
"168 793 OFFCURVE",
"233 793 CURVE SMOOTH",
"299 793 OFFCURVE",
"348 743 OFFCURVE",
"348 672 CURVE SMOOTH",
"348 602 OFFCURVE",
"300 551 OFFCURVE",
"233 551 CURVE SMOOTH",
"166 551 OFFCURVE",
"118 602 OFFCURVE",
"118 672 CURVE SMOOTH"
);
}
);
width = 470;
}
);
note = ordfeminine;
rightKerningGroup = space;
unicode = 00AA;
},
{
glyphname = guillemotleft;
layers = (
{
hints = (
{
horizontal = 1;
place = "{28, 21}";
target = up;
type = BottomGhost;
},
{
horizontal = 1;
place = "{528, -20}";
target = down;
type = TopGhost;
},
{
place = "{19, 496}";
type = Stem;
}
);
layerId = "46919C11-A143-4288-9F65-95BCCFE886E8";
paths = (
{
closed = 1;
nodes = (
"214 528 LINE",
"19 278 LINE",
"214 28 LINE",
"265 68 LINE",
"101 278 LINE",
"265 488 LINE"
);
},
{
closed = 1;
nodes = (
"464 528 LINE",
"269 278 LINE",
"464 28 LINE",
"515 68 LINE",
"351 278 LINE",
"515 488 LINE"
);
}
);
width = 550;
}
);
note = guillemotleft;
rightKerningGroup = space;
unicode = 00AB;
},
{
glyphname = registered;
layers = (
{
hints = (
{
horizontal = 1;
place = "{392, 32}";
type = Stem;
},
{
horizontal = 1;
place = "{481, 21}";
target = up;
type = BottomGhost;
},
{
horizontal = 1;
place = "{595, 22}";
type = Stem;
},
{
horizontal = 1;
place = "{731, 20}";
type = Stem;
},
{
horizontal = 1;
place = "{808, 32}";
type = Stem;
},
{
place = "{31, 32}";
type = Stem;
},
{
place = "{186, 26}";
type = Stem;
},
{
place = "{306, 26}";
type = Stem;
},
{
place = "{446, 33}";
type = Stem;
}
);
layerId = "46919C11-A143-4288-9F65-95BCCFE886E8";
paths = (
{
closed = 1;
nodes = (
"31 492 OFFCURVE",
"132 392 OFFCURVE",
"254 392 CURVE SMOOTH",
"379 392 OFFCURVE",
"479 492 OFFCURVE",
"479 615 CURVE SMOOTH",
"479 739 OFFCURVE",
"379 840 OFFCURVE",
"254 840 CURVE SMOOTH",
"132 840 OFFCURVE",
"31 739 OFFCURVE",
"31 615 CURVE SMOOTH"
);
},
{
closed = 1;
nodes = (
"63 721 OFFCURVE",
"149 808 OFFCURVE",
"254 808 CURVE SMOOTH",
"360 808 OFFCURVE",
"446 721 OFFCURVE",
"446 615 CURVE SMOOTH",
"446 510 OFFCURVE",
"360 424 OFFCURVE",
"254 424 CURVE SMOOTH",
"149 424 OFFCURVE",
"63 510 OFFCURVE",
"63 615 CURVE SMOOTH"
);
},
{
closed = 1;
nodes = (
"186 751 LINE",
"186 481 LINE",
"212 481 LINE",
"212 595 LINE",
"231 595 LINE",
"318 481 LINE",
"350 481 LINE",
"260 597 LINE",
"305 602 OFFCURVE",
"332 633 OFFCURVE",
"332 675 CURVE SMOOTH",
"332 723 OFFCURVE",
"299 751 OFFCURVE",
"246 751 CURVE SMOOTH"
);
},
{
closed = 1;
nodes = (
"212 731 LINE",
"240 731 LINE SMOOTH",
"280 731 OFFCURVE",
"306 710 OFFCURVE",
"306 675 CURVE SMOOTH",
"306 639 OFFCURVE",
"280 617 OFFCURVE",
"240 617 CURVE SMOOTH",
"212 617 LINE"
);
}
);
width = 510;
}
);
note = registered;
rightKerningGroup = space;
unicode = 00AE;
},
{
glyphname = macron;
layers = (
{
hints = (
{
horizontal = 1;
place = "{663, 62}";
type = Stem;
},
{
place = "{70, 408}";
type = Stem;
}
);
layerId = "46919C11-A143-4288-9F65-95BCCFE886E8";
paths = (
{
closed = 1;
nodes = (
"70 725 LINE",
"70 663 LINE",
"478 663 LINE",
"478 725 LINE"
);
}
);
width = 548;
}
);
note = macron;
rightKerningGroup = space;
unicode = 00AF;
},
{
glyphname = degree;
layers = (
{
hints = (
{
horizontal = 1;
place = "{669, 37}";
type = Stem;
},
{
horizontal = 1;
place = "{837, 38}";
type = Stem;
},
{
place = "{47, 43}";
type = Stem;
},
{
place = "{218, 43}";
type = Stem;
}
);
layerId = "46919C11-A143-4288-9F65-95BCCFE886E8";
paths = (
{
closed = 1;
nodes = (
"47 712 OFFCURVE",
"90 669 OFFCURVE",
"154 669 CURVE SMOOTH",
"217 669 OFFCURVE",
"261 712 OFFCURVE",
"261 772 CURVE SMOOTH",
"261 833 OFFCURVE",
"214 875 OFFCURVE",
"154 875 CURVE SMOOTH",
"94 875 OFFCURVE",
"47 833 OFFCURVE",
"47 772 CURVE SMOOTH"
);
},
{
closed = 1;
nodes = (
"90 810 OFFCURVE",
"118 837 OFFCURVE",
"154 837 CURVE SMOOTH",
"191 837 OFFCURVE",
"218 810 OFFCURVE",
"218 772 CURVE SMOOTH",
"218 734 OFFCURVE",
"192 706 OFFCURVE",
"154 706 CURVE SMOOTH",
"116 706 OFFCURVE",
"90 734 OFFCURVE",
"90 772 CURVE SMOOTH"
);
}
);
width = 308;
}
);
note = degree;
rightKerningGroup = space;
unicode = 00B0;
},
{
glyphname = onesuperior;
layers = (
{
hints = (
{
horizontal = 1;
place = "{513, 21}";
target = up;
type = BottomGhost;
},
{
horizontal = 1;
place = "{791, 34}";
type = Stem;
},
{
place = "{57, 34}";
type = Stem;
}
);
layerId = "46919C11-A143-4288-9F65-95BCCFE886E8";
paths = (
{
closed = 1;
nodes = (
"24 825 LINE",
"24 791 LINE",
"57 791 LINE",
"57 513 LINE",
"91 513 LINE",
"91 825 LINE"
);
}
);
width = 123;
}
);
note = onesuperior;
rightKerningGroup = space;
unicode = 00B9;
},
{
glyphname = twosuperior;
layers = (
{
hints = (
{
horizontal = 1;
place = "{513, 32}";
type = Stem;
},
{
horizontal = 1;
place = "{808, 32}";
type = Stem;
},
{
place = "{218, 39}";
type = Stem;
}
);
layerId = "46919C11-A143-4288-9F65-95BCCFE886E8";
paths = (
{
closed = 1;
nodes = (
"68 729 LINE",
"68 759 OFFCURVE",
"102 808 OFFCURVE",
"145 808 CURVE SMOOTH",
"193 808 OFFCURVE",
"218 768 OFFCURVE",
"218 733 CURVE SMOOTH",
"218 666 OFFCURVE",
"88 575 OFFCURVE",
"32 530 CURVE",
"32 513 LINE",
"262 513 LINE",
"262 545 LINE",
"101 545 LINE",
"170 600 OFFCURVE",
"257 663 OFFCURVE",
"257 733 CURVE SMOOTH",
"257 783 OFFCURVE",
"223 840 OFFCURVE",
"145 840 CURVE SMOOTH",
"77 840 OFFCURVE",
"37 775 OFFCURVE",
"37 741 CURVE"
);
}
);
width = 274;
}
);
note = twosuperior;
rightKerningGroup = space;
unicode = 00B2;
},
{
glyphname = threesuperior;
layers = (
{
hints = (
{
horizontal = 1;
place = "{513, 32}";
type = Stem;
},
{
horizontal = 1;
place = "{670, 24}";
type = Stem;
},
{
horizontal = 1;
place = "{810, 30}";
type = Stem;
},
{
place = "{187, 33}";
type = Stem;
},
{
place = "{190, 36}";
type = Stem;
}
);
layerId = "46919C11-A143-4288-9F65-95BCCFE886E8";
paths = (
{
closed = 1;
nodes = (
"68 753 LINE",
"71 784 OFFCURVE",
"92 810 OFFCURVE",
"129 810 CURVE SMOOTH",
"161 810 OFFCURVE",
"187 786 OFFCURVE",
"187 754 CURVE SMOOTH",
"187 720 OFFCURVE",
"159 694 OFFCURVE",
"125 694 CURVE SMOOTH",
"114 694 LINE",
"114 668 LINE",
"114 668 OFFCURVE",
"119 670 OFFCURVE",
"126 670 CURVE SMOOTH",
"160 670 OFFCURVE",
"190 642 OFFCURVE",
"190 605 CURVE SMOOTH",
"190 570 OFFCURVE",
"167 545 OFFCURVE",
"125 545 CURVE SMOOTH",
"78 545 OFFCURVE",
"60 574 OFFCURVE",
"55 607 CURVE",
"22 594 LINE",
"27 558 OFFCURVE",
"53 513 OFFCURVE",
"126 513 CURVE SMOOTH",
"189 513 OFFCURVE",
"226 553 OFFCURVE",
"226 605 CURVE SMOOTH",
"226 641 OFFCURVE",
"206 672 OFFCURVE",
"174 683 CURVE",
"201 694 OFFCURVE",
"220 722 OFFCURVE",
"220 754 CURVE SMOOTH",
"220 802 OFFCURVE",
"181 840 OFFCURVE",
"130 840 CURVE SMOOTH",
"67 840 OFFCURVE",
"41 794 OFFCURVE",
"39 763 CURVE"
);
}
);
width = 247;
}
);
note = threesuperior;
rightKerningGroup = space;
unicode = 00B3;
},
{
glyphname = acute;
layers = (
{
hints = (
{
horizontal = 1;
place = "{675, 21}";
target = up;
type = BottomGhost;
},
{
horizontal = 1;
place = "{840, -20}";
target = down;
type = TopGhost;
},
{
place = "{89, 198}";
type = Stem;
}
);
layerId = "46919C11-A143-4288-9F65-95BCCFE886E8";
paths = (
{
closed = 1;
nodes = (
"89 719 LINE",
"120 675 LINE",
"287 775 LINE",
"238 840 LINE"
);
}
);
width = 376;
}
);
note = acute;
rightKerningGroup = space;
unicode = 00B4;
},
{
glyphname = mu;
layers = (
{
hints = (
{
horizontal = 1;
place = "{-16, 70}";
type = Stem;
},
{
horizontal = 1;
place = "{512, -20}";
target = down;
type = TopGhost;
},
{
place = "{103, 87}";
type = Stem;
},
{
place = "{468, 88}";
type = Stem;
},
{
horizontal = 1;
place = "{0, 21}";
target = up;
type = BottomGhost;
}
);
layerId = "46919C11-A143-4288-9F65-95BCCFE886E8";
paths = (
{
closed = 1;
nodes = (
"103 512 LINE",
"103 217 LINE SMOOTH",
"103 66 OFFCURVE",
"82 -8 OFFCURVE",
"82 -160 CURVE",
"190 -160 LINE",
"190 35 LINE",
"214 3 OFFCURVE",
"253 -16 OFFCURVE",
"310 -16 CURVE SMOOTH",
"367 -16 OFFCURVE",
"435 12 OFFCURVE",
"468 67 CURVE",
"468 0 LINE",
"556 0 LINE",
"556 512 LINE",
"468 512 LINE",
"468 185 LINE SMOOTH",
"468 121 OFFCURVE",
"412 54 OFFCURVE",
"328 54 CURVE SMOOTH",
"236 54 OFFCURVE",
"190 116 OFFCURVE",
"190 209 CURVE SMOOTH",
"190 512 LINE"
);
}
);
width = 647;
}
);
note = mu;
unicode = 00B5;
},
{
glyphname = paragraph;
layers = (
{
hints = (
{
horizontal = 1;
place = "{0, 21}";
target = up;
type = BottomGhost;
},
{
horizontal = 1;
place = "{769, 56}";
type = Stem;
},
{
place = "{407, 58}";
type = Stem;
},
{
place = "{505, 58}";
type = Stem;
}
);
layerId = "46919C11-A143-4288-9F65-95BCCFE886E8";
paths = (
{
closed = 1;
nodes = (
"54 453 OFFCURVE",
"150 343 OFFCURVE",
"311 343 CURVE SMOOTH",
"407 343 LINE",
"407 0 LINE",
"465 0 LINE",
"465 769 LINE",
"505 769 LINE",
"505 0 LINE",
"563 0 LINE",
"563 825 LINE",
"311 825 LINE SMOOTH",
"150 825 OFFCURVE",
"54 726 OFFCURVE",
"54 589 CURVE SMOOTH"
);
}
);
width = 656;
}
);
note = paragraph;
rightKerningGroup = space;
unicode = 00B6;
},
{
glyphname = periodcentered;
layers = (
{
hints = (
{
horizontal = 1;
place = "{209, 120}";
type = Stem;
},
{
place = "{58, 120}";
type = Stem;
}
);
layerId = "46919C11-A143-4288-9F65-95BCCFE886E8";
paths = (
{
closed = 1;
nodes = (
"85 329 OFFCURVE",
"58 302 OFFCURVE",
"58 269 CURVE SMOOTH",
"58 236 OFFCURVE",
"85 209 OFFCURVE",
"118 209 CURVE SMOOTH",
"151 209 OFFCURVE",
"178 236 OFFCURVE",
"178 269 CURVE SMOOTH",
"178 302 OFFCURVE",
"151 329 OFFCURVE",
"118 329 CURVE SMOOTH"
);
}
);
width = 236;
}
);
note = periodcentered;
rightKerningGroup = space;
unicode = 00B7;
},
{
glyphname = cedilla;
layers = (
{
hints = (
{
horizontal = 1;
place = "{-294, 52}";
type = Stem;
},
{
horizontal = 1;
place = "{-112, 37}";
type = Stem;
},
{
horizontal = 1;
place = "{24, -20}";
target = down;
type = TopGhost;
},
{
place = "{293, 57}";
type = Stem;
}
);
layerId = "46919C11-A143-4288-9F65-95BCCFE886E8";
paths = (
{
closed = 1;
nodes = (
"147 -126 LINE",
"153 -130 LINE",
"168 -120 OFFCURVE",
"195 -112 OFFCURVE",
"221 -112 CURVE SMOOTH",
"260 -112 OFFCURVE",
"293 -138 OFFCURVE",
"293 -179 CURVE SMOOTH",
"293 -220 OFFCURVE",
"258 -242 OFFCURVE",
"216 -242 CURVE SMOOTH",
"168 -242 OFFCURVE",
"132 -211 OFFCURVE",
"119 -188 CURVE",
"77 -217 LINE",
"92 -245 OFFCURVE",
"145 -294 OFFCURVE",
"216 -294 CURVE SMOOTH",
"302 -294 OFFCURVE",
"350 -242 OFFCURVE",
"350 -179 CURVE SMOOTH",
"350 -115 OFFCURVE",
"296 -75 OFFCURVE",
"240 -75 CURVE SMOOTH",
"230 -75 OFFCURVE",
"220 -75 OFFCURVE",
"210 -77 CURVE",
"239 10 LINE",
"196 24 LINE"
);
}
);
width = 411;
}
);
note = cedilla;
rightKerningGroup = space;
unicode = 00B8;
},
{
glyphname = ordmasculine;
layers = (
{
hints = (
{
horizontal = 1;
place = "{503, 47}";
type = Stem;
},
{
horizontal = 1;
place = "{793, 47}";
type = Stem;
},
{
place = "{62, 55}";
type = Stem;
},
{
place = "{360, 56}";
type = Stem;
}
);
layerId = "46919C11-A143-4288-9F65-95BCCFE886E8";
paths = (
{
closed = 1;
nodes = (
"138 840 OFFCURVE",
"62 771 OFFCURVE",
"62 672 CURVE SMOOTH",
"62 573 OFFCURVE",
"135 503 OFFCURVE",
"239 503 CURVE SMOOTH",
"342 503 OFFCURVE",
"416 573 OFFCURVE",
"416 672 CURVE SMOOTH",
"416 771 OFFCURVE",
"339 840 OFFCURVE",
"239 840 CURVE SMOOTH"
);
},
{
closed = 1;
nodes = (
"308 793 OFFCURVE",
"360 742 OFFCURVE",
"360 672 CURVE SMOOTH",
"360 601 OFFCURVE",
"310 550 OFFCURVE",
"239 550 CURVE SMOOTH",
"167 550 OFFCURVE",
"117 601 OFFCURVE",
"117 672 CURVE SMOOTH",
"117 742 OFFCURVE",
"169 793 OFFCURVE",
"239 793 CURVE SMOOTH"
);
}
);
width = 474;
}
);
note = ordmasculine;
rightKerningGroup = space;
unicode = 00BA;
},
{
glyphname = guillemotright;
layers = (
{
hints = (
{
horizontal = 1;
place = "{28, 21}";
target = up;
type = BottomGhost;
},
{
horizontal = 1;
place = "{528, -20}";
target = down;
type = TopGhost;
},
{
place = "{35, 496}";
type = Stem;
}
);
layerId = "46919C11-A143-4288-9F65-95BCCFE886E8";
paths = (
{
closed = 1;
nodes = (
"285 488 LINE",
"449 278 LINE",
"285 68 LINE",
"336 28 LINE",
"531 278 LINE",
"336 528 LINE"
);
},
{
closed = 1;
nodes = (
"35 488 LINE",
"199 278 LINE",
"35 68 LINE",
"86 28 LINE",
"281 278 LINE",
"86 528 LINE"
);
}
);
width = 550;
}
);
note = guillemotright;
rightKerningGroup = space;
unicode = 00BB;
},
{
glyphname = onequarter;
layers = (
{
hints = (
{
horizontal = 1;
place = "{1, 21}";
target = up;
type = BottomGhost;
},
{
horizontal = 1;
place = "{825, -20}";
target = down;
type = TopGhost;
},
{
horizontal = 1;
place = "{0, 21}";
target = up;
type = BottomGhost;
},
{
horizontal = 1;
place = "{149, 47}";
type = Stem;
},
{
horizontal = 1;
place = "{479, -20}";
target = down;
type = TopGhost;
},
{
place = "{610, 51}";
type = Stem;
},
{
horizontal = 1;
place = "{346, 21}";
target = up;
type = BottomGhost;
},
{
horizontal = 1;
place = "{772, 53}";
type = Stem;
},
{
place = "{116, 53}";
type = Stem;
}
);
layerId = "46919C11-A143-4288-9F65-95BCCFE886E8";
paths = (
{
closed = 1;
nodes = (
"123 1 LINE",
"602 825 LINE",
"541 825 LINE",
"61 1 LINE"
);
},
{
closed = 1;
nodes = (
"382 149 LINE",
"610 149 LINE",
"610 0 LINE",
"661 0 LINE",
"661 149 LINE",
"717 149 LINE",
"717 196 LINE",
"661 196 LINE",
"661 479 LINE",
"608 479 LINE",
"382 171 LINE"
);
},
{
closed = 1;
nodes = (
"453 196 LINE",
"610 406 LINE",
"610 196 LINE"
);
},
{
closed = 1;
nodes = (
"65 825 LINE",
"65 772 LINE",
"116 772 LINE",
"116 346 LINE",
"169 346 LINE",
"169 825 LINE"
);
}
);
width = 757;
}
);
note = onequarter;
rightKerningGroup = space;
unicode = 00BC;
},
{
glyphname = onehalf;
layers = (
{
hints = (
{
horizontal = 1;
place = "{0, 21}";
target = up;
type = BottomGhost;
},
{
horizontal = 1;
place = "{825, -20}";
target = down;
type = TopGhost;
},
{
horizontal = 1;
place = "{0, 47}";
type = Stem;
},
{
horizontal = 1;
place = "{435, 47}";
type = Stem;
},
{
place = "{758, 57}";
type = Stem;
},
{
horizontal = 1;
place = "{345, 21}";
target = up;
type = BottomGhost;
},
{
horizontal = 1;
place = "{772, 53}";
type = Stem;
},
{
place = "{116, 53}";
type = Stem;
}
);
layerId = "46919C11-A143-4288-9F65-95BCCFE886E8";
paths = (
{
closed = 1;
nodes = (
"123 0 LINE",
"603 825 LINE",
"541 825 LINE",
"61 0 LINE"
);
},
{
closed = 1;
nodes = (
"536 318 LINE",
"536 363 OFFCURVE",
"586 435 OFFCURVE",
"650 435 CURVE SMOOTH",
"720 435 OFFCURVE",
"758 375 OFFCURVE",
"758 324 CURVE SMOOTH",
"758 226 OFFCURVE",
"566 91 OFFCURVE",
"484 25 CURVE",
"484 0 LINE",
"824 0 LINE",
"824 47 LINE",
"585 47 LINE",
"687 129 OFFCURVE",
"815 221 OFFCURVE",
"815 324 CURVE SMOOTH",
"815 398 OFFCURVE",
"766 482 OFFCURVE",
"650 482 CURVE SMOOTH",
"549 482 OFFCURVE",
"490 386 OFFCURVE",
"490 336 CURVE"
);
},
{
closed = 1;
nodes = (
"65 825 LINE",
"65 772 LINE",
"116 772 LINE",
"116 345 LINE",
"169 345 LINE",
"169 825 LINE"
);
}
);
width = 913;
}
);
note = onehalf;
rightKerningGroup = space;
unicode = 00BD;
},
{
glyphname = threequarters;
layers = (
{
hints = (
{
horizontal = 1;
place = "{1, 21}";
target = up;
type = BottomGhost;
},
{
horizontal = 1;
place = "{149, 47}";
type = Stem;
},
{
horizontal = 1;
place = "{343, 48}";
type = Stem;
},
{
horizontal = 1;
place = "{479, -20}";
target = down;
type = TopGhost;
},
{
horizontal = 1;
place = "{575, 36}";
type = Stem;
},
{
horizontal = 1;
place = "{825, -20}";
target = down;
type = TopGhost;
},
{
place = "{282, 49}";
type = Stem;
},
{
place = "{764, 51}";
type = Stem;
},
{
horizontal = 1;
place = "{784, 21}";
target = up;
type = BottomGhost;
},
{
place = "{287, 53}";
type = Stem;
},
{
horizontal = 1;
place = "{0, 21}";
target = up;
type = BottomGhost;
}
);
layerId = "46919C11-A143-4288-9F65-95BCCFE886E8";
paths = (
{
closed = 1;
nodes = (
"277 1 LINE",
"756 825 LINE",
"695 825 LINE",
"216 1 LINE"
);
},
{
closed = 1;
nodes = (
"106 699 LINE",
"111 745 OFFCURVE",
"141 784 OFFCURVE",
"196 784 CURVE SMOOTH",
"243 784 OFFCURVE",
"282 747 OFFCURVE",
"282 701 CURVE SMOOTH",
"282 649 OFFCURVE",
"240 611 OFFCURVE",
"191 611 CURVE SMOOTH",
"174 611 LINE",
"174 573 LINE",
"174 573 OFFCURVE",
"182 575 OFFCURVE",
"191 575 CURVE SMOOTH",
"242 575 OFFCURVE",
"287 534 OFFCURVE",
"287 479 CURVE SMOOTH",
"287 428 OFFCURVE",
"252 391 OFFCURVE",
"191 391 CURVE SMOOTH",
"121 391 OFFCURVE",
"94 433 OFFCURVE",
"87 482 CURVE",
"38 463 LINE",
"46 409 OFFCURVE",
"83 343 OFFCURVE",
"191 343 CURVE SMOOTH",
"284 343 OFFCURVE",
"340 402 OFFCURVE",
"340 479 CURVE SMOOTH",
"340 533 OFFCURVE",
"310 579 OFFCURVE",
"263 595 CURVE",
"302 612 OFFCURVE",
"331 653 OFFCURVE",
"331 701 CURVE SMOOTH",
"331 772 OFFCURVE",
"272 828 OFFCURVE",
"197 828 CURVE SMOOTH",
"105 828 OFFCURVE",
"66 761 OFFCURVE",
"63 715 CURVE"
);
},
{
closed = 1;
nodes = (
"536 149 LINE",
"764 149 LINE",
"764 0 LINE",
"815 0 LINE",
"815 149 LINE",
"871 149 LINE",
"871 196 LINE",
"815 196 LINE",
"815 479 LINE",
"762 479 LINE",
"536 171 LINE"
);
},
{
closed = 1;
nodes = (
"607 196 LINE",
"764 406 LINE",
"764 196 LINE"
);
}
);
width = 911;
}
);
note = threequarters;
rightKerningGroup = space;
unicode = 00BE;
},
{
glyphname = questiondown;
layers = (
{
hints = (
{
horizontal = 1;
place = "{-275, 80}";
type = Stem;
},
{
horizontal = 1;
place = "{144, 74}";
type = Stem;
},
{
horizontal = 1;
place = "{460, 122}";
type = Stem;
},
{
place = "{40, 84}";
type = Stem;
},
{
place = "{273, 82}";
type = Stem;
},
{
place = "{253, 122}";
type = Stem;
}
);
layerId = "46919C11-A143-4288-9F65-95BCCFE886E8";
paths = (
{
closed = 1;
nodes = (
"476 -30 LINE",
"471 -126 OFFCURVE",
"410 -195 OFFCURVE",
"297 -195 CURVE SMOOTH",
"186 -195 OFFCURVE",
"124 -121 OFFCURVE",
"124 -29 CURVE SMOOTH",
"124 62 OFFCURVE",
"183 144 OFFCURVE",
"305 144 CURVE SMOOTH",
"327 144 OFFCURVE",
"341 143 OFFCURVE",
"355 139 CURVE",
"355 346 LINE",
"273 346 LINE",
"273 218 LINE",
"116 204 OFFCURVE",
"40 84 OFFCURVE",
"40 -29 CURVE SMOOTH",
"40 -148 OFFCURVE",
"130 -275 OFFCURVE",
"297 -275 CURVE SMOOTH",
"455 -275 OFFCURVE",
"544 -171 OFFCURVE",
"551 -43 CURVE"
);
},
{
closed = 1;
nodes = (
"348 460 OFFCURVE",
"375 487 OFFCURVE",
"375 521 CURVE SMOOTH",
"375 555 OFFCURVE",
"348 582 OFFCURVE",
"314 582 CURVE SMOOTH",
"280 582 OFFCURVE",
"253 555 OFFCURVE",
"253 521 CURVE SMOOTH",
"253 487 OFFCURVE",
"280 460 OFFCURVE",
"314 460 CURVE SMOOTH"
);
}
);
width = 583;
}
);
note = questiondown;
rightKerningGroup = space;
unicode = 00BF;
},
{
glyphname = Agrave;
layers = (
{
hints = (
{
horizontal = 1;
place = "{0, 21}";
target = up;
type = BottomGhost;
},
{
horizontal = 1;
place = "{249, 81}";
type = Stem;
},
{
horizontal = 1;
place = "{825, -20}";
target = down;
type = TopGhost;
},
{
horizontal = 1;
place = "{899, 21}";
target = up;
type = BottomGhost;
},
{
horizontal = 1;
place = "{1064, -20}";
target = down;
type = TopGhost;
},
{
place = "{-10, 736}";
type = Stem;
},
{
place = "{191, 198}";
type = Stem;
}
);
layerId = "46919C11-A143-4288-9F65-95BCCFE886E8";
paths = (
{
closed = 1;
nodes = (
"316 825 LINE",
"-10 0 LINE",
"89 0 LINE",
"183 249 LINE",
"533 249 LINE",
"627 0 LINE",
"726 0 LINE",
"400 825 LINE"
);
},
{
closed = 1;
nodes = (
"215 330 LINE",
"358 703 LINE",
"501 330 LINE"
);
},
{
closed = 1;
nodes = (
"191 999 LINE",
"358 899 LINE",
"389 943 LINE",
"240 1064 LINE"
);
}
);
width = 716;
}
);
leftKerningGroup = A;
note = Agrave;
rightKerningGroup = space;
unicode = 00C0;
},
{
glyphname = Aacute;
layers = (
{
hints = (
{
horizontal = 1;
place = "{0, 21}";
target = up;
type = BottomGhost;
},
{
horizontal = 1;
place = "{249, 81}";
type = Stem;
},
{
horizontal = 1;
place = "{825, -20}";
target = down;
type = TopGhost;
},
{
horizontal = 1;
place = "{900, 21}";
target = up;
type = BottomGhost;
},
{
horizontal = 1;
place = "{1065, -20}";
target = down;
type = TopGhost;
},
{
place = "{-10, 736}";
type = Stem;
},
{
place = "{327, 198}";
type = Stem;
}
);
layerId = "46919C11-A143-4288-9F65-95BCCFE886E8";
paths = (
{
closed = 1;
nodes = (
"316 825 LINE",
"-10 0 LINE",
"89 0 LINE",
"183 249 LINE",
"533 249 LINE",
"627 0 LINE",
"726 0 LINE",
"400 825 LINE"
);
},
{
closed = 1;
nodes = (
"215 330 LINE",
"358 703 LINE",
"501 330 LINE"
);
},
{
closed = 1;
nodes = (
"327 944 LINE",
"358 900 LINE",
"525 1000 LINE",
"476 1065 LINE"
);
}
);
width = 716;
}
);
leftKerningGroup = A;
note = Aacute;
rightKerningGroup = space;
unicode = 00C1;
},
{
glyphname = Acircumflex;
layers = (
{
hints = (
{
horizontal = 1;
place = "{0, -20}";
target = down;
type = TopGhost;
},
{
horizontal = 1;
place = "{249, 81}";
type = Stem;
},
{
horizontal = 1;
place = "{825, -20}";
target = down;
type = TopGhost;
},
{
horizontal = 1;
place = "{899, 21}";
target = up;
type = BottomGhost;
},
{
horizontal = 1;
place = "{1087, -20}";
target = down;
type = TopGhost;
},
{
place = "{-10, 737}";
type = Stem;
},
{
place = "{169, 378}";
type = Stem;
}
);
layerId = "46919C11-A143-4288-9F65-95BCCFE886E8";
paths = (
{
closed = 1;
nodes = (
"316 825 LINE",
"-10 0 LINE",
"89 0 LINE",
"183 249 LINE",
"533 249 LINE",
"627 0 LINE",
"726 0 LINE",
"400 825 LINE"
);
},
{
closed = 1;
nodes = (
"215 330 LINE",
"358 703 LINE",
"501 330 LINE"
);
},
{
closed = 1;
nodes = (
"169 948 LINE",
"205 899 LINE",
"358 1011 LINE",
"511 899 LINE",
"547 948 LINE",
"358 1087 LINE"
);
}
);
width = 716;
}
);
leftKerningGroup = A;
note = Acircumflex;
rightKerningGroup = space;
unicode = 00C2;
},
{
glyphname = Atilde;
layers = (
{
hints = (
{
horizontal = 1;
place = "{0, 21}";
target = up;
type = BottomGhost;
},
{
horizontal = 1;
place = "{249, 81}";
type = Stem;
},
{
horizontal = 1;
place = "{825, -20}";
target = down;
type = TopGhost;
},
{
place = "{-10, 736}";
type = Stem;
},
{
horizontal = 1;
place = "{960, 72}";
type = Stem;
},
{
horizontal = 1;
place = "{1043, 72}";
type = Stem;
},
{
place = "{99, 518}";
type = Stem;
}
);
layerId = "46919C11-A143-4288-9F65-95BCCFE886E8";
paths = (
{
closed = 1;
nodes = (
"316 825 LINE",
"-10 0 LINE",
"89 0 LINE",
"183 249 LINE",
"533 249 LINE",
"627 0 LINE",
"726 0 LINE",
"400 825 LINE"
);
},
{
closed = 1;
nodes = (
"215 330 LINE",
"358 703 LINE",
"501 330 LINE"
);
},
{
closed = 1;
nodes = (
"148 965 LINE",
"162 990 OFFCURVE",
"197 1043 OFFCURVE",
"253 1043 CURVE SMOOTH",
"275 1043 OFFCURVE",
"305 1034 OFFCURVE",
"338 1008 CURVE SMOOTH",
"383 974 OFFCURVE",
"423 960 OFFCURVE",
"463 960 CURVE SMOOTH",
"546 960 OFFCURVE",
"600 1039 OFFCURVE",
"617 1067 CURVE",
"568 1110 LINE",
"554 1085 OFFCURVE",
"519 1032 OFFCURVE",
"463 1032 CURVE SMOOTH",
"441 1032 OFFCURVE",
"411 1041 OFFCURVE",
"378 1067 CURVE SMOOTH",
"333 1101 OFFCURVE",
"293 1115 OFFCURVE",
"253 1115 CURVE SMOOTH",
"170 1115 OFFCURVE",
"116 1036 OFFCURVE",
"99 1008 CURVE"
);
}
);
width = 716;
}
);
leftKerningGroup = A;
note = Atilde;
rightKerningGroup = space;
unicode = 00C3;
},
{
glyphname = Adieresis;
layers = (
{
hints = (
{
horizontal = 1;
place = "{0, 21}";
target = up;
type = BottomGhost;
},
{
horizontal = 1;
place = "{249, 81}";
type = Stem;
},
{
horizontal = 1;
place = "{825, -20}";
target = down;
type = TopGhost;
},
{
place = "{-10, 737}";
type = Stem;
},
{
horizontal = 1;
place = "{959, 102}";
type = Stem;
},
{
place = "{190, 102}";
type = Stem;
},
{
place = "{424, 102}";
type = Stem;
}
);
layerId = "46919C11-A143-4288-9F65-95BCCFE886E8";
paths = (
{
closed = 1;
nodes = (
"316 825 LINE",
"-10 0 LINE",
"89 0 LINE",
"183 249 LINE",
"533 249 LINE",
"627 0 LINE",
"726 0 LINE",
"400 825 LINE"
);
},
{
closed = 1;
nodes = (
"215 330 LINE",
"358 703 LINE",
"501 330 LINE"
);
},
{
closed = 1;
nodes = (
"213 1061 OFFCURVE",
"190 1038 OFFCURVE",
"190 1010 CURVE SMOOTH",
"190 982 OFFCURVE",
"213 959 OFFCURVE",
"241 959 CURVE SMOOTH",
"269 959 OFFCURVE",
"292 982 OFFCURVE",
"292 1010 CURVE SMOOTH",
"292 1038 OFFCURVE",
"269 1061 OFFCURVE",
"241 1061 CURVE SMOOTH"
);
},
{
closed = 1;
nodes = (
"447 1061 OFFCURVE",
"424 1038 OFFCURVE",
"424 1010 CURVE SMOOTH",
"424 982 OFFCURVE",
"447 959 OFFCURVE",
"475 959 CURVE SMOOTH",
"503 959 OFFCURVE",
"526 982 OFFCURVE",
"526 1010 CURVE SMOOTH",
"526 1038 OFFCURVE",
"503 1061 OFFCURVE",
"475 1061 CURVE SMOOTH"
);
}
);
width = 716;
}
);
leftKerningGroup = A;
note = Adieresis;
rightKerningGroup = space;
unicode = 00C4;
},
{
glyphname = Aring;
layers = (
{
hints = (
{
horizontal = 1;
place = "{0, 21}";
target = up;
type = BottomGhost;
},
{
horizontal = 1;
place = "{249, 81}";
type = Stem;
},
{
horizontal = 1;
place = "{825, -20}";
target = down;
type = TopGhost;
},
{
horizontal = 1;
place = "{936, 47}";
type = Stem;
},
{
horizontal = 1;
place = "{1106, 47}";
type = Stem;
},
{
place = "{-10, 737}";
type = Stem;
},
{
place = "{235, 56}";
type = Stem;
},
{
place = "{425, 56}";
type = Stem;
}
);
layerId = "46919C11-A143-4288-9F65-95BCCFE886E8";
paths = (
{
closed = 1;
nodes = (
"316 825 LINE",
"-10 0 LINE",
"89 0 LINE",
"183 249 LINE",
"533 249 LINE",
"627 0 LINE",
"726 0 LINE",
"400 825 LINE"
);
},
{
closed = 1;
nodes = (
"215 330 LINE",
"358 703 LINE",
"501 330 LINE"
);
},
{
closed = 1;
nodes = (
"235 981 OFFCURVE",
"285 936 OFFCURVE",
"358 936 CURVE SMOOTH",
"430 936 OFFCURVE",
"481 981 OFFCURVE",
"481 1045 CURVE SMOOTH",
"481 1108 OFFCURVE",
"427 1153 OFFCURVE",
"358 1153 CURVE SMOOTH",
"290 1153 OFFCURVE",
"235 1108 OFFCURVE",
"235 1045 CURVE SMOOTH"
);
},
{
closed = 1;
nodes = (
"291 1080 OFFCURVE",
"320 1106 OFFCURVE",
"358 1106 CURVE SMOOTH",
"396 1106 OFFCURVE",
"425 1080 OFFCURVE",
"425 1045 CURVE SMOOTH",
"425 1009 OFFCURVE",
"398 983 OFFCURVE",
"358 983 CURVE SMOOTH",
"318 983 OFFCURVE",
"291 1009 OFFCURVE",
"291 1045 CURVE SMOOTH"
);
}
);
width = 716;
}
);
leftKerningGroup = A;
note = Aring;
rightKerningGroup = space;
unicode = 00C5;
},
{
glyphname = AE;
layers = (
{
hints = (
{
horizontal = 1;
place = "{0, 81}";
type = Stem;
},
{
horizontal = 1;
place = "{249, 81}";
type = Stem;
},
{
horizontal = 1;
place = "{373, 81}";
type = Stem;
},
{
horizontal = 1;
place = "{744, 81}";
type = Stem;
},
{
place = "{373, 92}";
type = Stem;
}
);
layerId = "46919C11-A143-4288-9F65-95BCCFE886E8";
paths = (
{
closed = 1;
nodes = (
"330 825 LINE",
"-13 0 LINE",
"86 0 LINE",
"184 249 LINE",
"373 249 LINE",
"373 0 LINE",
"797 0 LINE",
"797 81 LINE",
"465 81 LINE",
"465 373 LINE",
"785 373 LINE",
"785 454 LINE",
"465 454 LINE",
"465 744 LINE",
"797 744 LINE",
"797 825 LINE"
);
},
{
closed = 1;
nodes = (
"216 330 LINE",
"373 727 LINE",
"373 330 LINE"
);
}
);
width = 857;
}
);
note = AE;
rightKerningGroup = space;
unicode = 00C6;
},
{
glyphname = Ccedilla;
layers = (
{
hints = (
{
horizontal = 1;
place = "{-294, 52}";
type = Stem;
},
{
horizontal = 1;
place = "{-112, 37}";
type = Stem;
},
{
horizontal = 1;
place = "{-16, 91}";
type = Stem;
},
{
horizontal = 1;
place = "{749, 91}";
type = Stem;
},
{
place = "{54, 100}";
type = Stem;
},
{
place = "{528, 57}";
type = Stem;
}
);
layerId = "46919C11-A143-4288-9F65-95BCCFE886E8";
paths = (
{
closed = 1;
nodes = (
"382 -126 LINE",
"388 -130 LINE",
"403 -120 OFFCURVE",
"430 -112 OFFCURVE",
"456 -112 CURVE SMOOTH",
"495 -112 OFFCURVE",
"528 -138 OFFCURVE",
"528 -179 CURVE SMOOTH",
"528 -220 OFFCURVE",
"493 -242 OFFCURVE",
"451 -242 CURVE SMOOTH",
"403 -242 OFFCURVE",
"367 -211 OFFCURVE",
"354 -188 CURVE",
"312 -217 LINE",
"327 -245 OFFCURVE",
"380 -294 OFFCURVE",
"451 -294 CURVE SMOOTH",
"537 -294 OFFCURVE",
"585 -242 OFFCURVE",
"585 -179 CURVE SMOOTH",
"585 -115 OFFCURVE",
"531 -75 OFFCURVE",
"475 -75 CURVE SMOOTH",
"465 -75 OFFCURVE",
"455 -75 OFFCURVE",
"445 -77 CURVE",
"465 -15 LINE",
"473 -15 OFFCURVE",
"481 -16 OFFCURVE",
"489 -16 CURVE SMOOTH",
"623 -16 OFFCURVE",
"714 34 OFFCURVE",
"757 68 CURVE",
"715 145 LINE",
"675 113 OFFCURVE",
"597 75 OFFCURVE",
"501 75 CURVE SMOOTH",
"285 75 OFFCURVE",
"154 233 OFFCURVE",
"154 412 CURVE SMOOTH",
"154 591 OFFCURVE",
"285 749 OFFCURVE",
"501 749 CURVE SMOOTH",
"597 749 OFFCURVE",
"675 711 OFFCURVE",
"715 679 CURVE",
"757 756 LINE",
"714 790 OFFCURVE",
"623 840 OFFCURVE",
"489 840 CURVE SMOOTH",
"245 840 OFFCURVE",
"54 651 OFFCURVE",
"54 412 CURVE SMOOTH",
"54 196 OFFCURVE",
"209 21 OFFCURVE",
"419 -11 CURVE"
);
}
);
width = 797;
}
);
leftKerningGroup = C;
note = Ccedilla;
rightKerningGroup = C;
unicode = 00C7;
},
{
glyphname = Egrave;
layers = (
{
hints = (
{
horizontal = 1;
place = "{0, 81}";
type = Stem;
},
{
horizontal = 1;
place = "{373, 81}";
type = Stem;
},
{
horizontal = 1;
place = "{744, 81}";
type = Stem;
},
{
horizontal = 1;
place = "{900, 21}";
target = up;
type = BottomGhost;
},
{
horizontal = 1;
place = "{1065, -20}";
target = down;
type = TopGhost;
},
{
place = "{94, 92}";
type = Stem;
},
{
place = "{177, 198}";
type = Stem;
}
);
layerId = "46919C11-A143-4288-9F65-95BCCFE886E8";
paths = (
{
closed = 1;
nodes = (
"94 825 LINE",
"94 0 LINE",
"518 0 LINE",
"518 81 LINE",
"186 81 LINE",
"186 373 LINE",
"506 373 LINE",
"506 454 LINE",
"186 454 LINE",
"186 744 LINE",
"518 744 LINE",
"518 825 LINE"
);
},
{
closed = 1;
nodes = (
"177 1000 LINE",
"344 900 LINE",
"375 944 LINE",
"226 1065 LINE"
);
}
);
width = 578;
}
);
note = Egrave;
rightKerningGroup = E;
unicode = 00C8;
},
{
glyphname = Eacute;
layers = (
{
hints = (
{
horizontal = 1;
place = "{0, 81}";
type = Stem;
},
{
horizontal = 1;
place = "{373, 81}";
type = Stem;
},
{
horizontal = 1;
place = "{744, 81}";
type = Stem;
},
{
horizontal = 1;
place = "{900, 21}";
target = up;
type = BottomGhost;
},
{
horizontal = 1;
place = "{1065, -20}";
target = down;
type = TopGhost;
},
{
place = "{94, 92}";
type = Stem;
},
{
place = "{237, 198}";
type = Stem;
}
);
layerId = "46919C11-A143-4288-9F65-95BCCFE886E8";
paths = (
{
closed = 1;
nodes = (
"94 825 LINE",
"94 0 LINE",
"518 0 LINE",
"518 81 LINE",
"186 81 LINE",
"186 373 LINE",
"506 373 LINE",
"506 454 LINE",
"186 454 LINE",
"186 744 LINE",
"518 744 LINE",
"518 825 LINE"
);
},
{
closed = 1;
nodes = (
"237 944 LINE",
"268 900 LINE",
"435 1000 LINE",
"386 1065 LINE"
);
}
);
width = 578;
}
);
note = Eacute;
rightKerningGroup = E;
unicode = 00C9;
},
{
glyphname = Ecircumflex;
layers = (
{
hints = (
{
horizontal = 1;
place = "{0, 81}";
type = Stem;
},
{
horizontal = 1;
place = "{373, 81}";
type = Stem;
},
{
horizontal = 1;
place = "{744, 81}";
type = Stem;
},
{
place = "{94, 92}";
type = Stem;
},
{
horizontal = 1;
place = "{899, 21}";
target = up;
type = BottomGhost;
},
{
horizontal = 1;
place = "{1087, -20}";
target = down;
type = TopGhost;
},
{
place = "{117, 378}";
type = Stem;
}
);
layerId = "46919C11-A143-4288-9F65-95BCCFE886E8";
paths = (
{
closed = 1;
nodes = (
"94 825 LINE",
"94 0 LINE",
"518 0 LINE",
"518 81 LINE",
"186 81 LINE",
"186 373 LINE",
"506 373 LINE",
"506 454 LINE",
"186 454 LINE",
"186 744 LINE",
"518 744 LINE",
"518 825 LINE"
);
},
{
closed = 1;
nodes = (
"117 948 LINE",
"153 899 LINE",
"306 1011 LINE",
"459 899 LINE",
"495 948 LINE",
"306 1087 LINE"
);
}
);
width = 578;
}
);
note = Ecircumflex;
rightKerningGroup = E;
unicode = 00CA;
},
{
glyphname = Edieresis;
layers = (
{
hints = (
{
horizontal = 1;
place = "{0, 81}";
type = Stem;
},
{
horizontal = 1;
place = "{373, 81}";
type = Stem;
},
{
horizontal = 1;
place = "{744, 81}";
type = Stem;
},
{
place = "{94, 92}";
type = Stem;
},
{
horizontal = 1;
place = "{960, 102}";
type = Stem;
},
{
place = "{138, 102}";
type = Stem;
},
{
place = "{372, 102}";
type = Stem;
}
);
layerId = "46919C11-A143-4288-9F65-95BCCFE886E8";
paths = (
{
closed = 1;
nodes = (
"94 825 LINE",
"94 0 LINE",
"518 0 LINE",
"518 81 LINE",
"186 81 LINE",
"186 373 LINE",
"506 373 LINE",
"506 454 LINE",
"186 454 LINE",
"186 744 LINE",
"518 744 LINE",
"518 825 LINE"
);
},
{
closed = 1;
nodes = (
"161 1062 OFFCURVE",
"138 1039 OFFCURVE",
"138 1011 CURVE SMOOTH",
"138 983 OFFCURVE",
"161 960 OFFCURVE",
"189 960 CURVE SMOOTH",
"217 960 OFFCURVE",
"240 983 OFFCURVE",
"240 1011 CURVE SMOOTH",
"240 1039 OFFCURVE",
"217 1062 OFFCURVE",
"189 1062 CURVE SMOOTH"
);
},
{
closed = 1;
nodes = (
"395 1062 OFFCURVE",
"372 1039 OFFCURVE",
"372 1011 CURVE SMOOTH",
"372 983 OFFCURVE",
"395 960 OFFCURVE",
"423 960 CURVE SMOOTH",
"451 960 OFFCURVE",
"474 983 OFFCURVE",
"474 1011 CURVE SMOOTH",
"474 1039 OFFCURVE",
"451 1062 OFFCURVE",
"423 1062 CURVE SMOOTH"
);
}
);
width = 578;
}
);
note = Edieresis;
rightKerningGroup = E;
unicode = 00CB;
},
{
glyphname = Igrave;
layers = (
{
hints = (
{
horizontal = 1;
place = "{0, 21}";
target = up;
type = BottomGhost;
},
{
horizontal = 1;
place = "{825, -20}";
target = down;
type = TopGhost;
},
{
place = "{94, 92}";
type = Stem;
},
{
horizontal = 1;
place = "{899, 21}";
target = up;
type = BottomGhost;
},
{
horizontal = 1;
place = "{1064, -20}";
target = down;
type = TopGhost;
},
{
place = "{-27, 198}";
type = Stem;
}
);
layerId = "46919C11-A143-4288-9F65-95BCCFE886E8";
paths = (
{
closed = 1;
nodes = (
"94 825 LINE",
"94 0 LINE",
"186 0 LINE",
"186 825 LINE"
);
},
{
closed = 1;
nodes = (
"-27 999 LINE",
"140 899 LINE",
"171 943 LINE",
"22 1064 LINE"
);
}
);
width = 280;
}
);
leftKerningGroup = I;
note = Igrave;
rightKerningGroup = space;
unicode = 00CC;
},
{
glyphname = Iacute;
layers = (
{
hints = (
{
horizontal = 1;
place = "{0, 21}";
target = up;
type = BottomGhost;
},
{
horizontal = 1;
place = "{825, -20}";
target = down;
type = TopGhost;
},
{
horizontal = 1;
place = "{900, 21}";
target = up;
type = BottomGhost;
},
{
horizontal = 1;
place = "{1065, -20}";
target = down;
type = TopGhost;
},
{
place = "{94, 92}";
type = Stem;
},
{
place = "{109, 198}";
type = Stem;
}
);
layerId = "46919C11-A143-4288-9F65-95BCCFE886E8";
paths = (
{
closed = 1;
nodes = (
"94 825 LINE",
"94 0 LINE",
"186 0 LINE",
"186 825 LINE"
);
},
{
closed = 1;
nodes = (
"109 944 LINE",
"140 900 LINE",
"307 1000 LINE",
"258 1065 LINE"
);
}
);
width = 280;
}
);
leftKerningGroup = I;
note = Iacute;
rightKerningGroup = space;
unicode = 00CD;
},
{
glyphname = Icircumflex;
layers = (
{
hints = (
{
horizontal = 1;
place = "{0, 21}";
target = up;
type = BottomGhost;
},
{
horizontal = 1;
place = "{825, -20}";
target = down;
type = TopGhost;
},
{
place = "{94, 92}";
type = Stem;
},
{
horizontal = 1;
place = "{899, 21}";
target = up;
type = BottomGhost;
},
{
horizontal = 1;
place = "{1087, -20}";
target = down;
type = TopGhost;
},
{
place = "{-49, 378}";
type = Stem;
}
);
layerId = "46919C11-A143-4288-9F65-95BCCFE886E8";
paths = (
{
closed = 1;
nodes = (
"94 825 LINE",
"94 0 LINE",
"186 0 LINE",
"186 825 LINE"
);
},
{
closed = 1;
nodes = (
"-49 948 LINE",
"-13 899 LINE",
"140 1011 LINE",
"293 899 LINE",
"329 948 LINE",
"140 1087 LINE"
);
}
);
width = 280;
}
);
leftKerningGroup = Icircumflex;
note = Icircumflex;
rightKerningGroup = Icircumflex;
unicode = 00CE;
},
{
glyphname = Idieresis;
layers = (
{
hints = (
{
horizontal = 1;
place = "{0, 21}";
target = up;
type = BottomGhost;
},
{
horizontal = 1;
place = "{825, -20}";
target = down;
type = TopGhost;
},
{
place = "{94, 92}";
type = Stem;
},
{
horizontal = 1;
place = "{960, 102}";
type = Stem;
},
{
place = "{-28, 102}";
type = Stem;
},
{
place = "{206, 102}";
type = Stem;
}
);
layerId = "46919C11-A143-4288-9F65-95BCCFE886E8";
paths = (
{
closed = 1;
nodes = (
"94 825 LINE",
"94 0 LINE",
"186 0 LINE",
"186 825 LINE"
);
},
{
closed = 1;
nodes = (
"-5 1062 OFFCURVE",
"-28 1039 OFFCURVE",
"-28 1011 CURVE SMOOTH",
"-28 983 OFFCURVE",
"-5 960 OFFCURVE",
"23 960 CURVE SMOOTH",
"51 960 OFFCURVE",
"74 983 OFFCURVE",
"74 1011 CURVE SMOOTH",
"74 1039 OFFCURVE",
"51 1062 OFFCURVE",
"23 1062 CURVE SMOOTH"
);
},
{
closed = 1;
nodes = (
"229 1062 OFFCURVE",
"206 1039 OFFCURVE",
"206 1011 CURVE SMOOTH",
"206 983 OFFCURVE",
"229 960 OFFCURVE",
"257 960 CURVE SMOOTH",
"285 960 OFFCURVE",
"308 983 OFFCURVE",
"308 1011 CURVE SMOOTH",
"308 1039 OFFCURVE",
"285 1062 OFFCURVE",
"257 1062 CURVE SMOOTH"
);
}
);
width = 280;
}
);
leftKerningGroup = Icircumflex;
note = Idieresis;
rightKerningGroup = Icircumflex;
unicode = 00CF;
},
{
glyphname = Eth;
layers = (
{
hints = (
{
place = "{94, 92}";
type = Stem;
},
{
place = "{606, 97}";
type = Stem;
},
{
place = "{12, 379}";
type = Stem;
}
);
layerId = "46919C11-A143-4288-9F65-95BCCFE886E8";
paths = (
{
closed = 1;
nodes = (
"94 825 LINE",
"94 450 LINE",
"12 450 LINE",
"12 375 LINE",
"94 375 LINE",
"94 0 LINE",
"287 0 LINE SMOOTH",
"514 0 OFFCURVE",
"703 172 OFFCURVE",
"703 413 CURVE SMOOTH",
"703 653 OFFCURVE",
"514 825 OFFCURVE",
"287 825 CURVE SMOOTH"
);
},
{
closed = 1;
nodes = (
"186 743 LINE",
"278 743 LINE SMOOTH",
"459 743 OFFCURVE",
"606 602 OFFCURVE",
"606 413 CURVE SMOOTH",
"606 222 OFFCURVE",
"460 82 OFFCURVE",
"278 82 CURVE SMOOTH",
"186 82 LINE",
"186 375 LINE",
"391 375 LINE",
"391 450 LINE",
"186 450 LINE"
);
}
);
width = 757;
}
);
note = Eth;
rightKerningGroup = space;
unicode = 00D0;
},
{
glyphname = Ntilde;
layers = (
{
hints = (
{
horizontal = 1;
place = "{0, 21}";
target = up;
type = BottomGhost;
},
{
horizontal = 1;
place = "{825, -20}";
target = down;
type = TopGhost;
},
{
place = "{94, 92}";
type = Stem;
},
{
place = "{614, 92}";
type = Stem;
},
{
horizontal = 1;
place = "{961, 72}";
type = Stem;
},
{
horizontal = 1;
place = "{1044, 72}";
type = Stem;
},
{
place = "{141, 518}";
type = Stem;
}
);
layerId = "46919C11-A143-4288-9F65-95BCCFE886E8";
paths = (
{
closed = 1;
nodes = (
"94 825 LINE",
"94 0 LINE",
"186 0 LINE",
"186 669 LINE",
"614 0 LINE",
"706 0 LINE",
"706 825 LINE",
"614 825 LINE",
"614 156 LINE",
"186 825 LINE"
);
},
{
closed = 1;
nodes = (
"190 966 LINE",
"204 991 OFFCURVE",
"239 1044 OFFCURVE",
"295 1044 CURVE SMOOTH",
"317 1044 OFFCURVE",
"347 1035 OFFCURVE",
"380 1009 CURVE SMOOTH",
"425 975 OFFCURVE",
"465 961 OFFCURVE",
"505 961 CURVE SMOOTH",
"588 961 OFFCURVE",
"642 1040 OFFCURVE",
"659 1068 CURVE",
"610 1111 LINE",
"596 1086 OFFCURVE",
"561 1033 OFFCURVE",
"505 1033 CURVE SMOOTH",
"483 1033 OFFCURVE",
"453 1042 OFFCURVE",
"420 1068 CURVE SMOOTH",
"375 1102 OFFCURVE",
"335 1116 OFFCURVE",
"295 1116 CURVE SMOOTH",
"212 1116 OFFCURVE",
"158 1037 OFFCURVE",
"141 1009 CURVE"
);
}
);
width = 800;
}
);
note = Ntilde;
rightKerningGroup = space;
unicode = 00D1;
},
{
glyphname = Ograve;
layers = (
{
hints = (
{
horizontal = 1;
place = "{900, 21}";
target = up;
type = BottomGhost;
},
{
horizontal = 1;
place = "{1065, -20}";
target = down;
type = TopGhost;
},
{
place = "{341, 198}";
type = Stem;
},
{
horizontal = 1;
place = "{-16, 89}";
type = Stem;
},
{
horizontal = 1;
place = "{751, 89}";
type = Stem;
},
{
place = "{54, 99}";
type = Stem;
},
{
place = "{787, 99}";
type = Stem;
}
);
layerId = "46919C11-A143-4288-9F65-95BCCFE886E8";
paths = (
{
closed = 1;
nodes = (
"341 1000 LINE",
"508 900 LINE",
"539 944 LINE",
"390 1065 LINE"
);
},
{
closed = 1;
nodes = (
"153 597 OFFCURVE",
"285 751 OFFCURVE",
"470 751 CURVE SMOOTH",
"655 751 OFFCURVE",
"787 597 OFFCURVE",
"787 412 CURVE SMOOTH",
"787 227 OFFCURVE",
"655 73 OFFCURVE",
"470 73 CURVE SMOOTH",
"285 73 OFFCURVE",
"153 227 OFFCURVE",
"153 412 CURVE SMOOTH"
);
},
{
closed = 1;
nodes = (
"54 175 OFFCURVE",
"233 -16 OFFCURVE",
"470 -16 CURVE SMOOTH",
"707 -16 OFFCURVE",
"886 175 OFFCURVE",
"886 412 CURVE SMOOTH",
"886 649 OFFCURVE",
"707 840 OFFCURVE",
"470 840 CURVE SMOOTH",
"233 840 OFFCURVE",
"54 649 OFFCURVE",
"54 412 CURVE SMOOTH"
);
}
);
width = 940;
}
);
leftKerningGroup = O;
note = Ograve;
rightKerningGroup = O;
unicode = 00D2;
},
{
glyphname = Oacute;
layers = (
{
hints = (
{
horizontal = 1;
place = "{-16, 89}";
type = Stem;
},
{
horizontal = 1;
place = "{751, 89}";
type = Stem;
},
{
horizontal = 1;
place = "{900, 21}";
target = up;
type = BottomGhost;
},
{
horizontal = 1;
place = "{1065, -20}";
target = down;
type = TopGhost;
},
{
place = "{54, 99}";
type = Stem;
},
{
place = "{401, 198}";
type = Stem;
},
{
place = "{787, 99}";
type = Stem;
}
);
layerId = "46919C11-A143-4288-9F65-95BCCFE886E8";
paths = (
{
closed = 1;
nodes = (
"401 944 LINE",
"432 900 LINE",
"599 1000 LINE",
"550 1065 LINE"
);
},
{
closed = 1;
nodes = (
"153 597 OFFCURVE",
"285 751 OFFCURVE",
"470 751 CURVE SMOOTH",
"655 751 OFFCURVE",
"787 597 OFFCURVE",
"787 412 CURVE SMOOTH",
"787 227 OFFCURVE",
"655 73 OFFCURVE",
"470 73 CURVE SMOOTH",
"285 73 OFFCURVE",
"153 227 OFFCURVE",
"153 412 CURVE SMOOTH"
);
},
{
closed = 1;
nodes = (
"54 175 OFFCURVE",
"233 -16 OFFCURVE",
"470 -16 CURVE SMOOTH",
"707 -16 OFFCURVE",
"886 175 OFFCURVE",
"886 412 CURVE SMOOTH",
"886 649 OFFCURVE",
"707 840 OFFCURVE",
"470 840 CURVE SMOOTH",
"233 840 OFFCURVE",
"54 649 OFFCURVE",
"54 412 CURVE SMOOTH"
);
}
);
width = 940;
}
);
leftKerningGroup = O;
note = Oacute;
rightKerningGroup = O;
unicode = 00D3;
},
{
glyphname = Ocircumflex;
layers = (
{
hints = (
{
horizontal = 1;
place = "{899, 21}";
target = up;
type = BottomGhost;
},
{
horizontal = 1;
place = "{1087, -20}";
target = down;
type = TopGhost;
},
{
place = "{281, 378}";
type = Stem;
},
{
horizontal = 1;
place = "{-16, 89}";
type = Stem;
},
{
horizontal = 1;
place = "{751, 89}";
type = Stem;
},
{
place = "{54, 99}";
type = Stem;
},
{
place = "{787, 99}";
type = Stem;
}
);
layerId = "46919C11-A143-4288-9F65-95BCCFE886E8";
paths = (
{
closed = 1;
nodes = (
"281 948 LINE",
"317 899 LINE",
"470 1011 LINE",
"623 899 LINE",
"659 948 LINE",
"470 1087 LINE"
);
},
{
closed = 1;
nodes = (
"153 597 OFFCURVE",
"285 751 OFFCURVE",
"470 751 CURVE SMOOTH",
"655 751 OFFCURVE",
"787 597 OFFCURVE",
"787 412 CURVE SMOOTH",
"787 227 OFFCURVE",
"655 73 OFFCURVE",
"470 73 CURVE SMOOTH",
"285 73 OFFCURVE",
"153 227 OFFCURVE",
"153 412 CURVE SMOOTH"
);
},
{
closed = 1;
nodes = (
"54 175 OFFCURVE",
"233 -16 OFFCURVE",
"470 -16 CURVE SMOOTH",
"707 -16 OFFCURVE",
"886 175 OFFCURVE",
"886 412 CURVE SMOOTH",
"886 649 OFFCURVE",
"707 840 OFFCURVE",
"470 840 CURVE SMOOTH",
"233 840 OFFCURVE",
"54 649 OFFCURVE",
"54 412 CURVE SMOOTH"
);
}
);
width = 940;
}
);
leftKerningGroup = O;
note = Ocircumflex;
rightKerningGroup = O;
unicode = 00D4;
},
{
glyphname = Otilde;
layers = (
{
hints = (
{
horizontal = 1;
place = "{954, 72}";
type = Stem;
},
{
horizontal = 1;
place = "{1037, 72}";
type = Stem;
},
{
place = "{211, 518}";
type = Stem;
},
{
horizontal = 1;
place = "{-16, 89}";
type = Stem;
},
{
horizontal = 1;
place = "{751, 89}";
type = Stem;
},
{
place = "{54, 99}";
type = Stem;
},
{
place = "{787, 99}";
type = Stem;
}
);
layerId = "46919C11-A143-4288-9F65-95BCCFE886E8";
paths = (
{
closed = 1;
nodes = (
"260 959 LINE",
"274 984 OFFCURVE",
"309 1037 OFFCURVE",
"365 1037 CURVE SMOOTH",
"387 1037 OFFCURVE",
"417 1028 OFFCURVE",
"450 1002 CURVE SMOOTH",
"495 968 OFFCURVE",
"535 954 OFFCURVE",
"575 954 CURVE SMOOTH",
"658 954 OFFCURVE",
"712 1033 OFFCURVE",
"729 1061 CURVE",
"680 1104 LINE",
"666 1079 OFFCURVE",
"631 1026 OFFCURVE",
"575 1026 CURVE SMOOTH",
"553 1026 OFFCURVE",
"523 1035 OFFCURVE",
"490 1061 CURVE SMOOTH",
"445 1095 OFFCURVE",
"405 1109 OFFCURVE",
"365 1109 CURVE SMOOTH",
"282 1109 OFFCURVE",
"228 1030 OFFCURVE",
"211 1002 CURVE"
);
},
{
closed = 1;
nodes = (
"153 597 OFFCURVE",
"285 751 OFFCURVE",
"470 751 CURVE SMOOTH",
"655 751 OFFCURVE",
"787 597 OFFCURVE",
"787 412 CURVE SMOOTH",
"787 227 OFFCURVE",
"655 73 OFFCURVE",
"470 73 CURVE SMOOTH",
"285 73 OFFCURVE",
"153 227 OFFCURVE",
"153 412 CURVE SMOOTH"
);
},
{
closed = 1;
nodes = (
"54 175 OFFCURVE",
"233 -16 OFFCURVE",
"470 -16 CURVE SMOOTH",
"707 -16 OFFCURVE",
"886 175 OFFCURVE",
"886 412 CURVE SMOOTH",
"886 649 OFFCURVE",
"707 840 OFFCURVE",
"470 840 CURVE SMOOTH",
"233 840 OFFCURVE",
"54 649 OFFCURVE",
"54 412 CURVE SMOOTH"
);
}
);
width = 940;
}
);
leftKerningGroup = O;
note = Otilde;
rightKerningGroup = O;
unicode = 00D5;
},
{
glyphname = Odieresis;
layers = (
{
hints = (
{
horizontal = 1;
place = "{960, 102}";
type = Stem;
},
{
place = "{302, 102}";
type = Stem;
},
{
place = "{536, 102}";
type = Stem;
},
{
horizontal = 1;
place = "{-16, 89}";
type = Stem;
},
{
horizontal = 1;
place = "{751, 89}";
type = Stem;
},
{
place = "{54, 99}";
type = Stem;
},
{
place = "{787, 99}";
type = Stem;
}
);
layerId = "46919C11-A143-4288-9F65-95BCCFE886E8";
paths = (
{
closed = 1;
nodes = (
"325 1062 OFFCURVE",
"302 1039 OFFCURVE",
"302 1011 CURVE SMOOTH",
"302 983 OFFCURVE",
"325 960 OFFCURVE",
"353 960 CURVE SMOOTH",
"381 960 OFFCURVE",
"404 983 OFFCURVE",
"404 1011 CURVE SMOOTH",
"404 1039 OFFCURVE",
"381 1062 OFFCURVE",
"353 1062 CURVE SMOOTH"
);
},
{
closed = 1;
nodes = (
"559 1062 OFFCURVE",
"536 1039 OFFCURVE",
"536 1011 CURVE SMOOTH",
"536 983 OFFCURVE",
"559 960 OFFCURVE",
"587 960 CURVE SMOOTH",
"615 960 OFFCURVE",
"638 983 OFFCURVE",
"638 1011 CURVE SMOOTH",
"638 1039 OFFCURVE",
"615 1062 OFFCURVE",
"587 1062 CURVE SMOOTH"
);
},
{
closed = 1;
nodes = (
"153 597 OFFCURVE",
"285 751 OFFCURVE",
"470 751 CURVE SMOOTH",
"655 751 OFFCURVE",
"787 597 OFFCURVE",
"787 412 CURVE SMOOTH",
"787 227 OFFCURVE",
"655 73 OFFCURVE",
"470 73 CURVE SMOOTH",
"285 73 OFFCURVE",
"153 227 OFFCURVE",
"153 412 CURVE SMOOTH"
);
},
{
closed = 1;
nodes = (
"54 175 OFFCURVE",
"233 -16 OFFCURVE",
"470 -16 CURVE SMOOTH",
"707 -16 OFFCURVE",
"886 175 OFFCURVE",
"886 412 CURVE SMOOTH",
"886 649 OFFCURVE",
"707 840 OFFCURVE",
"470 840 CURVE SMOOTH",
"233 840 OFFCURVE",
"54 649 OFFCURVE",
"54 412 CURVE SMOOTH"
);
}
);
width = 940;
}
);
leftKerningGroup = O;
note = Odieresis;
rightKerningGroup = O;
unicode = 00D6;
},
{
glyphname = Oslash;
layers = (
{
hints = (
{
horizontal = 1;
place = "{-8, 21}";
target = up;
type = BottomGhost;
},
{
horizontal = 1;
place = "{834, -20}";
target = down;
type = TopGhost;
},
{
place = "{54, 99}";
type = Stem;
},
{
place = "{787, 99}";
type = Stem;
},
{
horizontal = 1;
place = "{-16, 89}";
type = Stem;
},
{
horizontal = 1;
place = "{751, 89}";
type = Stem;
}
);
layerId = "46919C11-A143-4288-9F65-95BCCFE886E8";
paths = (
{
closed = 1;
nodes = (
"54 290 OFFCURVE",
"101 180 OFFCURVE",
"180 102 CURVE",
"128 36 LINE",
"186 -8 LINE",
"236 55 LINE",
"302 10 OFFCURVE",
"382 -16 OFFCURVE",
"470 -16 CURVE SMOOTH",
"707 -16 OFFCURVE",
"886 175 OFFCURVE",
"886 412 CURVE SMOOTH",
"886 534 OFFCURVE",
"838 644 OFFCURVE",
"760 722 CURVE",
"813 790 LINE",
"754 834 LINE",
"703 769 LINE",
"637 814 OFFCURVE",
"557 840 OFFCURVE",
"470 840 CURVE SMOOTH",
"233 840 OFFCURVE",
"54 649 OFFCURVE",
"54 412 CURVE SMOOTH"
);
},
{
closed = 1;
nodes = (
"787 227 OFFCURVE",
"655 73 OFFCURVE",
"470 73 CURVE SMOOTH",
"403 73 OFFCURVE",
"342 93 OFFCURVE",
"293 128 CURVE",
"701 647 LINE",
"755 586 OFFCURVE",
"787 503 OFFCURVE",
"787 412 CURVE SMOOTH"
);
},
{
closed = 1;
nodes = (
"153 597 OFFCURVE",
"285 751 OFFCURVE",
"470 751 CURVE SMOOTH",
"537 751 OFFCURVE",
"596 731 OFFCURVE",
"646 696 CURVE",
"238 177 LINE",
"184 238 OFFCURVE",
"153 321 OFFCURVE",
"153 412 CURVE SMOOTH"
);
}
);
width = 940;
}
);
leftKerningGroup = O;
note = Oslash;
rightKerningGroup = O;
unicode = 00D8;
},
{
glyphname = Ugrave;
layers = (
{
hints = (
{
horizontal = 1;
place = "{-16, 91}";
type = Stem;
},
{
horizontal = 1;
place = "{825, -20}";
target = down;
type = TopGhost;
},
{
horizontal = 1;
place = "{900, 21}";
target = up;
type = BottomGhost;
},
{
horizontal = 1;
place = "{1065, -20}";
target = down;
type = TopGhost;
},
{
place = "{84, 92}";
type = Stem;
},
{
place = "{256, 198}";
type = Stem;
},
{
place = "{574, 92}";
type = Stem;
}
);
layerId = "46919C11-A143-4288-9F65-95BCCFE886E8";
paths = (
{
closed = 1;
nodes = (
"574 825 LINE",
"574 317 LINE SMOOTH",
"574 150 OFFCURVE",
"508 75 OFFCURVE",
"375 75 CURVE SMOOTH",
"242 75 OFFCURVE",
"176 150 OFFCURVE",
"176 317 CURVE SMOOTH",
"176 825 LINE",
"84 825 LINE",
"84 295 LINE SMOOTH",
"84 90 OFFCURVE",
"186 -16 OFFCURVE",
"375 -16 CURVE SMOOTH",
"564 -16 OFFCURVE",
"666 90 OFFCURVE",
"666 295 CURVE SMOOTH",
"666 825 LINE"
);
},
{
closed = 1;
nodes = (
"256 1000 LINE",
"423 900 LINE",
"454 944 LINE",
"305 1065 LINE"
);
}
);
width = 750;
}
);
note = Ugrave;
rightKerningGroup = space;
unicode = 00D9;
},
{
glyphname = Uacute;
layers = (
{
hints = (
{
horizontal = 1;
place = "{-16, 91}";
type = Stem;
},
{
horizontal = 1;
place = "{825, -20}";
target = down;
type = TopGhost;
},
{
horizontal = 1;
place = "{900, 21}";
target = up;
type = BottomGhost;
},
{
horizontal = 1;
place = "{1065, -20}";
target = down;
type = TopGhost;
},
{
place = "{84, 92}";
type = Stem;
},
{
place = "{296, 198}";
type = Stem;
},
{
place = "{574, 92}";
type = Stem;
}
);
layerId = "46919C11-A143-4288-9F65-95BCCFE886E8";
paths = (
{
closed = 1;
nodes = (
"574 825 LINE",
"574 317 LINE SMOOTH",
"574 150 OFFCURVE",
"508 75 OFFCURVE",
"375 75 CURVE SMOOTH",
"242 75 OFFCURVE",
"176 150 OFFCURVE",
"176 317 CURVE SMOOTH",
"176 825 LINE",
"84 825 LINE",
"84 295 LINE SMOOTH",
"84 90 OFFCURVE",
"186 -16 OFFCURVE",
"375 -16 CURVE SMOOTH",
"564 -16 OFFCURVE",
"666 90 OFFCURVE",
"666 295 CURVE SMOOTH",
"666 825 LINE"
);
},
{
closed = 1;
nodes = (
"296 944 LINE",
"327 900 LINE",
"494 1000 LINE",
"445 1065 LINE"
);
}
);
width = 750;
}
);
note = Uacute;
rightKerningGroup = space;
unicode = 00DA;
},
{
glyphname = Ucircumflex;
layers = (
{
hints = (
{
horizontal = 1;
place = "{-16, 91}";
type = Stem;
},
{
horizontal = 1;
place = "{825, -20}";
target = down;
type = TopGhost;
},
{
place = "{84, 92}";
type = Stem;
},
{
place = "{574, 92}";
type = Stem;
},
{
horizontal = 1;
place = "{899, 21}";
target = up;
type = BottomGhost;
},
{
horizontal = 1;
place = "{1087, -20}";
target = down;
type = TopGhost;
},
{
place = "{186, 378}";
type = Stem;
}
);
layerId = "46919C11-A143-4288-9F65-95BCCFE886E8";
paths = (
{
closed = 1;
nodes = (
"574 825 LINE",
"574 317 LINE SMOOTH",
"574 150 OFFCURVE",
"508 75 OFFCURVE",
"375 75 CURVE SMOOTH",
"242 75 OFFCURVE",
"176 150 OFFCURVE",
"176 317 CURVE SMOOTH",
"176 825 LINE",
"84 825 LINE",
"84 295 LINE SMOOTH",
"84 90 OFFCURVE",
"186 -16 OFFCURVE",
"375 -16 CURVE SMOOTH",
"564 -16 OFFCURVE",
"666 90 OFFCURVE",
"666 295 CURVE SMOOTH",
"666 825 LINE"
);
},
{
closed = 1;
nodes = (
"186 948 LINE",
"222 899 LINE",
"375 1011 LINE",
"528 899 LINE",
"564 948 LINE",
"375 1087 LINE"
);
}
);
width = 750;
}
);
note = Ucircumflex;
rightKerningGroup = space;
unicode = 00DB;
},
{
glyphname = Udieresis;
layers = (
{
hints = (
{
horizontal = 1;
place = "{-16, 91}";
type = Stem;
},
{
horizontal = 1;
place = "{825, -20}";
target = down;
type = TopGhost;
},
{
place = "{84, 92}";
type = Stem;
},
{
place = "{574, 92}";
type = Stem;
},
{
horizontal = 1;
place = "{960, 102}";
type = Stem;
},
{
place = "{207, 102}";
type = Stem;
},
{
place = "{441, 102}";
type = Stem;
}
);
layerId = "46919C11-A143-4288-9F65-95BCCFE886E8";
paths = (
{
closed = 1;
nodes = (
"574 825 LINE",
"574 317 LINE SMOOTH",
"574 150 OFFCURVE",
"508 75 OFFCURVE",
"375 75 CURVE SMOOTH",
"242 75 OFFCURVE",
"176 150 OFFCURVE",
"176 317 CURVE SMOOTH",
"176 825 LINE",
"84 825 LINE",
"84 295 LINE SMOOTH",
"84 90 OFFCURVE",
"186 -16 OFFCURVE",
"375 -16 CURVE SMOOTH",
"564 -16 OFFCURVE",
"666 90 OFFCURVE",
"666 295 CURVE SMOOTH",
"666 825 LINE"
);
},
{
closed = 1;
nodes = (
"230 1062 OFFCURVE",
"207 1039 OFFCURVE",
"207 1011 CURVE SMOOTH",
"207 983 OFFCURVE",
"230 960 OFFCURVE",
"258 960 CURVE SMOOTH",
"286 960 OFFCURVE",
"309 983 OFFCURVE",
"309 1011 CURVE SMOOTH",
"309 1039 OFFCURVE",
"286 1062 OFFCURVE",
"258 1062 CURVE SMOOTH"
);
},
{
closed = 1;
nodes = (
"464 1062 OFFCURVE",
"441 1039 OFFCURVE",
"441 1011 CURVE SMOOTH",
"441 983 OFFCURVE",
"464 960 OFFCURVE",
"492 960 CURVE SMOOTH",
"520 960 OFFCURVE",
"543 983 OFFCURVE",
"543 1011 CURVE SMOOTH",
"543 1039 OFFCURVE",
"520 1062 OFFCURVE",
"492 1062 CURVE SMOOTH"
);
}
);
width = 750;
}
);
note = Udieresis;
rightKerningGroup = space;
unicode = 00DC;
},
{
glyphname = Yacute;
layers = (
{
hints = (
{
horizontal = 1;
place = "{0, 21}";
target = up;
type = BottomGhost;
},
{
horizontal = 1;
place = "{825, -20}";
target = down;
type = TopGhost;
},
{
horizontal = 1;
place = "{900, 21}";
target = up;
type = BottomGhost;
},
{
horizontal = 1;
place = "{1065, -20}";
target = down;
type = TopGhost;
},
{
place = "{-10, 664}";
type = Stem;
},
{
place = "{276, 92}";
type = Stem;
},
{
place = "{243, 198}";
type = Stem;
}
);
layerId = "46919C11-A143-4288-9F65-95BCCFE886E8";
paths = (
{
closed = 1;
nodes = (
"-10 825 LINE",
"276 359 LINE",
"276 0 LINE",
"368 0 LINE",
"368 359 LINE",
"654 825 LINE",
"543 825 LINE",
"322 456 LINE",
"101 825 LINE"
);
},
{
closed = 1;
nodes = (
"243 944 LINE",
"274 900 LINE",
"441 1000 LINE",
"392 1065 LINE"
);
}
);
width = 644;
}
);
leftKerningGroup = Y;
note = Yacute;
rightKerningGroup = Y;
unicode = 00DD;
},
{
glyphname = Ydieresis;
layers = (
{
hints = (
{
horizontal = 1;
place = "{0, 21}";
target = up;
type = BottomGhost;
},
{
horizontal = 1;
place = "{825, -20}";
target = down;
type = TopGhost;
},
{
horizontal = 1;
place = "{960, 102}";
type = Stem;
},
{
place = "{-10, 664}";
type = Stem;
},
{
place = "{154, 102}";
type = Stem;
},
{
place = "{276, 92}";
type = Stem;
},
{
place = "{388, 102}";
type = Stem;
}
);
layerId = "46919C11-A143-4288-9F65-95BCCFE886E8";
paths = (
{
closed = 1;
nodes = (
"-10 825 LINE",
"276 359 LINE",
"276 0 LINE",
"368 0 LINE",
"368 359 LINE",
"654 825 LINE",
"543 825 LINE",
"322 456 LINE",
"101 825 LINE"
);
},
{
closed = 1;
nodes = (
"177 1062 OFFCURVE",
"154 1039 OFFCURVE",
"154 1011 CURVE SMOOTH",
"154 983 OFFCURVE",
"177 960 OFFCURVE",
"205 960 CURVE SMOOTH",
"233 960 OFFCURVE",
"256 983 OFFCURVE",
"256 1011 CURVE SMOOTH",
"256 1039 OFFCURVE",
"233 1062 OFFCURVE",
"205 1062 CURVE SMOOTH"
);
},
{
closed = 1;
nodes = (
"411 1062 OFFCURVE",
"388 1039 OFFCURVE",
"388 1011 CURVE SMOOTH",
"388 983 OFFCURVE",
"411 960 OFFCURVE",
"439 960 CURVE SMOOTH",
"467 960 OFFCURVE",
"490 983 OFFCURVE",
"490 1011 CURVE SMOOTH",
"490 1039 OFFCURVE",
"467 1062 OFFCURVE",
"439 1062 CURVE SMOOTH"
);
}
);
width = 644;
}
);
leftKerningGroup = Y;
note = Ydieresis;
rightKerningGroup = Y;
unicode = 0178;
},
{
glyphname = Thorn;
layers = (
{
hints = (
{
horizontal = 1;
place = "{0, 21}";
target = up;
type = BottomGhost;
},
{
horizontal = 1;
place = "{169, 76}";
type = Stem;
},
{
horizontal = 1;
place = "{576, 74}";
type = Stem;
},
{
horizontal = 1;
place = "{825, -20}";
target = down;
type = TopGhost;
},
{
place = "{94, 92}";
type = Stem;
},
{
place = "{489, 97}";
type = Stem;
}
);
layerId = "46919C11-A143-4288-9F65-95BCCFE886E8";
paths = (
{
closed = 1;
nodes = (
"94 825 LINE",
"94 0 LINE",
"186 0 LINE",
"186 169 LINE",
"320 169 LINE SMOOTH",
"482 169 OFFCURVE",
"586 266 OFFCURVE",
"586 414 CURVE SMOOTH",
"586 564 OFFCURVE",
"482 650 OFFCURVE",
"320 650 CURVE SMOOTH",
"186 650 LINE",
"186 825 LINE"
);
},
{
closed = 1;
nodes = (
"186 576 LINE",
"296 576 LINE SMOOTH",
"413 576 OFFCURVE",
"489 518 OFFCURVE",
"489 412 CURVE SMOOTH",
"489 307 OFFCURVE",
"413 245 OFFCURVE",
"296 245 CURVE SMOOTH",
"186 245 LINE"
);
}
);
width = 853;
}
);
note = Thorn;
rightKerningGroup = space;
unicode = 00DE;
},
{
glyphname = germandbls;
layers = (
{
hints = (
{
horizontal = 1;
place = "{-16, 82}";
type = Stem;
},
{
horizontal = 1;
place = "{357, 71}";
type = Stem;
},
{
horizontal = 1;
place = "{799, 76}";
type = Stem;
},
{
place = "{106, 87}";
type = Stem;
},
{
place = "{484, 84}";
type = Stem;
},
{
horizontal = 1;
place = "{423, 70}";
type = Stem;
},
{
place = "{506, 92}";
type = Stem;
}
);
layerId = "46919C11-A143-4288-9F65-95BCCFE886E8";
paths = (
{
closed = 1;
nodes = (
"106 428 LINE",
"40 428 LINE",
"40 357 LINE",
"106 357 LINE",
"106 0 LINE",
"193 0 LINE",
"193 627 LINE SMOOTH",
"193 727 OFFCURVE",
"250 799 OFFCURVE",
"336 799 CURVE SMOOTH",
"421 799 OFFCURVE",
"484 734 OFFCURVE",
"484 648 CURVE SMOOTH",
"484 569 OFFCURVE",
"425 505 OFFCURVE",
"351 499 CURVE SMOOTH",
"323 495 OFFCURVE",
"293 493 OFFCURVE",
"264 493 CURVE",
"264 423 LINE",
"293 423 OFFCURVE",
"322 421 OFFCURVE",
"349 419 CURVE SMOOTH",
"439 412 OFFCURVE",
"506 335 OFFCURVE",
"506 242 CURVE SMOOTH",
"506 154 OFFCURVE",
"443 66 OFFCURVE",
"318 66 CURVE SMOOTH",
"264 66 LINE",
"264 -16 LINE",
"335 -16 LINE SMOOTH",
"482 -16 OFFCURVE",
"598 100 OFFCURVE",
"598 239 CURVE SMOOTH",
"598 344 OFFCURVE",
"536 425 OFFCURVE",
"446 460 CURVE",
"519 492 OFFCURVE",
"568 562 OFFCURVE",
"568 648 CURVE SMOOTH",
"568 775 OFFCURVE",
"469 875 OFFCURVE",
"336 875 CURVE SMOOTH",
"211 875 OFFCURVE",
"106 776 OFFCURVE",
"106 645 CURVE SMOOTH"
);
}
);
width = 643;
}
);
note = germandbls;
rightKerningGroup = space;
unicode = 00DF;
},
{
glyphname = agrave;
layers = (
{
hints = (
{
horizontal = 1;
place = "{-16, 76}";
type = Stem;
},
{
horizontal = 1;
place = "{512, -20}";
target = down;
type = TopGhost;
},
{
horizontal = 1;
place = "{587, 21}";
target = up;
type = BottomGhost;
},
{
horizontal = 1;
place = "{752, -20}";
target = down;
type = TopGhost;
},
{
place = "{54, 92}";
type = Stem;
},
{
place = "{210, 198}";
type = Stem;
},
{
place = "{515, 88}";
type = Stem;
},
{
horizontal = 1;
place = "{0, 21}";
target = up;
type = BottomGhost;
},
{
horizontal = 1;
place = "{452, 76}";
type = Stem;
}
);
layerId = "46919C11-A143-4288-9F65-95BCCFE886E8";
paths = (
{
closed = 1;
nodes = (
"54 100 OFFCURVE",
"163 -16 OFFCURVE",
"310 -16 CURVE SMOOTH",
"400 -16 OFFCURVE",
"474 30 OFFCURVE",
"515 101 CURVE",
"515 0 LINE",
"603 0 LINE",
"603 512 LINE",
"515 512 LINE",
"515 414 LINE",
"474 484 OFFCURVE",
"400 528 OFFCURVE",
"310 528 CURVE SMOOTH",
"163 528 OFFCURVE",
"54 412 OFFCURVE",
"54 256 CURVE SMOOTH"
);
},
{
closed = 1;
nodes = (
"146 371 OFFCURVE",
"226 452 OFFCURVE",
"332 452 CURVE SMOOTH",
"439 452 OFFCURVE",
"518 371 OFFCURVE",
"518 256 CURVE SMOOTH",
"518 142 OFFCURVE",
"440 60 OFFCURVE",
"332 60 CURVE SMOOTH",
"224 60 OFFCURVE",
"146 142 OFFCURVE",
"146 256 CURVE SMOOTH"
);
},
{
closed = 1;
nodes = (
"210 687 LINE",
"377 587 LINE",
"408 631 LINE",
"259 752 LINE"
);
}
);
width = 693;
}
);
leftKerningGroup = a;
note = agrave;
rightKerningGroup = a;
unicode = 00E0;
},
{
glyphname = aacute;
layers = (
{
hints = (
{
horizontal = 1;
place = "{-16, 76}";
type = Stem;
},
{
horizontal = 1;
place = "{512, -20}";
target = down;
type = TopGhost;
},
{
horizontal = 1;
place = "{587, 21}";
target = up;
type = BottomGhost;
},
{
horizontal = 1;
place = "{752, -20}";
target = down;
type = TopGhost;
},
{
place = "{54, 92}";
type = Stem;
},
{
place = "{250, 198}";
type = Stem;
},
{
place = "{515, 88}";
type = Stem;
},
{
horizontal = 1;
place = "{0, 21}";
target = up;
type = BottomGhost;
},
{
horizontal = 1;
place = "{452, 76}";
type = Stem;
}
);
layerId = "46919C11-A143-4288-9F65-95BCCFE886E8";
paths = (
{
closed = 1;
nodes = (
"54 100 OFFCURVE",
"163 -16 OFFCURVE",
"310 -16 CURVE SMOOTH",
"400 -16 OFFCURVE",
"474 30 OFFCURVE",
"515 101 CURVE",
"515 0 LINE",
"603 0 LINE",
"603 512 LINE",
"515 512 LINE",
"515 414 LINE",
"474 484 OFFCURVE",
"400 528 OFFCURVE",
"310 528 CURVE SMOOTH",
"163 528 OFFCURVE",
"54 412 OFFCURVE",
"54 256 CURVE SMOOTH"
);
},
{
closed = 1;
nodes = (
"146 371 OFFCURVE",
"226 452 OFFCURVE",
"332 452 CURVE SMOOTH",
"439 452 OFFCURVE",
"518 371 OFFCURVE",
"518 256 CURVE SMOOTH",
"518 142 OFFCURVE",
"440 60 OFFCURVE",
"332 60 CURVE SMOOTH",
"224 60 OFFCURVE",
"146 142 OFFCURVE",
"146 256 CURVE SMOOTH"
);
},
{
closed = 1;
nodes = (
"250 631 LINE",
"281 587 LINE",
"448 687 LINE",
"399 752 LINE"
);
}
);
width = 693;
}
);
leftKerningGroup = a;
note = aacute;
rightKerningGroup = a;
unicode = 00E1;
},
{
glyphname = acircumflex;
layers = (
{
hints = (
{
horizontal = 1;
place = "{-16, 76}";
type = Stem;
},
{
horizontal = 1;
place = "{512, -20}";
target = down;
type = TopGhost;
},
{
horizontal = 1;
place = "{587, 21}";
target = up;
type = BottomGhost;
},
{
horizontal = 1;
place = "{775, -20}";
target = down;
type = TopGhost;
},
{
place = "{54, 92}";
type = Stem;
},
{
place = "{515, 88}";
type = Stem;
},
{
horizontal = 1;
place = "{0, 21}";
target = up;
type = BottomGhost;
},
{
horizontal = 1;
place = "{452, 76}";
type = Stem;
},
{
place = "{140, 378}";
type = Stem;
}
);
layerId = "46919C11-A143-4288-9F65-95BCCFE886E8";
paths = (
{
closed = 1;
nodes = (
"54 100 OFFCURVE",
"163 -16 OFFCURVE",
"310 -16 CURVE SMOOTH",
"400 -16 OFFCURVE",
"474 30 OFFCURVE",
"515 101 CURVE",
"515 0 LINE",
"603 0 LINE",
"603 512 LINE",
"515 512 LINE",
"515 414 LINE",
"474 484 OFFCURVE",
"400 528 OFFCURVE",
"310 528 CURVE SMOOTH",
"163 528 OFFCURVE",
"54 412 OFFCURVE",
"54 256 CURVE SMOOTH"
);
},
{
closed = 1;
nodes = (
"146 371 OFFCURVE",
"226 452 OFFCURVE",
"332 452 CURVE SMOOTH",
"439 452 OFFCURVE",
"518 371 OFFCURVE",
"518 256 CURVE SMOOTH",
"518 142 OFFCURVE",
"440 60 OFFCURVE",
"332 60 CURVE SMOOTH",
"224 60 OFFCURVE",
"146 142 OFFCURVE",
"146 256 CURVE SMOOTH"
);
},
{
closed = 1;
nodes = (
"140 636 LINE",
"176 587 LINE",
"329 699 LINE",
"482 587 LINE",
"518 636 LINE",
"329 775 LINE"
);
}
);
width = 693;
}
);
leftKerningGroup = a;
note = acircumflex;
rightKerningGroup = a;
unicode = 00E2;
},
{
glyphname = atilde;
layers = (
{
hints = (
{
horizontal = 1;
place = "{-16, 76}";
type = Stem;
},
{
horizontal = 1;
place = "{512, -20}";
target = down;
type = TopGhost;
},
{
horizontal = 1;
place = "{611, 72}";
type = Stem;
},
{
horizontal = 1;
place = "{694, 72}";
type = Stem;
},
{
place = "{54, 92}";
type = Stem;
},
{
place = "{515, 88}";
type = Stem;
},
{
horizontal = 1;
place = "{0, 21}";
target = up;
type = BottomGhost;
},
{
horizontal = 1;
place = "{452, 76}";
type = Stem;
},
{
place = "{70, 518}";
type = Stem;
}
);
layerId = "46919C11-A143-4288-9F65-95BCCFE886E8";
paths = (
{
closed = 1;
nodes = (
"54 100 OFFCURVE",
"163 -16 OFFCURVE",
"310 -16 CURVE SMOOTH",
"400 -16 OFFCURVE",
"474 30 OFFCURVE",
"515 101 CURVE",
"515 0 LINE",
"603 0 LINE",
"603 512 LINE",
"515 512 LINE",
"515 414 LINE",
"474 484 OFFCURVE",
"400 528 OFFCURVE",
"310 528 CURVE SMOOTH",
"163 528 OFFCURVE",
"54 412 OFFCURVE",
"54 256 CURVE SMOOTH"
);
},
{
closed = 1;
nodes = (
"146 371 OFFCURVE",
"226 452 OFFCURVE",
"332 452 CURVE SMOOTH",
"439 452 OFFCURVE",
"518 371 OFFCURVE",
"518 256 CURVE SMOOTH",
"518 142 OFFCURVE",
"440 60 OFFCURVE",
"332 60 CURVE SMOOTH",
"224 60 OFFCURVE",
"146 142 OFFCURVE",
"146 256 CURVE SMOOTH"
);
},
{
closed = 1;
nodes = (
"119 616 LINE",
"133 641 OFFCURVE",
"168 694 OFFCURVE",
"224 694 CURVE SMOOTH",
"246 694 OFFCURVE",
"276 685 OFFCURVE",
"309 659 CURVE SMOOTH",
"354 625 OFFCURVE",
"394 611 OFFCURVE",
"434 611 CURVE SMOOTH",
"517 611 OFFCURVE",
"571 690 OFFCURVE",
"588 718 CURVE",
"539 761 LINE",
"525 736 OFFCURVE",
"490 683 OFFCURVE",
"434 683 CURVE SMOOTH",
"412 683 OFFCURVE",
"382 692 OFFCURVE",
"349 718 CURVE SMOOTH",
"304 752 OFFCURVE",
"264 766 OFFCURVE",
"224 766 CURVE SMOOTH",
"141 766 OFFCURVE",
"87 687 OFFCURVE",
"70 659 CURVE"
);
}
);
width = 693;
}
);
leftKerningGroup = a;
note = atilde;
rightKerningGroup = a;
unicode = 00E3;
},
{
glyphname = adieresis;
layers = (
{
hints = (
{
horizontal = 1;
place = "{-16, 76}";
type = Stem;
},
{
horizontal = 1;
place = "{512, -20}";
target = down;
type = TopGhost;
},
{
horizontal = 1;
place = "{648, 102}";
type = Stem;
},
{
place = "{54, 92}";
type = Stem;
},
{
place = "{160, 102}";
type = Stem;
},
{
place = "{394, 102}";
type = Stem;
},
{
place = "{515, 88}";
type = Stem;
},
{
horizontal = 1;
place = "{0, 21}";
target = up;
type = BottomGhost;
},
{
horizontal = 1;
place = "{452, 76}";
type = Stem;
}
);
layerId = "46919C11-A143-4288-9F65-95BCCFE886E8";
paths = (
{
closed = 1;
nodes = (
"54 100 OFFCURVE",
"163 -16 OFFCURVE",
"310 -16 CURVE SMOOTH",
"400 -16 OFFCURVE",
"474 30 OFFCURVE",
"515 101 CURVE",
"515 0 LINE",
"603 0 LINE",
"603 512 LINE",
"515 512 LINE",
"515 414 LINE",
"474 484 OFFCURVE",
"400 528 OFFCURVE",
"310 528 CURVE SMOOTH",
"163 528 OFFCURVE",
"54 412 OFFCURVE",
"54 256 CURVE SMOOTH"
);
},
{
closed = 1;
nodes = (
"146 371 OFFCURVE",
"226 452 OFFCURVE",
"332 452 CURVE SMOOTH",
"439 452 OFFCURVE",
"518 371 OFFCURVE",
"518 256 CURVE SMOOTH",
"518 142 OFFCURVE",
"440 60 OFFCURVE",
"332 60 CURVE SMOOTH",
"224 60 OFFCURVE",
"146 142 OFFCURVE",
"146 256 CURVE SMOOTH"
);
},
{
closed = 1;
nodes = (
"183 750 OFFCURVE",
"160 727 OFFCURVE",
"160 699 CURVE SMOOTH",
"160 671 OFFCURVE",
"183 648 OFFCURVE",
"211 648 CURVE SMOOTH",
"239 648 OFFCURVE",
"262 671 OFFCURVE",
"262 699 CURVE SMOOTH",
"262 727 OFFCURVE",
"239 750 OFFCURVE",
"211 750 CURVE SMOOTH"
);
},
{
closed = 1;
nodes = (
"417 750 OFFCURVE",
"394 727 OFFCURVE",
"394 699 CURVE SMOOTH",
"394 671 OFFCURVE",
"417 648 OFFCURVE",
"445 648 CURVE SMOOTH",
"473 648 OFFCURVE",
"496 671 OFFCURVE",
"496 699 CURVE SMOOTH",
"496 727 OFFCURVE",
"473 750 OFFCURVE",
"445 750 CURVE SMOOTH"
);
}
);
width = 693;
}
);
leftKerningGroup = a;
note = adieresis;
rightKerningGroup = a;
unicode = 00E4;
},
{
glyphname = aring;
layers = (
{
hints = (
{
horizontal = 1;
place = "{-16, 76}";
type = Stem;
},
{
horizontal = 1;
place = "{512, -20}";
target = down;
type = TopGhost;
},
{
horizontal = 1;
place = "{624, 47}";
type = Stem;
},
{
horizontal = 1;
place = "{794, 47}";
type = Stem;
},
{
place = "{54, 92}";
type = Stem;
},
{
place = "{205, 56}";
type = Stem;
},
{
place = "{395, 56}";
type = Stem;
},
{
place = "{515, 88}";
type = Stem;
},
{
horizontal = 1;
place = "{0, 21}";
target = up;
type = BottomGhost;
},
{
horizontal = 1;
place = "{452, 76}";
type = Stem;
}
);
layerId = "46919C11-A143-4288-9F65-95BCCFE886E8";
paths = (
{
closed = 1;
nodes = (
"54 100 OFFCURVE",
"163 -16 OFFCURVE",
"310 -16 CURVE SMOOTH",
"400 -16 OFFCURVE",
"474 30 OFFCURVE",
"515 101 CURVE",
"515 0 LINE",
"603 0 LINE",
"603 512 LINE",
"515 512 LINE",
"515 414 LINE",
"474 484 OFFCURVE",
"400 528 OFFCURVE",
"310 528 CURVE SMOOTH",
"163 528 OFFCURVE",
"54 412 OFFCURVE",
"54 256 CURVE SMOOTH"
);
},
{
closed = 1;
nodes = (
"146 371 OFFCURVE",
"226 452 OFFCURVE",
"332 452 CURVE SMOOTH",
"439 452 OFFCURVE",
"518 371 OFFCURVE",
"518 256 CURVE SMOOTH",
"518 142 OFFCURVE",
"440 60 OFFCURVE",
"332 60 CURVE SMOOTH",
"224 60 OFFCURVE",
"146 142 OFFCURVE",
"146 256 CURVE SMOOTH"
);
},
{
closed = 1;
nodes = (
"205 669 OFFCURVE",
"255 624 OFFCURVE",
"328 624 CURVE SMOOTH",
"400 624 OFFCURVE",
"451 669 OFFCURVE",
"451 733 CURVE SMOOTH",
"451 796 OFFCURVE",
"397 841 OFFCURVE",
"328 841 CURVE SMOOTH",
"260 841 OFFCURVE",
"205 796 OFFCURVE",
"205 733 CURVE SMOOTH"
);
},
{
closed = 1;
nodes = (
"261 768 OFFCURVE",
"290 794 OFFCURVE",
"328 794 CURVE SMOOTH",
"366 794 OFFCURVE",
"395 768 OFFCURVE",
"395 733 CURVE SMOOTH",
"395 697 OFFCURVE",
"368 671 OFFCURVE",
"328 671 CURVE SMOOTH",
"288 671 OFFCURVE",
"261 697 OFFCURVE",
"261 733 CURVE SMOOTH"
);
}
);
width = 693;
}
);
leftKerningGroup = a;
note = aring;
rightKerningGroup = a;
unicode = 00E5;
},
{
glyphname = ae;
layers = (
{
hints = (
{
horizontal = 1;
place = "{-16, 58}";
type = Stem;
},
{
horizontal = 1;
place = "{246, 55}";
type = Stem;
},
{
horizontal = 1;
place = "{466, 62}";
type = Stem;
},
{
place = "{82, 86}";
type = Stem;
},
{
place = "{446, 87}";
type = Stem;
},
{
horizontal = 1;
place = "{257, 54}";
type = Stem;
}
);
layerId = "46919C11-A143-4288-9F65-95BCCFE886E8";
paths = (
{
closed = 1;
nodes = (
"82 48 OFFCURVE",
"169 -16 OFFCURVE",
"281 -16 CURVE SMOOTH",
"395 -16 OFFCURVE",
"461 38 OFFCURVE",
"497 91 CURVE",
"534 41 OFFCURVE",
"604 -16 OFFCURVE",
"720 -16 CURVE SMOOTH",
"826 -16 OFFCURVE",
"914 26 OFFCURVE",
"966 111 CURVE",
"901 145 LINE",
"859 86 OFFCURVE",
"803 56 OFFCURVE",
"725 56 CURVE SMOOTH",
"622 56 OFFCURVE",
"533 129 OFFCURVE",
"533 246 CURVE",
"982 246 LINE",
"982 256 LINE SMOOTH",
"982 418 OFFCURVE",
"864 528 OFFCURVE",
"714 528 CURVE SMOOTH",
"629 528 OFFCURVE",
"553 488 OFFCURVE",
"504 426 CURVE",
"464 493 OFFCURVE",
"387 528 OFFCURVE",
"294 528 CURVE SMOOTH",
"206 528 OFFCURVE",
"140 492 OFFCURVE",
"114 459 CURVE",
"149 401 LINE",
"169 424 OFFCURVE",
"218 457 OFFCURVE",
"294 457 CURVE SMOOTH",
"384 457 OFFCURVE",
"446 402 OFFCURVE",
"446 306 CURVE SMOOTH",
"446 248 LINE",
"416 283 OFFCURVE",
"358 311 OFFCURVE",
"278 311 CURVE SMOOTH",
"163 311 OFFCURVE",
"82 241 OFFCURVE",
"82 144 CURVE SMOOTH"
);
},
{
closed = 1;
nodes = (
"168 216 OFFCURVE",
"232 257 OFFCURVE",
"309 257 CURVE SMOOTH",
"387 257 OFFCURVE",
"450 214 OFFCURVE",
"450 151 CURVE SMOOTH",
"450 88 OFFCURVE",
"387 42 OFFCURVE",
"309 42 CURVE SMOOTH",
"232 42 OFFCURVE",
"168 86 OFFCURVE",
"168 151 CURVE SMOOTH"
);
},
{
closed = 1;
nodes = (
"535 301 LINE",
"544 394 OFFCURVE",
"618 466 OFFCURVE",
"716 466 CURVE SMOOTH",
"810 466 OFFCURVE",
"886 397 OFFCURVE",
"896 301 CURVE"
);
}
);
width = 1033;
}
);
note = ae;
rightKerningGroup = space;
unicode = 00E6;
},
{
glyphname = ccedilla;
layers = (
{
hints = (
{
horizontal = 1;
place = "{-294, 52}";
type = Stem;
},
{
horizontal = 1;
place = "{-112, 37}";
type = Stem;
},
{
horizontal = 1;
place = "{-16, 84}";
type = Stem;
},
{
horizontal = 1;
place = "{444, 84}";
type = Stem;
},
{
place = "{52, 90}";
type = Stem;
},
{
place = "{373, 57}";
type = Stem;
}
);
layerId = "46919C11-A143-4288-9F65-95BCCFE886E8";
paths = (
{
closed = 1;
nodes = (
"227 -126 LINE",
"233 -130 LINE",
"248 -120 OFFCURVE",
"275 -112 OFFCURVE",
"301 -112 CURVE SMOOTH",
"340 -112 OFFCURVE",
"373 -138 OFFCURVE",
"373 -179 CURVE SMOOTH",
"373 -220 OFFCURVE",
"338 -242 OFFCURVE",
"296 -242 CURVE SMOOTH",
"248 -242 OFFCURVE",
"212 -211 OFFCURVE",
"199 -188 CURVE",
"157 -217 LINE",
"172 -245 OFFCURVE",
"225 -294 OFFCURVE",
"296 -294 CURVE SMOOTH",
"382 -294 OFFCURVE",
"430 -242 OFFCURVE",
"430 -179 CURVE SMOOTH",
"430 -115 OFFCURVE",
"376 -75 OFFCURVE",
"320 -75 CURVE SMOOTH",
"310 -75 OFFCURVE",
"300 -75 OFFCURVE",
"290 -77 CURVE",
"310 -15 LINE",
"316 -16 OFFCURVE",
"323 -16 OFFCURVE",
"329 -16 CURVE SMOOTH",
"421 -16 OFFCURVE",
"475 6 OFFCURVE",
"504 38 CURVE",
"462 104 LINE",
"444 83 OFFCURVE",
"397 68 OFFCURVE",
"339 68 CURVE SMOOTH",
"227 68 OFFCURVE",
"142 142 OFFCURVE",
"142 256 CURVE SMOOTH",
"142 370 OFFCURVE",
"227 444 OFFCURVE",
"339 444 CURVE SMOOTH",
"397 444 OFFCURVE",
"444 429 OFFCURVE",
"463 408 CURVE",
"504 473 LINE",
"476 506 OFFCURVE",
"421 528 OFFCURVE",
"329 528 CURVE SMOOTH",
"177 528 OFFCURVE",
"52 412 OFFCURVE",
"52 256 CURVE SMOOTH",
"52 123 OFFCURVE",
"143 18 OFFCURVE",
"265 -9 CURVE"
);
}
);
width = 554;
}
);
leftKerningGroup = c;
note = ccedilla;
rightKerningGroup = c;
unicode = 00E7;
},
{
glyphname = egrave;
layers = (
{
hints = (
{
horizontal = 1;
place = "{-16, 72}";
type = Stem;
},
{
horizontal = 1;
place = "{246, 55}";
type = Stem;
},
{
horizontal = 1;
place = "{456, 72}";
type = Stem;
},
{
place = "{51, 89}";
type = Stem;
},
{
place = "{503, 86}";
type = Stem;
},
{
horizontal = 1;
place = "{587, 21}";
target = up;
type = BottomGhost;
},
{
horizontal = 1;
place = "{752, -20}";
target = down;
type = TopGhost;
},
{
place = "{201, 198}";
type = Stem;
}
);
layerId = "46919C11-A143-4288-9F65-95BCCFE886E8";
paths = (
{
closed = 1;
nodes = (
"51 101 OFFCURVE",
"173 -16 OFFCURVE",
"327 -16 CURVE SMOOTH",
"433 -16 OFFCURVE",
"521 26 OFFCURVE",
"573 111 CURVE",
"508 145 LINE",
"466 86 OFFCURVE",
"410 56 OFFCURVE",
"332 56 CURVE SMOOTH",
"229 56 OFFCURVE",
"140 129 OFFCURVE",
"140 246 CURVE",
"589 246 LINE",
"589 256 LINE SMOOTH",
"589 418 OFFCURVE",
"471 528 OFFCURVE",
"321 528 CURVE SMOOTH",
"172 528 OFFCURVE",
"51 407 OFFCURVE",
"51 256 CURVE SMOOTH"
);
},
{
closed = 1;
nodes = (
"142 301 LINE",
"151 394 OFFCURVE",
"225 456 OFFCURVE",
"323 456 CURVE SMOOTH",
"417 456 OFFCURVE",
"493 397 OFFCURVE",
"503 301 CURVE"
);
},
{
closed = 1;
nodes = (
"201 687 LINE",
"368 587 LINE",
"399 631 LINE",
"250 752 LINE"
);
}
);
width = 640;
}
);
leftKerningGroup = c;
note = egrave;
rightKerningGroup = c;
unicode = 00E8;
},
{
glyphname = eacute;
layers = (
{
hints = (
{
horizontal = 1;
place = "{-16, 72}";
type = Stem;
},
{
horizontal = 1;
place = "{246, 55}";
type = Stem;
},
{
horizontal = 1;
place = "{456, 72}";
type = Stem;
},
{
horizontal = 1;
place = "{587, 21}";
target = up;
type = BottomGhost;
},
{
horizontal = 1;
place = "{752, -20}";
target = down;
type = TopGhost;
},
{
place = "{51, 89}";
type = Stem;
},
{
place = "{241, 198}";
type = Stem;
},
{
place = "{503, 86}";
type = Stem;
}
);
layerId = "46919C11-A143-4288-9F65-95BCCFE886E8";
paths = (
{
closed = 1;
nodes = (
"51 101 OFFCURVE",
"173 -16 OFFCURVE",
"327 -16 CURVE SMOOTH",
"433 -16 OFFCURVE",
"521 26 OFFCURVE",
"573 111 CURVE",
"508 145 LINE",
"466 86 OFFCURVE",
"410 56 OFFCURVE",
"332 56 CURVE SMOOTH",
"229 56 OFFCURVE",
"140 129 OFFCURVE",
"140 246 CURVE",
"589 246 LINE",
"589 256 LINE SMOOTH",
"589 418 OFFCURVE",
"471 528 OFFCURVE",
"321 528 CURVE SMOOTH",
"172 528 OFFCURVE",
"51 407 OFFCURVE",
"51 256 CURVE SMOOTH"
);
},
{
closed = 1;
nodes = (
"142 301 LINE",
"151 394 OFFCURVE",
"225 456 OFFCURVE",
"323 456 CURVE SMOOTH",
"417 456 OFFCURVE",
"493 397 OFFCURVE",
"503 301 CURVE"
);
},
{
closed = 1;
nodes = (
"241 631 LINE",
"272 587 LINE",
"439 687 LINE",
"390 752 LINE"
);
}
);
width = 640;
}
);
leftKerningGroup = c;
note = eacute;
rightKerningGroup = c;
unicode = 00E9;
},
{
glyphname = ecircumflex;
layers = (
{
hints = (
{
horizontal = 1;
place = "{-16, 72}";
type = Stem;
},
{
horizontal = 1;
place = "{246, 55}";
type = Stem;
},
{
horizontal = 1;
place = "{456, 72}";
type = Stem;
},
{
place = "{51, 89}";
type = Stem;
},
{
place = "{503, 86}";
type = Stem;
},
{
horizontal = 1;
place = "{587, 21}";
target = up;
type = BottomGhost;
},
{
horizontal = 1;
place = "{775, -20}";
target = down;
type = TopGhost;
},
{
place = "{131, 378}";
type = Stem;
}
);
layerId = "46919C11-A143-4288-9F65-95BCCFE886E8";
paths = (
{
closed = 1;
nodes = (
"51 101 OFFCURVE",
"173 -16 OFFCURVE",
"327 -16 CURVE SMOOTH",
"433 -16 OFFCURVE",
"521 26 OFFCURVE",
"573 111 CURVE",
"508 145 LINE",
"466 86 OFFCURVE",
"410 56 OFFCURVE",
"332 56 CURVE SMOOTH",
"229 56 OFFCURVE",
"140 129 OFFCURVE",
"140 246 CURVE",
"589 246 LINE",
"589 256 LINE SMOOTH",
"589 418 OFFCURVE",
"471 528 OFFCURVE",
"321 528 CURVE SMOOTH",
"172 528 OFFCURVE",
"51 407 OFFCURVE",
"51 256 CURVE SMOOTH"
);
},
{
closed = 1;
nodes = (
"142 301 LINE",
"151 394 OFFCURVE",
"225 456 OFFCURVE",
"323 456 CURVE SMOOTH",
"417 456 OFFCURVE",
"493 397 OFFCURVE",
"503 301 CURVE"
);
},
{
closed = 1;
nodes = (
"131 636 LINE",
"167 587 LINE",
"320 699 LINE",
"473 587 LINE",
"509 636 LINE",
"320 775 LINE"
);
}
);
width = 640;
}
);
leftKerningGroup = c;
note = ecircumflex;
rightKerningGroup = c;
unicode = 00EA;
},
{
glyphname = edieresis;
layers = (
{
hints = (
{
horizontal = 1;
place = "{-16, 72}";
type = Stem;
},
{
horizontal = 1;
place = "{246, 55}";
type = Stem;
},
{
horizontal = 1;
place = "{456, 72}";
type = Stem;
},
{
place = "{51, 89}";
type = Stem;
},
{
place = "{503, 86}";
type = Stem;
},
{
horizontal = 1;
place = "{607, 102}";
type = Stem;
},
{
place = "{152, 102}";
type = Stem;
},
{
place = "{386, 102}";
type = Stem;
}
);
layerId = "46919C11-A143-4288-9F65-95BCCFE886E8";
paths = (
{
closed = 1;
nodes = (
"51 101 OFFCURVE",
"173 -16 OFFCURVE",
"327 -16 CURVE SMOOTH",
"433 -16 OFFCURVE",
"521 26 OFFCURVE",
"573 111 CURVE",
"508 145 LINE",
"466 86 OFFCURVE",
"410 56 OFFCURVE",
"332 56 CURVE SMOOTH",
"229 56 OFFCURVE",
"140 129 OFFCURVE",
"140 246 CURVE",
"589 246 LINE",
"589 256 LINE SMOOTH",
"589 418 OFFCURVE",
"471 528 OFFCURVE",
"321 528 CURVE SMOOTH",
"172 528 OFFCURVE",
"51 407 OFFCURVE",
"51 256 CURVE SMOOTH"
);
},
{
closed = 1;
nodes = (
"142 301 LINE",
"151 394 OFFCURVE",
"225 456 OFFCURVE",
"323 456 CURVE SMOOTH",
"417 456 OFFCURVE",
"493 397 OFFCURVE",
"503 301 CURVE"
);
},
{
closed = 1;
nodes = (
"175 709 OFFCURVE",
"152 686 OFFCURVE",
"152 658 CURVE SMOOTH",
"152 630 OFFCURVE",
"175 607 OFFCURVE",
"203 607 CURVE SMOOTH",
"231 607 OFFCURVE",
"254 630 OFFCURVE",
"254 658 CURVE SMOOTH",
"254 686 OFFCURVE",
"231 709 OFFCURVE",
"203 709 CURVE SMOOTH"
);
},
{
closed = 1;
nodes = (
"409 709 OFFCURVE",
"386 686 OFFCURVE",
"386 658 CURVE SMOOTH",
"386 630 OFFCURVE",
"409 607 OFFCURVE",
"437 607 CURVE SMOOTH",
"465 607 OFFCURVE",
"488 630 OFFCURVE",
"488 658 CURVE SMOOTH",
"488 686 OFFCURVE",
"465 709 OFFCURVE",
"437 709 CURVE SMOOTH"
);
}
);
width = 640;
}
);
leftKerningGroup = c;
note = edieresis;
rightKerningGroup = c;
unicode = 00EB;
},
{
glyphname = igrave;
layers = (
{
hints = (
{
horizontal = 1;
place = "{0, 21}";
target = up;
type = BottomGhost;
},
{
horizontal = 1;
place = "{512, -20}";
target = down;
type = TopGhost;
},
{
place = "{90, 88}";
type = Stem;
},
{
horizontal = 1;
place = "{587, 21}";
target = up;
type = BottomGhost;
},
{
horizontal = 1;
place = "{752, -20}";
target = down;
type = TopGhost;
},
{
place = "{-33, 198}";
type = Stem;
}
);
layerId = "46919C11-A143-4288-9F65-95BCCFE886E8";
paths = (
{
closed = 1;
nodes = (
"90 512 LINE",
"90 0 LINE",
"178 0 LINE",
"178 512 LINE"
);
},
{
closed = 1;
nodes = (
"-33 687 LINE",
"134 587 LINE",
"165 631 LINE",
"16 752 LINE"
);
}
);
width = 268;
}
);
leftKerningGroup = I;
note = igrave;
rightKerningGroup = space;
unicode = 00EC;
},
{
glyphname = iacute;
layers = (
{
hints = (
{
horizontal = 1;
place = "{0, 21}";
target = up;
type = BottomGhost;
},
{
horizontal = 1;
place = "{512, -20}";
target = down;
type = TopGhost;
},
{
place = "{90, 88}";
type = Stem;
},
{
horizontal = 1;
place = "{587, 21}";
target = up;
type = BottomGhost;
},
{
horizontal = 1;
place = "{752, -20}";
target = down;
type = TopGhost;
},
{
place = "{103, 198}";
type = Stem;
}
);
layerId = "46919C11-A143-4288-9F65-95BCCFE886E8";
paths = (
{
closed = 1;
nodes = (
"90 512 LINE",
"90 0 LINE",
"178 0 LINE",
"178 512 LINE"
);
},
{
closed = 1;
nodes = (
"252 752 LINE",
"103 631 LINE",
"134 587 LINE",
"301 687 LINE"
);
}
);
width = 268;
}
);
leftKerningGroup = I;
note = iacute;
rightKerningGroup = space;
unicode = 00ED;
},
{
glyphname = icircumflex;
layers = (
{
hints = (
{
horizontal = 1;
place = "{0, 21}";
target = up;
type = BottomGhost;
},
{
horizontal = 1;
place = "{512, -20}";
target = down;
type = TopGhost;
},
{
place = "{90, 88}";
type = Stem;
},
{
horizontal = 1;
place = "{587, 21}";
target = up;
type = BottomGhost;
},
{
horizontal = 1;
place = "{775, -20}";
target = down;
type = TopGhost;
},
{
place = "{-55, 378}";
type = Stem;
}
);
layerId = "46919C11-A143-4288-9F65-95BCCFE886E8";
paths = (
{
closed = 1;
nodes = (
"90 512 LINE",
"90 0 LINE",
"178 0 LINE",
"178 512 LINE"
);
},
{
closed = 1;
nodes = (
"-55 636 LINE",
"-19 587 LINE",
"134 699 LINE",
"287 587 LINE",
"323 636 LINE",
"134 775 LINE"
);
}
);
width = 268;
}
);
leftKerningGroup = Icircumflex;
note = icircumflex;
rightKerningGroup = Icircumflex;
unicode = 00EE;
},
{
glyphname = idieresis;
layers = (
{
hints = (
{
horizontal = 1;
place = "{0, 21}";
target = up;
type = BottomGhost;
},
{
horizontal = 1;
place = "{512, -20}";
target = down;
type = TopGhost;
},
{
place = "{90, 88}";
type = Stem;
},
{
horizontal = 1;
place = "{611, 102}";
type = Stem;
},
{
place = "{-34, 102}";
type = Stem;
},
{
place = "{200, 102}";
type = Stem;
}
);
layerId = "46919C11-A143-4288-9F65-95BCCFE886E8";
paths = (
{
closed = 1;
nodes = (
"90 512 LINE",
"90 0 LINE",
"178 0 LINE",
"178 512 LINE"
);
},
{
closed = 1;
nodes = (
"-11 713 OFFCURVE",
"-34 690 OFFCURVE",
"-34 662 CURVE SMOOTH",
"-34 634 OFFCURVE",
"-11 611 OFFCURVE",
"17 611 CURVE SMOOTH",
"45 611 OFFCURVE",
"68 634 OFFCURVE",
"68 662 CURVE SMOOTH",
"68 690 OFFCURVE",
"45 713 OFFCURVE",
"17 713 CURVE SMOOTH"
);
},
{
closed = 1;
nodes = (
"223 713 OFFCURVE",
"200 690 OFFCURVE",
"200 662 CURVE SMOOTH",
"200 634 OFFCURVE",
"223 611 OFFCURVE",
"251 611 CURVE SMOOTH",
"279 611 OFFCURVE",
"302 634 OFFCURVE",
"302 662 CURVE SMOOTH",
"302 690 OFFCURVE",
"279 713 OFFCURVE",
"251 713 CURVE SMOOTH"
);
}
);
width = 268;
}
);
leftKerningGroup = Icircumflex;
note = idieresis;
rightKerningGroup = Icircumflex;
unicode = 00EF;
},
{
glyphname = eth;
layers = (
{
hints = (
{
horizontal = 1;
place = "{-16, 76}";
type = Stem;
},
{
horizontal = 1;
place = "{452, 76}";
type = Stem;
},
{
horizontal = 1;
place = "{875, -20}";
target = down;
type = TopGhost;
},
{
place = "{58, 91}";
type = Stem;
},
{
place = "{542, 91}";
type = Stem;
}
);
layerId = "46919C11-A143-4288-9F65-95BCCFE886E8";
paths = (
{
closed = 1;
nodes = (
"58 97 OFFCURVE",
"179 -16 OFFCURVE",
"346 -16 CURVE SMOOTH",
"510 -16 OFFCURVE",
"633 97 OFFCURVE",
"633 256 CURVE SMOOTH",
"633 490 OFFCURVE",
"537 659 OFFCURVE",
"400 767 CURVE",
"465 832 LINE",
"423 875 LINE",
"348 800 LINE",
"281 840 OFFCURVE",
"218 863 OFFCURVE",
"185 875 CURVE",
"163 799 LINE",
"192 789 OFFCURVE",
"239 770 OFFCURVE",
"288 740 CURVE",
"219 671 LINE",
"262 628 LINE",
"341 707 LINE",
"417 647 OFFCURVE",
"475 560 OFFCURVE",
"504 444 CURVE",
"464 499 OFFCURVE",
"393 528 OFFCURVE",
"325 528 CURVE SMOOTH",
"188 528 OFFCURVE",
"58 420 OFFCURVE",
"58 256 CURVE SMOOTH"
);
},
{
closed = 1;
nodes = (
"149 370 OFFCURVE",
"232 452 OFFCURVE",
"345 452 CURVE SMOOTH",
"457 452 OFFCURVE",
"542 370 OFFCURVE",
"542 256 CURVE SMOOTH",
"542 142 OFFCURVE",
"459 60 OFFCURVE",
"345 60 CURVE SMOOTH",
"230 60 OFFCURVE",
"149 142 OFFCURVE",
"149 256 CURVE SMOOTH"
);
}
);
width = 692;
}
);
note = eth;
rightKerningGroup = space;
unicode = 00F0;
},
{
glyphname = ntilde;
layers = (
{
hints = (
{
horizontal = 1;
place = "{0, 21}";
target = up;
type = BottomGhost;
},
{
horizontal = 1;
place = "{512, -20}";
target = down;
type = TopGhost;
},
{
horizontal = 1;
place = "{608, 72}";
type = Stem;
},
{
horizontal = 1;
place = "{691, 72}";
type = Stem;
},
{
place = "{90, 88}";
type = Stem;
},
{
place = "{456, 88}";
type = Stem;
},
{
horizontal = 1;
place = "{458, 70}";
type = Stem;
},
{
place = "{58, 518}";
type = Stem;
}
);
layerId = "46919C11-A143-4288-9F65-95BCCFE886E8";
paths = (
{
closed = 1;
nodes = (
"90 512 LINE",
"90 0 LINE",
"178 0 LINE",
"178 327 LINE SMOOTH",
"178 391 OFFCURVE",
"235 458 OFFCURVE",
"319 458 CURVE SMOOTH",
"411 458 OFFCURVE",
"456 396 OFFCURVE",
"456 303 CURVE SMOOTH",
"456 0 LINE",
"544 0 LINE",
"544 327 LINE SMOOTH",
"544 456 OFFCURVE",
"461 528 OFFCURVE",
"336 528 CURVE SMOOTH",
"280 528 OFFCURVE",
"211 500 OFFCURVE",
"178 445 CURVE",
"178 512 LINE"
);
},
{
closed = 1;
nodes = (
"107 613 LINE",
"121 638 OFFCURVE",
"156 691 OFFCURVE",
"212 691 CURVE SMOOTH",
"234 691 OFFCURVE",
"264 682 OFFCURVE",
"297 656 CURVE SMOOTH",
"342 622 OFFCURVE",
"382 608 OFFCURVE",
"422 608 CURVE SMOOTH",
"505 608 OFFCURVE",
"559 687 OFFCURVE",
"576 715 CURVE",
"527 758 LINE",
"513 733 OFFCURVE",
"478 680 OFFCURVE",
"422 680 CURVE SMOOTH",
"400 680 OFFCURVE",
"370 689 OFFCURVE",
"337 715 CURVE SMOOTH",
"292 749 OFFCURVE",
"252 763 OFFCURVE",
"212 763 CURVE SMOOTH",
"129 763 OFFCURVE",
"75 684 OFFCURVE",
"58 656 CURVE"
);
}
);
width = 626;
}
);
leftKerningGroup = m;
note = ntilde;
rightKerningGroup = b;
unicode = 00F1;
},
{
glyphname = ograve;
layers = (
{
hints = (
{
horizontal = 1;
place = "{-16, 76}";
type = Stem;
},
{
horizontal = 1;
place = "{452, 76}";
type = Stem;
},
{
horizontal = 1;
place = "{587, 21}";
target = up;
type = BottomGhost;
},
{
horizontal = 1;
place = "{752, -20}";
target = down;
type = TopGhost;
},
{
place = "{51, 90}";
type = Stem;
},
{
place = "{218, 198}";
type = Stem;
},
{
place = "{533, 90}";
type = Stem;
}
);
layerId = "46919C11-A143-4288-9F65-95BCCFE886E8";
paths = (
{
closed = 1;
nodes = (
"218 687 LINE",
"385 587 LINE",
"416 631 LINE",
"267 752 LINE"
);
},
{
closed = 1;
nodes = (
"141 370 OFFCURVE",
"223 452 OFFCURVE",
"337 452 CURVE SMOOTH",
"451 452 OFFCURVE",
"533 370 OFFCURVE",
"533 256 CURVE SMOOTH",
"533 142 OFFCURVE",
"451 60 OFFCURVE",
"337 60 CURVE SMOOTH",
"223 60 OFFCURVE",
"141 142 OFFCURVE",
"141 256 CURVE SMOOTH"
);
},
{
closed = 1;
nodes = (
"51 94 OFFCURVE",
"175 -16 OFFCURVE",
"337 -16 CURVE SMOOTH",
"499 -16 OFFCURVE",
"623 94 OFFCURVE",
"623 256 CURVE SMOOTH",
"623 418 OFFCURVE",
"499 528 OFFCURVE",
"337 528 CURVE SMOOTH",
"175 528 OFFCURVE",
"51 418 OFFCURVE",
"51 256 CURVE SMOOTH"
);
}
);
width = 675;
}
);
leftKerningGroup = c;
note = ograve;
rightKerningGroup = c;
unicode = 00F2;
},
{
glyphname = oacute;
layers = (
{
hints = (
{
horizontal = 1;
place = "{-16, 76}";
type = Stem;
},
{
horizontal = 1;
place = "{452, 76}";
type = Stem;
},
{
horizontal = 1;
place = "{587, 21}";
target = up;
type = BottomGhost;
},
{
horizontal = 1;
place = "{752, -20}";
target = down;
type = TopGhost;
},
{
place = "{51, 90}";
type = Stem;
},
{
place = "{258, 198}";
type = Stem;
},
{
place = "{533, 90}";
type = Stem;
}
);
layerId = "46919C11-A143-4288-9F65-95BCCFE886E8";
paths = (
{
closed = 1;
nodes = (
"258 631 LINE",
"289 587 LINE",
"456 687 LINE",
"407 752 LINE"
);
},
{
closed = 1;
nodes = (
"141 370 OFFCURVE",
"223 452 OFFCURVE",
"337 452 CURVE SMOOTH",
"451 452 OFFCURVE",
"533 370 OFFCURVE",
"533 256 CURVE SMOOTH",
"533 142 OFFCURVE",
"451 60 OFFCURVE",
"337 60 CURVE SMOOTH",
"223 60 OFFCURVE",
"141 142 OFFCURVE",
"141 256 CURVE SMOOTH"
);
},
{
closed = 1;
nodes = (
"51 94 OFFCURVE",
"175 -16 OFFCURVE",
"337 -16 CURVE SMOOTH",
"499 -16 OFFCURVE",
"623 94 OFFCURVE",
"623 256 CURVE SMOOTH",
"623 418 OFFCURVE",
"499 528 OFFCURVE",
"337 528 CURVE SMOOTH",
"175 528 OFFCURVE",
"51 418 OFFCURVE",
"51 256 CURVE SMOOTH"
);
}
);
width = 675;
}
);
leftKerningGroup = c;
note = oacute;
rightKerningGroup = c;
unicode = 00F3;
},
{
glyphname = ocircumflex;
layers = (
{
hints = (
{
horizontal = 1;
place = "{587, 21}";
target = up;
type = BottomGhost;
},
{
horizontal = 1;
place = "{775, -20}";
target = down;
type = TopGhost;
},
{
place = "{148, 378}";
type = Stem;
},
{
horizontal = 1;
place = "{-16, 76}";
type = Stem;
},
{
horizontal = 1;
place = "{452, 76}";
type = Stem;
},
{
place = "{51, 90}";
type = Stem;
},
{
place = "{533, 90}";
type = Stem;
}
);
layerId = "46919C11-A143-4288-9F65-95BCCFE886E8";
paths = (
{
closed = 1;
nodes = (
"148 636 LINE",
"184 587 LINE",
"337 699 LINE",
"490 587 LINE",
"526 636 LINE",
"337 775 LINE"
);
},
{
closed = 1;
nodes = (
"141 370 OFFCURVE",
"223 452 OFFCURVE",
"337 452 CURVE SMOOTH",
"451 452 OFFCURVE",
"533 370 OFFCURVE",
"533 256 CURVE SMOOTH",
"533 142 OFFCURVE",
"451 60 OFFCURVE",
"337 60 CURVE SMOOTH",
"223 60 OFFCURVE",
"141 142 OFFCURVE",
"141 256 CURVE SMOOTH"
);
},
{
closed = 1;
nodes = (
"51 94 OFFCURVE",
"175 -16 OFFCURVE",
"337 -16 CURVE SMOOTH",
"499 -16 OFFCURVE",
"623 94 OFFCURVE",
"623 256 CURVE SMOOTH",
"623 418 OFFCURVE",
"499 528 OFFCURVE",
"337 528 CURVE SMOOTH",
"175 528 OFFCURVE",
"51 418 OFFCURVE",
"51 256 CURVE SMOOTH"
);
}
);
width = 675;
}
);
leftKerningGroup = c;
note = ocircumflex;
rightKerningGroup = c;
unicode = 00F4;
},
{
glyphname = otilde;
layers = (
{
hints = (
{
horizontal = 1;
place = "{597, 72}";
type = Stem;
},
{
horizontal = 1;
place = "{680, 72}";
type = Stem;
},
{
place = "{78, 518}";
type = Stem;
},
{
horizontal = 1;
place = "{-16, 76}";
type = Stem;
},
{
horizontal = 1;
place = "{452, 76}";
type = Stem;
},
{
place = "{51, 90}";
type = Stem;
},
{
place = "{533, 90}";
type = Stem;
}
);
layerId = "46919C11-A143-4288-9F65-95BCCFE886E8";
paths = (
{
closed = 1;
nodes = (
"127 602 LINE",
"141 627 OFFCURVE",
"176 680 OFFCURVE",
"232 680 CURVE SMOOTH",
"254 680 OFFCURVE",
"284 671 OFFCURVE",
"317 645 CURVE SMOOTH",
"362 611 OFFCURVE",
"402 597 OFFCURVE",
"442 597 CURVE SMOOTH",
"525 597 OFFCURVE",
"579 676 OFFCURVE",
"596 704 CURVE",
"547 747 LINE",
"533 722 OFFCURVE",
"498 669 OFFCURVE",
"442 669 CURVE SMOOTH",
"420 669 OFFCURVE",
"390 678 OFFCURVE",
"357 704 CURVE SMOOTH",
"312 738 OFFCURVE",
"272 752 OFFCURVE",
"232 752 CURVE SMOOTH",
"149 752 OFFCURVE",
"95 673 OFFCURVE",
"78 645 CURVE"
);
},
{
closed = 1;
nodes = (
"141 370 OFFCURVE",
"223 452 OFFCURVE",
"337 452 CURVE SMOOTH",
"451 452 OFFCURVE",
"533 370 OFFCURVE",
"533 256 CURVE SMOOTH",
"533 142 OFFCURVE",
"451 60 OFFCURVE",
"337 60 CURVE SMOOTH",
"223 60 OFFCURVE",
"141 142 OFFCURVE",
"141 256 CURVE SMOOTH"
);
},
{
closed = 1;
nodes = (
"51 94 OFFCURVE",
"175 -16 OFFCURVE",
"337 -16 CURVE SMOOTH",
"499 -16 OFFCURVE",
"623 94 OFFCURVE",
"623 256 CURVE SMOOTH",
"623 418 OFFCURVE",
"499 528 OFFCURVE",
"337 528 CURVE SMOOTH",
"175 528 OFFCURVE",
"51 418 OFFCURVE",
"51 256 CURVE SMOOTH"
);
}
);
width = 675;
}
);
leftKerningGroup = c;
note = otilde;
rightKerningGroup = c;
unicode = 00F5;
},
{
glyphname = odieresis;
layers = (
{
hints = (
{
horizontal = 1;
place = "{648, 102}";
type = Stem;
},
{
place = "{169, 102}";
type = Stem;
},
{
place = "{403, 102}";
type = Stem;
},
{
horizontal = 1;
place = "{-16, 76}";
type = Stem;
},
{
horizontal = 1;
place = "{452, 76}";
type = Stem;
},
{
place = "{51, 90}";
type = Stem;
},
{
place = "{533, 90}";
type = Stem;
}
);
layerId = "46919C11-A143-4288-9F65-95BCCFE886E8";
paths = (
{
closed = 1;
nodes = (
"192 750 OFFCURVE",
"169 727 OFFCURVE",
"169 699 CURVE SMOOTH",
"169 671 OFFCURVE",
"192 648 OFFCURVE",
"220 648 CURVE SMOOTH",
"248 648 OFFCURVE",
"271 671 OFFCURVE",
"271 699 CURVE SMOOTH",
"271 727 OFFCURVE",
"248 750 OFFCURVE",
"220 750 CURVE SMOOTH"
);
},
{
closed = 1;
nodes = (
"426 750 OFFCURVE",
"403 727 OFFCURVE",
"403 699 CURVE SMOOTH",
"403 671 OFFCURVE",
"426 648 OFFCURVE",
"454 648 CURVE SMOOTH",
"482 648 OFFCURVE",
"505 671 OFFCURVE",
"505 699 CURVE SMOOTH",
"505 727 OFFCURVE",
"482 750 OFFCURVE",
"454 750 CURVE SMOOTH"
);
},
{
closed = 1;
nodes = (
"141 370 OFFCURVE",
"223 452 OFFCURVE",
"337 452 CURVE SMOOTH",
"451 452 OFFCURVE",
"533 370 OFFCURVE",
"533 256 CURVE SMOOTH",
"533 142 OFFCURVE",
"451 60 OFFCURVE",
"337 60 CURVE SMOOTH",
"223 60 OFFCURVE",
"141 142 OFFCURVE",
"141 256 CURVE SMOOTH"
);
},
{
closed = 1;
nodes = (
"51 94 OFFCURVE",
"175 -16 OFFCURVE",
"337 -16 CURVE SMOOTH",
"499 -16 OFFCURVE",
"623 94 OFFCURVE",
"623 256 CURVE SMOOTH",
"623 418 OFFCURVE",
"499 528 OFFCURVE",
"337 528 CURVE SMOOTH",
"175 528 OFFCURVE",
"51 418 OFFCURVE",
"51 256 CURVE SMOOTH"
);
}
);
width = 675;
}
);
leftKerningGroup = c;
note = odieresis;
rightKerningGroup = c;
unicode = 00F6;
},
{
glyphname = oslash;
layers = (
{
hints = (
{
horizontal = 1;
place = "{-17, 21}";
target = up;
type = BottomGhost;
},
{
horizontal = 1;
place = "{529, -20}";
target = down;
type = TopGhost;
},
{
place = "{51, 90}";
type = Stem;
},
{
place = "{533, 90}";
type = Stem;
},
{
horizontal = 1;
place = "{-16, 76}";
type = Stem;
},
{
horizontal = 1;
place = "{452, 76}";
type = Stem;
}
);
layerId = "46919C11-A143-4288-9F65-95BCCFE886E8";
paths = (
{
closed = 1;
nodes = (
"51 193 OFFCURVE",
"70 138 OFFCURVE",
"102 95 CURVE",
"7 18 LINE",
"36 -17 LINE",
"132 60 LINE",
"183 12 OFFCURVE",
"255 -16 OFFCURVE",
"337 -16 CURVE SMOOTH",
"499 -16 OFFCURVE",
"623 94 OFFCURVE",
"623 256 CURVE SMOOTH",
"623 319 OFFCURVE",
"604 373 OFFCURVE",
"572 417 CURVE",
"667 494 LINE",
"638 529 LINE",
"542 451 LINE",
"491 500 OFFCURVE",
"419 528 OFFCURVE",
"337 528 CURVE SMOOTH",
"175 528 OFFCURVE",
"51 418 OFFCURVE",
"51 256 CURVE SMOOTH"
);
},
{
closed = 1;
nodes = (
"533 142 OFFCURVE",
"451 60 OFFCURVE",
"337 60 CURVE SMOOTH",
"280 60 OFFCURVE",
"232 80 OFFCURVE",
"197 114 CURVE",
"504 362 LINE",
"522 332 OFFCURVE",
"533 296 OFFCURVE",
"533 256 CURVE SMOOTH"
);
},
{
closed = 1;
nodes = (
"141 370 OFFCURVE",
"223 452 OFFCURVE",
"337 452 CURVE SMOOTH",
"393 452 OFFCURVE",
"442 432 OFFCURVE",
"476 398 CURVE",
"169 149 LINE",
"151 179 OFFCURVE",
"141 216 OFFCURVE",
"141 256 CURVE SMOOTH"
);
}
);
width = 675;
}
);
leftKerningGroup = c;
note = oslash;
rightKerningGroup = c;
unicode = 00F8;
},
{
glyphname = ugrave;
layers = (
{
hints = (
{
horizontal = 1;
place = "{-16, 73}";
type = Stem;
},
{
horizontal = 1;
place = "{512, -20}";
target = down;
type = TopGhost;
},
{
horizontal = 1;
place = "{587, 21}";
target = up;
type = BottomGhost;
},
{
horizontal = 1;
place = "{752, -20}";
target = down;
type = TopGhost;
},
{
place = "{82, 88}";
type = Stem;
},
{
place = "{188, 198}";
type = Stem;
},
{
place = "{444, 88}";
type = Stem;
}
);
layerId = "46919C11-A143-4288-9F65-95BCCFE886E8";
paths = (
{
closed = 1;
nodes = (
"82 512 LINE",
"82 214 LINE SMOOTH",
"82 45 OFFCURVE",
"156 -16 OFFCURVE",
"307 -16 CURVE SMOOTH",
"458 -16 OFFCURVE",
"532 45 OFFCURVE",
"532 214 CURVE SMOOTH",
"532 512 LINE",
"444 512 LINE",
"444 231 LINE SMOOTH",
"444 92 OFFCURVE",
"395 57 OFFCURVE",
"307 57 CURVE SMOOTH",
"219 57 OFFCURVE",
"170 92 OFFCURVE",
"170 231 CURVE SMOOTH",
"170 512 LINE"
);
},
{
closed = 1;
nodes = (
"188 687 LINE",
"355 587 LINE",
"386 631 LINE",
"237 752 LINE"
);
}
);
width = 614;
}
);
leftKerningGroup = u;
note = ugrave;
rightKerningGroup = u;
unicode = 00F9;
},
{
glyphname = uacute;
layers = (
{
hints = (
{
horizontal = 1;
place = "{-16, 73}";
type = Stem;
},
{
horizontal = 1;
place = "{512, -20}";
target = down;
type = TopGhost;
},
{
horizontal = 1;
place = "{587, 21}";
target = up;
type = BottomGhost;
},
{
horizontal = 1;
place = "{752, -20}";
target = down;
type = TopGhost;
},
{
place = "{82, 88}";
type = Stem;
},
{
place = "{228, 198}";
type = Stem;
},
{
place = "{444, 88}";
type = Stem;
}
);
layerId = "46919C11-A143-4288-9F65-95BCCFE886E8";
paths = (
{
closed = 1;
nodes = (
"82 512 LINE",
"82 214 LINE SMOOTH",
"82 45 OFFCURVE",
"156 -16 OFFCURVE",
"307 -16 CURVE SMOOTH",
"458 -16 OFFCURVE",
"532 45 OFFCURVE",
"532 214 CURVE SMOOTH",
"532 512 LINE",
"444 512 LINE",
"444 231 LINE SMOOTH",
"444 92 OFFCURVE",
"395 57 OFFCURVE",
"307 57 CURVE SMOOTH",
"219 57 OFFCURVE",
"170 92 OFFCURVE",
"170 231 CURVE SMOOTH",
"170 512 LINE"
);
},
{
closed = 1;
nodes = (
"228 631 LINE",
"259 587 LINE",
"426 687 LINE",
"377 752 LINE"
);
}
);
width = 614;
}
);
leftKerningGroup = u;
note = uacute;
rightKerningGroup = u;
unicode = 00FA;
},
{
glyphname = ucircumflex;
layers = (
{
hints = (
{
horizontal = 1;
place = "{-16, 73}";
type = Stem;
},
{
horizontal = 1;
place = "{512, -20}";
target = down;
type = TopGhost;
},
{
place = "{82, 88}";
type = Stem;
},
{
place = "{444, 88}";
type = Stem;
},
{
horizontal = 1;
place = "{587, 21}";
target = up;
type = BottomGhost;
},
{
horizontal = 1;
place = "{775, -20}";
target = down;
type = TopGhost;
},
{
place = "{118, 378}";
type = Stem;
}
);
layerId = "46919C11-A143-4288-9F65-95BCCFE886E8";
paths = (
{
closed = 1;
nodes = (
"82 512 LINE",
"82 214 LINE SMOOTH",
"82 45 OFFCURVE",
"156 -16 OFFCURVE",
"307 -16 CURVE SMOOTH",
"458 -16 OFFCURVE",
"532 45 OFFCURVE",
"532 214 CURVE SMOOTH",
"532 512 LINE",
"444 512 LINE",
"444 231 LINE SMOOTH",
"444 92 OFFCURVE",
"395 57 OFFCURVE",
"307 57 CURVE SMOOTH",
"219 57 OFFCURVE",
"170 92 OFFCURVE",
"170 231 CURVE SMOOTH",
"170 512 LINE"
);
},
{
closed = 1;
nodes = (
"118 636 LINE",
"154 587 LINE",
"307 699 LINE",
"460 587 LINE",
"496 636 LINE",
"307 775 LINE"
);
}
);
width = 614;
}
);
leftKerningGroup = u;
note = ucircumflex;
rightKerningGroup = u;
unicode = 00FB;
},
{
glyphname = udieresis;
layers = (
{
hints = (
{
horizontal = 1;
place = "{-16, 73}";
type = Stem;
},
{
horizontal = 1;
place = "{512, -20}";
target = down;
type = TopGhost;
},
{
place = "{82, 88}";
type = Stem;
},
{
place = "{444, 88}";
type = Stem;
},
{
horizontal = 1;
place = "{607, 102}";
type = Stem;
},
{
place = "{139, 102}";
type = Stem;
},
{
place = "{373, 102}";
type = Stem;
}
);
layerId = "46919C11-A143-4288-9F65-95BCCFE886E8";
paths = (
{
closed = 1;
nodes = (
"82 512 LINE",
"82 214 LINE SMOOTH",
"82 45 OFFCURVE",
"156 -16 OFFCURVE",
"307 -16 CURVE SMOOTH",
"458 -16 OFFCURVE",
"532 45 OFFCURVE",
"532 214 CURVE SMOOTH",
"532 512 LINE",
"444 512 LINE",
"444 231 LINE SMOOTH",
"444 92 OFFCURVE",
"395 57 OFFCURVE",
"307 57 CURVE SMOOTH",
"219 57 OFFCURVE",
"170 92 OFFCURVE",
"170 231 CURVE SMOOTH",
"170 512 LINE"
);
},
{
closed = 1;
nodes = (
"162 709 OFFCURVE",
"139 686 OFFCURVE",
"139 658 CURVE SMOOTH",
"139 630 OFFCURVE",
"162 607 OFFCURVE",
"190 607 CURVE SMOOTH",
"218 607 OFFCURVE",
"241 630 OFFCURVE",
"241 658 CURVE SMOOTH",
"241 686 OFFCURVE",
"218 709 OFFCURVE",
"190 709 CURVE SMOOTH"
);
},
{
closed = 1;
nodes = (
"396 709 OFFCURVE",
"373 686 OFFCURVE",
"373 658 CURVE SMOOTH",
"373 630 OFFCURVE",
"396 607 OFFCURVE",
"424 607 CURVE SMOOTH",
"452 607 OFFCURVE",
"475 630 OFFCURVE",
"475 658 CURVE SMOOTH",
"475 686 OFFCURVE",
"452 709 OFFCURVE",
"424 709 CURVE SMOOTH"
);
}
);
width = 614;
}
);
leftKerningGroup = u;
note = udieresis;
rightKerningGroup = u;
unicode = 00FC;
},
{
glyphname = yacute;
layers = (
{
hints = (
{
horizontal = 1;
place = "{-260, 21}";
target = up;
type = BottomGhost;
},
{
horizontal = 1;
place = "{512, -20}";
target = down;
type = TopGhost;
},
{
horizontal = 1;
place = "{587, 21}";
target = up;
type = BottomGhost;
},
{
horizontal = 1;
place = "{752, -20}";
target = down;
type = TopGhost;
},
{
place = "{-5, 570}";
type = Stem;
},
{
place = "{211, 198}";
type = Stem;
}
);
layerId = "46919C11-A143-4288-9F65-95BCCFE886E8";
paths = (
{
closed = 1;
nodes = (
"-5 512 LINE",
"239 22 LINE",
"106 -260 LINE",
"205 -260 LINE",
"565 512 LINE",
"464 512 LINE",
"290 111 LINE",
"96 512 LINE"
);
},
{
closed = 1;
nodes = (
"211 631 LINE",
"242 587 LINE",
"409 687 LINE",
"360 752 LINE"
);
}
);
width = 560;
}
);
leftKerningGroup = v;
note = yacute;
rightKerningGroup = v;
unicode = 00FD;
},
{
glyphname = ydieresis;
layers = (
{
hints = (
{
horizontal = 1;
place = "{-260, 21}";
target = up;
type = BottomGhost;
},
{
horizontal = 1;
place = "{512, -20}";
target = down;
type = TopGhost;
},
{
place = "{-5, 570}";
type = Stem;
},
{
horizontal = 1;
place = "{607, 102}";
type = Stem;
},
{
place = "{122, 102}";
type = Stem;
},
{
place = "{356, 102}";
type = Stem;
}
);
layerId = "46919C11-A143-4288-9F65-95BCCFE886E8";
paths = (
{
closed = 1;
nodes = (
"-5 512 LINE",
"239 22 LINE",
"106 -260 LINE",
"205 -260 LINE",
"565 512 LINE",
"464 512 LINE",
"290 111 LINE",
"96 512 LINE"
);
},
{
closed = 1;
nodes = (
"145 709 OFFCURVE",
"122 686 OFFCURVE",
"122 658 CURVE SMOOTH",
"122 630 OFFCURVE",
"145 607 OFFCURVE",
"173 607 CURVE SMOOTH",
"201 607 OFFCURVE",
"224 630 OFFCURVE",
"224 658 CURVE SMOOTH",
"224 686 OFFCURVE",
"201 709 OFFCURVE",
"173 709 CURVE SMOOTH"
);
},
{
closed = 1;
nodes = (
"379 709 OFFCURVE",
"356 686 OFFCURVE",
"356 658 CURVE SMOOTH",
"356 630 OFFCURVE",
"379 607 OFFCURVE",
"407 607 CURVE SMOOTH",
"435 607 OFFCURVE",
"458 630 OFFCURVE",
"458 658 CURVE SMOOTH",
"458 686 OFFCURVE",
"435 709 OFFCURVE",
"407 709 CURVE SMOOTH"
);
}
);
width = 560;
}
);
leftKerningGroup = v;
note = ydieresis;
rightKerningGroup = v;
unicode = 00FF;
},
{
glyphname = thorn;
layers = (
{
hints = (
{
horizontal = 1;
place = "{-260, 21}";
target = up;
type = BottomGhost;
},
{
horizontal = 1;
place = "{-16, 76}";
type = Stem;
},
{
horizontal = 1;
place = "{452, 76}";
type = Stem;
},
{
horizontal = 1;
place = "{861, -20}";
target = down;
type = TopGhost;
},
{
place = "{90, 88}";
type = Stem;
},
{
place = "{547, 92}";
type = Stem;
}
);
layerId = "46919C11-A143-4288-9F65-95BCCFE886E8";
paths = (
{
closed = 1;
nodes = (
"90 -260 LINE",
"178 -260 LINE",
"178 101 LINE",
"219 30 OFFCURVE",
"293 -16 OFFCURVE",
"383 -16 CURVE SMOOTH",
"530 -16 OFFCURVE",
"639 100 OFFCURVE",
"639 256 CURVE SMOOTH",
"639 412 OFFCURVE",
"530 528 OFFCURVE",
"383 528 CURVE SMOOTH",
"293 528 OFFCURVE",
"219 484 OFFCURVE",
"178 414 CURVE",
"178 861 LINE",
"90 861 LINE"
);
},
{
closed = 1;
nodes = (
"547 142 OFFCURVE",
"469 60 OFFCURVE",
"361 60 CURVE SMOOTH",
"253 60 OFFCURVE",
"175 142 OFFCURVE",
"175 256 CURVE SMOOTH",
"175 371 OFFCURVE",
"254 452 OFFCURVE",
"361 452 CURVE SMOOTH",
"467 452 OFFCURVE",
"547 371 OFFCURVE",
"547 256 CURVE SMOOTH"
);
}
);
width = 690;
}
);
note = thorn;
rightKerningGroup = b;
unicode = 00FE;
},
{
glyphname = Amacron;
layers = (
{
hints = (
{
horizontal = 1;
place = "{0, 21}";
target = up;
type = BottomGhost;
},
{
horizontal = 1;
place = "{249, 81}";
type = Stem;
},
{
horizontal = 1;
place = "{825, -20}";
target = down;
type = TopGhost;
},
{
horizontal = 1;
place = "{946, 62}";
type = Stem;
},
{
place = "{-10, 736}";
type = Stem;
},
{
place = "{154, 408}";
type = Stem;
}
);
layerId = "46919C11-A143-4288-9F65-95BCCFE886E8";
paths = (
{
closed = 1;
nodes = (
"316 825 LINE",
"-10 0 LINE",
"89 0 LINE",
"183 249 LINE",
"533 249 LINE",
"627 0 LINE",
"726 0 LINE",
"400 825 LINE"
);
},
{
closed = 1;
nodes = (
"215 330 LINE",
"358 703 LINE",
"501 330 LINE"
);
},
{
closed = 1;
nodes = (
"154 1008 LINE",
"154 946 LINE",
"562 946 LINE",
"562 1008 LINE"
);
}
);
width = 716;
}
);
leftKerningGroup = A;
note = Amacron;
rightKerningGroup = space;
unicode = 0100;
},
{
glyphname = amacron;
layers = (
{
hints = (
{
horizontal = 1;
place = "{-16, 76}";
type = Stem;
},
{
horizontal = 1;
place = "{512, -20}";
target = down;
type = TopGhost;
},
{
horizontal = 1;
place = "{634, 62}";
type = Stem;
},
{
place = "{54, 92}";
type = Stem;
},
{
place = "{515, 88}";
type = Stem;
},
{
horizontal = 1;
place = "{0, 21}";
target = up;
type = BottomGhost;
},
{
horizontal = 1;
place = "{452, 76}";
type = Stem;
},
{
place = "{125, 408}";
type = Stem;
}
);
layerId = "46919C11-A143-4288-9F65-95BCCFE886E8";
paths = (
{
closed = 1;
nodes = (
"54 100 OFFCURVE",
"163 -16 OFFCURVE",
"310 -16 CURVE SMOOTH",
"400 -16 OFFCURVE",
"474 30 OFFCURVE",
"515 101 CURVE",
"515 0 LINE",
"603 0 LINE",
"603 512 LINE",
"515 512 LINE",
"515 414 LINE",
"474 484 OFFCURVE",
"400 528 OFFCURVE",
"310 528 CURVE SMOOTH",
"163 528 OFFCURVE",
"54 412 OFFCURVE",
"54 256 CURVE SMOOTH"
);
},
{
closed = 1;
nodes = (
"146 371 OFFCURVE",
"226 452 OFFCURVE",
"332 452 CURVE SMOOTH",
"439 452 OFFCURVE",
"518 371 OFFCURVE",
"518 256 CURVE SMOOTH",
"518 142 OFFCURVE",
"440 60 OFFCURVE",
"332 60 CURVE SMOOTH",
"224 60 OFFCURVE",
"146 142 OFFCURVE",
"146 256 CURVE SMOOTH"
);
},
{
closed = 1;
nodes = (
"125 696 LINE",
"125 634 LINE",
"533 634 LINE",
"533 696 LINE"
);
}
);
width = 693;
}
);
leftKerningGroup = a;
note = amacron;
rightKerningGroup = a;
unicode = 0101;
},
